M48
; DRILL file KiCad 10.0.4 date 2026-08-05T17:30:46
; FORMAT={-:-/ absolute / metric / decimal}
; #@! TF.CreationDate,2026-08-05T17:30:46-04:00
; #@! TF.GenerationSoftware,Kicad,Pcbnew,10.0.4
; #@! TF.FileFunction,MixedPlating,1,2
FMAT,2
METRIC
; #@! TA.AperFunction,Plated,PTH,ViaDrill
T1C0.300
; #@! TA.AperFunction,Plated,PTH,ComponentDrill
T2C0.400
; #@! TA.AperFunction,Plated,PTH,ComponentDrill
T3C0.750
; #@! TA.AperFunction,Plated,PTH,ComponentDrill
T4C0.762
; #@! TA.AperFunction,Plated,PTH,ComponentDrill
T5C1.000
; #@! TA.AperFunction,Plated,PTH,ComponentDrill
T6C2.200
; #@! TA.AperFunction,Plated,PTH,ComponentDrill
T7C2.540
; #@! TA.AperFunction,NonPlated,NPTH,ComponentDrill
T8C1.000
%
G90
G05
T1
X88.9Y-76.2
X88.9Y-96.52
X93.0Y-80.0
X101.6Y-81.28
X104.14Y-91.44
X111.76Y-78.74
X116.205Y-80.772
X121.793Y-76.327
X124.46Y-78.74
X132.08Y-76.2
X132.08Y-96.52
X137.16Y-78.74
X152.4Y-76.2
X152.4Y-96.52
T2
X54.35Y-74.5
X54.35Y-98.5
X54.833Y-73.333
X54.833Y-75.667
X54.833Y-97.333
X54.833Y-99.667
X56.0Y-72.85
X56.0Y-76.15
X56.0Y-96.85
X56.0Y-100.15
X57.167Y-73.333
X57.167Y-75.667
X57.167Y-97.333
X57.167Y-99.667
X57.65Y-74.5
X57.65Y-98.5
X168.35Y-74.5
X168.35Y-98.5
X168.833Y-73.333
X168.833Y-75.667
X168.833Y-97.333
X168.833Y-99.667
X170.0Y-72.85
X170.0Y-76.15
X170.0Y-96.85
X170.0Y-100.15
X171.167Y-73.333
X171.167Y-75.667
X171.167Y-97.333
X171.167Y-99.667
X171.65Y-74.5
X171.65Y-98.5
T3
X98.0Y-94.8
X100.0Y-94.8
T4
X119.38Y-76.2
X119.38Y-78.74
X119.38Y-81.28
X119.38Y-83.82
X119.38Y-86.36
X119.38Y-88.9
X119.38Y-91.44
X119.38Y-93.98
X119.38Y-96.52
X134.62Y-76.2
X134.62Y-78.74
X134.62Y-81.28
X134.62Y-83.82
X134.62Y-86.36
X134.62Y-88.9
X134.62Y-91.44
X134.62Y-93.98
X134.62Y-96.52
T5
X91.44Y-76.2
X91.44Y-78.74
X91.44Y-81.28
X91.44Y-83.82
X91.44Y-86.36
X91.44Y-88.9
X91.44Y-91.44
X91.44Y-93.98
X91.44Y-96.52
X139.7Y-76.2
X139.7Y-78.74
X139.7Y-81.28
X139.7Y-83.82
X139.7Y-86.36
X139.7Y-88.9
X139.7Y-91.44
X139.7Y-93.98
X139.7Y-96.52
X165.1Y-76.2
X165.1Y-78.74
X165.1Y-81.28
X165.1Y-83.82
X165.1Y-86.36
T6
X56.0Y-74.5
X56.0Y-98.5
X170.0Y-74.5
X170.0Y-98.5
T7
X61.976Y-76.2
X61.976Y-96.52
T8
X108.4Y-99.27
X108.585Y-73.66
X115.2Y-99.27
X115.385Y-73.66
M30
