%TF.GenerationSoftware,KiCad,Pcbnew,10.0.4*%
%TF.CreationDate,2026-08-12T12:52:57-04:00*%
%TF.ProjectId,Pigeon,50696765-6f6e-42e6-9b69-6361645f7063,rev?*%
%TF.SameCoordinates,Original*%
%TF.FileFunction,Copper,L1,Top*%
%TF.FilePolarity,Positive*%
%FSLAX46Y46*%
G04 Gerber Fmt 4.6, Leading zero omitted, Abs format (unit mm)*
G04 Created by KiCad (PCBNEW 10.0.4) date 2026-08-12 12:52:57*
%MOMM*%
%LPD*%
G01*
G04 APERTURE LIST*
G04 Aperture macros list*
%AMRoundRect*
0 Rectangle with rounded corners*
0 $1 Rounding radius*
0 $2 $3 $4 $5 $6 $7 $8 $9 X,Y pos of 4 corners*
0 Add a 4 corners polygon primitive as box body*
4,1,4,$2,$3,$4,$5,$6,$7,$8,$9,$2,$3,0*
0 Add four circle primitives for the rounded corners*
1,1,$1+$1,$2,$3*
1,1,$1+$1,$4,$5*
1,1,$1+$1,$6,$7*
1,1,$1+$1,$8,$9*
0 Add four rect primitives between the rounded corners*
20,1,$1+$1,$2,$3,$4,$5,0*
20,1,$1+$1,$4,$5,$6,$7,0*
20,1,$1+$1,$6,$7,$8,$9,0*
20,1,$1+$1,$8,$9,$2,$3,0*%
G04 Aperture macros list end*
%TA.AperFunction,SMDPad,CuDef*%
%ADD10RoundRect,0.250000X0.475000X-0.337500X0.475000X0.337500X-0.475000X0.337500X-0.475000X-0.337500X0*%
%TD*%
%TA.AperFunction,SMDPad,CuDef*%
%ADD11C,2.000000*%
%TD*%
%TA.AperFunction,ComponentPad*%
%ADD12C,0.700000*%
%TD*%
%TA.AperFunction,ComponentPad*%
%ADD13C,4.400000*%
%TD*%
%TA.AperFunction,ComponentPad*%
%ADD14RoundRect,0.250000X-0.350000X-0.625000X0.350000X-0.625000X0.350000X0.625000X-0.350000X0.625000X0*%
%TD*%
%TA.AperFunction,ComponentPad*%
%ADD15O,1.200000X1.750000*%
%TD*%
%TA.AperFunction,SMDPad,CuDef*%
%ADD16RoundRect,0.250000X-0.337500X-0.475000X0.337500X-0.475000X0.337500X0.475000X-0.337500X0.475000X0*%
%TD*%
%TA.AperFunction,ComponentPad*%
%ADD17C,3.540000*%
%TD*%
%TA.AperFunction,ComponentPad*%
%ADD18R,1.800000X1.800000*%
%TD*%
%TA.AperFunction,ComponentPad*%
%ADD19C,1.800000*%
%TD*%
%TA.AperFunction,SMDPad,CuDef*%
%ADD20RoundRect,0.250000X0.450000X-0.350000X0.450000X0.350000X-0.450000X0.350000X-0.450000X-0.350000X0*%
%TD*%
%TA.AperFunction,SMDPad,CuDef*%
%ADD21R,1.200000X2.500000*%
%TD*%
%TA.AperFunction,SMDPad,CuDef*%
%ADD22R,3.000000X2.500000*%
%TD*%
%TA.AperFunction,ViaPad*%
%ADD23C,0.600000*%
%TD*%
%TA.AperFunction,Conductor*%
%ADD24C,0.400000*%
%TD*%
%TA.AperFunction,Conductor*%
%ADD25C,0.200000*%
%TD*%
G04 APERTURE END LIST*
D10*
%TO.P,C1,1*%
%TO.N,/VBAT_SENSE*%
X114300000Y-88265000D03*
%TO.P,C1,2*%
%TO.N,GND*%
X114300000Y-86190000D03*
%TD*%
D11*
%TO.P,TP1,1,1_1*%
%TO.N,/VBAT*%
X101600000Y-75565000D03*
%TD*%
D12*
%TO.P,MH3,1,1_1*%
%TO.N,GND*%
X54350000Y-98500000D03*
X54833274Y-97333274D03*
X54833274Y-99666726D03*
X56000000Y-96850000D03*
D13*
X56000000Y-98500000D03*
D12*
X56000000Y-100150000D03*
X57166726Y-97333274D03*
X57166726Y-99666726D03*
X57650000Y-98500000D03*
%TD*%
D14*
%TO.P,J1,1,Pin_1_1*%
%TO.N,Net-(J1-Pin_1)*%
X98000000Y-94800000D03*
D15*
%TO.P,J1,2,Pin_2_2*%
%TO.N,GND*%
X100000000Y-94800000D03*
%TD*%
D16*
%TO.P,C2,1*%
%TO.N,GND*%
X103970000Y-93980000D03*
%TO.P,C2,2*%
%TO.N,/VBAT*%
X106045000Y-93980000D03*
%TD*%
D17*
%TO.P,U2,*%
%TO.N,*%
X61976000Y-96520000D03*
X61976000Y-76200000D03*
D18*
%TO.P,U2,1,3V3_1*%
%TO.N,unconnected-(U2-3V3-Pad1)*%
X91440000Y-96520000D03*
D19*
%TO.P,U2,2,EN_2*%
%TO.N,unconnected-(U2-EN-Pad2)*%
X91440000Y-93980000D03*
%TO.P,U2,3,VBAT_3*%
%TO.N,unconnected-(U2-VBAT-Pad3)*%
X91440000Y-91440000D03*
%TO.P,U2,4,FIX_4*%
%TO.N,/GPS_FIX*%
X91440000Y-88900000D03*
%TO.P,U2,5,TX_5*%
%TO.N,/GPS_TX*%
X91440000Y-86360000D03*
%TO.P,U2,6,RX_6*%
%TO.N,/GPS_RX*%
X91440000Y-83820000D03*
%TO.P,U2,7,GND_7*%
%TO.N,GND*%
X91440000Y-81280000D03*
%TO.P,U2,8,VIN_8*%
%TO.N,+3V3*%
X91440000Y-78740000D03*
%TO.P,U2,9,PPS_9*%
%TO.N,/GPS_PPS*%
X91440000Y-76200000D03*
%TD*%
D12*
%TO.P,MH2,1,1_1*%
%TO.N,GND*%
X168350000Y-98500000D03*
X168833274Y-97333274D03*
X168833274Y-99666726D03*
X170000000Y-96850000D03*
D13*
X170000000Y-98500000D03*
D12*
X170000000Y-100150000D03*
X171166726Y-97333274D03*
X171166726Y-99666726D03*
X171650000Y-98500000D03*
%TD*%
D20*
%TO.P,R1,1*%
%TO.N,/VBAT*%
X114300000Y-93345000D03*
%TO.P,R1,2*%
%TO.N,/VBAT_SENSE*%
X114300000Y-91345000D03*
%TD*%
D11*
%TO.P,TP2,1,1_1*%
%TO.N,GND*%
X97790000Y-75565000D03*
%TD*%
D21*
%TO.P,SW2,1,A_1*%
%TO.N,+3V3*%
X114485000Y-76410000D03*
%TO.P,SW2,2,B_2*%
%TO.N,/MODE_SW*%
X111985000Y-76410000D03*
%TO.P,SW2,3,C_3*%
%TO.N,GND*%
X109485000Y-76410000D03*
%TD*%
%TO.P,SW1,1,A_1*%
%TO.N,unconnected-(SW1-A-Pad1)*%
X109300000Y-96520000D03*
%TO.P,SW1,2,B_2*%
%TO.N,Net-(J1-Pin_1)*%
X111800000Y-96520000D03*
%TO.P,SW1,3,C_3*%
%TO.N,/VBAT*%
X114300000Y-96520000D03*
%TD*%
D12*
%TO.P,MH4,1,1_1*%
%TO.N,GND*%
X54350000Y-74500000D03*
X54833274Y-73333274D03*
X54833274Y-75666726D03*
X56000000Y-72850000D03*
D13*
X56000000Y-74500000D03*
D12*
X56000000Y-76150000D03*
X57166726Y-73333274D03*
X57166726Y-75666726D03*
X57650000Y-74500000D03*
%TD*%
D20*
%TO.P,R2,1*%
%TO.N,/VBAT_SENSE*%
X114300000Y-83185000D03*
%TO.P,R2,2*%
%TO.N,GND*%
X114300000Y-81185000D03*
%TD*%
D18*
%TO.P,U1,1,VDD_1*%
%TO.N,/VBAT*%
X119380000Y-76200000D03*
D19*
%TO.P,U1,2,GND_2*%
%TO.N,GND*%
X119380000Y-78740000D03*
%TO.P,U1,3,3V3(OUT)_3*%
%TO.N,+3V3*%
X119380000Y-81280000D03*
%TO.P,U1,4,GPIO1_4*%
%TO.N,/VBAT_SENSE*%
X119380000Y-83820000D03*
%TO.P,U1,5,GPIO2_5*%
%TO.N,/GPS_RX*%
X119380000Y-86360000D03*
%TO.P,U1,6,GPIO3_6*%
%TO.N,/GPS_TX*%
X119380000Y-88900000D03*
%TO.P,U1,7,GPIO4_7*%
%TO.N,/GPS_FIX*%
X119380000Y-91440000D03*
%TO.P,U1,8,GPIO5_8*%
%TO.N,/GPS_PPS*%
X119380000Y-93980000D03*
%TO.P,U1,9,GPIO6_9*%
%TO.N,/BUZZER*%
X119380000Y-96520000D03*
%TO.P,U1,10,GPIO7_10*%
%TO.N,/LORA_RST*%
X134620000Y-96520000D03*
%TO.P,U1,11,GPIO8_11*%
%TO.N,/LORA_CS*%
X134620000Y-93980000D03*
%TO.P,U1,12,GPIO9_12*%
%TO.N,/SPI_MOSI*%
X134620000Y-91440000D03*
%TO.P,U1,13,GPIO10_13*%
%TO.N,/SPI_MISO*%
X134620000Y-88900000D03*
%TO.P,U1,14,GPIO11_14*%
%TO.N,/SPI_SCK*%
X134620000Y-86360000D03*
%TO.P,U1,15,GPIO12_15*%
%TO.N,/LORA_DIO0*%
X134620000Y-83820000D03*
%TO.P,U1,16,GPIO13_16*%
%TO.N,/MODE_SW*%
X134620000Y-81280000D03*
%TO.P,U1,17,RX_17*%
%TO.N,unconnected-(U1-RX-Pad17)*%
X134620000Y-78740000D03*
%TO.P,U1,18,TX_18*%
%TO.N,unconnected-(U1-TX-Pad18)*%
X134620000Y-76200000D03*
%TD*%
D18*
%TO.P,U3,1,VIN_1*%
%TO.N,+3V3*%
X139700000Y-76200000D03*
D19*
%TO.P,U3,2,GND_2*%
%TO.N,GND*%
X139700000Y-78740000D03*
%TO.P,U3,3,EN_3*%
%TO.N,unconnected-(U3-EN-Pad3)*%
X139700000Y-81280000D03*
%TO.P,U3,4,G0_4*%
%TO.N,/LORA_DIO0*%
X139700000Y-83820000D03*
%TO.P,U3,5,SCK_5*%
%TO.N,/SPI_SCK*%
X139700000Y-86360000D03*
%TO.P,U3,6,MISO_6*%
%TO.N,/SPI_MISO*%
X139700000Y-88900000D03*
%TO.P,U3,7,MOSI_7*%
%TO.N,/SPI_MOSI*%
X139700000Y-91440000D03*
%TO.P,U3,8,CS_8*%
%TO.N,/LORA_CS*%
X139700000Y-93980000D03*
%TO.P,U3,9,RST_9*%
%TO.N,/LORA_RST*%
X139700000Y-96520000D03*
%TO.P,U3,10,G1_10*%
%TO.N,unconnected-(U3-G1-Pad10)*%
X165100000Y-76200000D03*
%TO.P,U3,11,G2_11*%
%TO.N,unconnected-(U3-G2-Pad11)*%
X165100000Y-78740000D03*
%TO.P,U3,12,G3_12*%
%TO.N,unconnected-(U3-G3-Pad12)*%
X165100000Y-81280000D03*
%TO.P,U3,13,G4_13*%
%TO.N,unconnected-(U3-G4-Pad13)*%
X165100000Y-83820000D03*
%TO.P,U3,14,G5_14*%
%TO.N,unconnected-(U3-G5-Pad14)*%
X165100000Y-86360000D03*
%TD*%
D12*
%TO.P,MH1,1,1_1*%
%TO.N,GND*%
X168350000Y-74500000D03*
X168833274Y-73333274D03*
X168833274Y-75666726D03*
X170000000Y-72850000D03*
D13*
X170000000Y-74500000D03*
D12*
X170000000Y-76150000D03*
X171166726Y-73333274D03*
X171166726Y-75666726D03*
X171650000Y-74500000D03*
%TD*%
D22*
%TO.P,BZ1,1,+_1*%
%TO.N,/BUZZER*%
X110624000Y-85344000D03*
%TO.P,BZ1,2,-_2*%
%TO.N,GND*%
X95624000Y-85344000D03*
%TD*%
D23*
%TO.N,GND*%
X113030000Y-90170000D03*
X99060000Y-81280000D03*
X137160000Y-78740000D03*
X132080000Y-76200000D03*
X152400000Y-76200000D03*
X121920000Y-76200000D03*
X109220000Y-81280000D03*
X88900000Y-96520000D03*
X152400000Y-96520000D03*
X116840000Y-81280000D03*
X104775000Y-90170000D03*
X88900000Y-76200000D03*
X124460000Y-78740000D03*
X132080000Y-96520000D03*
%TO.N,+3V3*%
X111760000Y-78740000D03*
%TD*%
%TO.N,/VBAT_SENSE*%
D24*
X114300000Y-83185000D02*
X118745000Y-83185000D01*
X118745000Y-83185000D02*
X119380000Y-83820000D01*
X114935000Y-88265000D02*
X119380000Y-83820000D01*
X114300000Y-88265000D02*
X114935000Y-88265000D01*
X114300000Y-91345000D02*
X114300000Y-88265000D01*
%TO.N,/VBAT*%
X106045000Y-80010000D02*
X106045000Y-93980000D01*
X101600000Y-75565000D02*
X106045000Y-80010000D01*
X113665000Y-93980000D02*
X114300000Y-93345000D01*
X106045000Y-93980000D02*
X113665000Y-93980000D01*
X121285000Y-78105000D02*
X121285000Y-97155000D01*
X119380000Y-76200000D02*
X121285000Y-78105000D01*
X120120000Y-98320000D02*
X121285000Y-97155000D01*
X116100000Y-98320000D02*
X120120000Y-98320000D01*
X116100000Y-98320000D02*
X114300000Y-96520000D01*
%TO.N,/BUZZER*%
D25*
X110624000Y-89453744D02*
X113615256Y-92445000D01*
X113615256Y-92445000D02*
X115305000Y-92445000D01*
X110624000Y-85344000D02*
X110624000Y-89453744D01*
X115305000Y-92445000D02*
X119380000Y-96520000D01*
%TO.N,/VBAT*%
D24*
X114300000Y-96520000D02*
X114300000Y-93345000D01*
%TO.N,Net-(J1-Pin_1)*%
X101520000Y-98320000D02*
X110000000Y-98320000D01*
X98000000Y-94800000D02*
X101520000Y-98320000D01*
X110000000Y-98320000D02*
X111800000Y-96520000D01*
%TO.N,+3V3*%
X114300000Y-78740000D02*
X114485000Y-78555000D01*
X114485000Y-78555000D02*
X114485000Y-76410000D01*
X111760000Y-78740000D02*
X114300000Y-78740000D01*
%TO.N,/MODE_SW*%
X111985000Y-76410000D02*
X113635000Y-74760000D01*
X113635000Y-74760000D02*
X128100000Y-74760000D01*
X128100000Y-74760000D02*
X134620000Y-81280000D01*
%TD*%
%TA.AperFunction,Conductor*%
%TO.N,GND*%
G36*
X120548181Y-79554628D02*
G01*
X120581666Y-79615951D01*
X120584500Y-79642309D01*
X120584500Y-80204531D01*
X120564815Y-80271570D01*
X120512011Y-80317325D01*
X120442853Y-80327269D01*
X120379297Y-80298244D01*
X120372819Y-80292212D01*
X120292363Y-80211756D01*
X120292358Y-80211752D01*
X120152319Y-80110008D01*
X120109653Y-80054678D01*
X120103674Y-79985065D01*
X120136279Y-79923270D01*
X120152319Y-79909372D01*
X120177513Y-79891066D01*
X120177514Y-79891066D01*
X119509409Y-79222962D01*
X119572993Y-79205925D01*
X119687007Y-79140099D01*
X119780099Y-79047007D01*
X119845925Y-78932993D01*
X119862962Y-78869408D01*
X120548181Y-79554628D01*
G37*
%TD.AperFunction*%
%TA.AperFunction,Conductor*%
G36*
X170003736Y-72000726D02*
G01*
X170293796Y-72018271D01*
X170308659Y-72020076D01*
X170590797Y-72071780D01*
X170605334Y-72075363D01*
X170879182Y-72160698D01*
X170893163Y-72166000D01*
X171154734Y-72283724D01*
X171167987Y-72290680D01*
X171413458Y-72439071D01*
X171425776Y-72447573D01*
X171651573Y-72624474D01*
X171662781Y-72634404D01*
X171865595Y-72837218D01*
X171875525Y-72848426D01*
X171990295Y-72994919D01*
X172052422Y-73074217D01*
X172060928Y-73086541D01*
X172209319Y-73332012D01*
X172216277Y-73345269D01*
X172259399Y-73441082D01*
X172324657Y-73586079D01*
X172333994Y-73606823D01*
X172339304Y-73620825D01*
X172424635Y-73894664D01*
X172428219Y-73909202D01*
X172479923Y-74191340D01*
X172481728Y-74206205D01*
X172499274Y-74496263D01*
X172499500Y-74503750D01*
X172499500Y-98496249D01*
X172499274Y-98503736D01*
X172481728Y-98793794D01*
X172479923Y-98808659D01*
X172428219Y-99090797D01*
X172424635Y-99105335D01*
X172339304Y-99379174D01*
X172333994Y-99393176D01*
X172216277Y-99654730D01*
X172209319Y-99667987D01*
X172060928Y-99913458D01*
X172052422Y-99925782D01*
X171875525Y-100151573D01*
X171865595Y-100162781D01*
X171662781Y-100365595D01*
X171651573Y-100375525D01*
X171425782Y-100552422D01*
X171413458Y-100560928D01*
X171167987Y-100709319D01*
X171154730Y-100716277D01*
X170893176Y-100833994D01*
X170879174Y-100839304D01*
X170605335Y-100924635D01*
X170590797Y-100928219D01*
X170308659Y-100979923D01*
X170293794Y-100981728D01*
X170003736Y-100999274D01*
X169996249Y-100999500D01*
X56003751Y-100999500D01*
X55996264Y-100999274D01*
X55706205Y-100981728D01*
X55691340Y-100979923D01*
X55409202Y-100928219D01*
X55394664Y-100924635D01*
X55120825Y-100839304D01*
X55106827Y-100833995D01*
X54954096Y-100765256D01*
X54845269Y-100716277D01*
X54832012Y-100709319D01*
X54586541Y-100560928D01*
X54574217Y-100552422D01*
X54348426Y-100375525D01*
X54337218Y-100365595D01*
X54134404Y-100162781D01*
X54124474Y-100151573D01*
X53947573Y-99925776D01*
X53939071Y-99913458D01*
X53790680Y-99667987D01*
X53783722Y-99654730D01*
X53770567Y-99625501D01*
X53666000Y-99393163D01*
X53660698Y-99379182D01*
X53575363Y-99105334D01*
X53571780Y-99090797D01*
X53555141Y-99000000D01*
X65000000Y-99000000D01*
X87500000Y-99000000D01*
X87500000Y-76089778D01*
X90039500Y-76089778D01*
X90039500Y-76310222D01*
X90045985Y-76351169D01*
X90073985Y-76527952D01*
X90142103Y-76737603D01*
X90142104Y-76737606D01*
X90242187Y-76934025D01*
X90371752Y-77112358D01*
X90371756Y-77112363D01*
X90527636Y-77268243D01*
X90527641Y-77268247D01*
X90667254Y-77369682D01*
X90709920Y-77425012D01*
X90715899Y-77494625D01*
X90683293Y-77556420D01*
X90667254Y-77570318D01*
X90527641Y-77671752D01*
X90527636Y-77671756D01*
X90371756Y-77827636D01*
X90371752Y-77827641D01*
X90242187Y-78005974D01*
X90142104Y-78202393D01*
X90142103Y-78202396D01*
X90073985Y-78412047D01*
X90039500Y-78629778D01*
X90039500Y-78850221D01*
X90073985Y-79067952D01*
X90142103Y-79277603D01*
X90142104Y-79277606D01*
X90210122Y-79411096D01*
X90242049Y-79473756D01*
X90242187Y-79474025D01*
X90371752Y-79652358D01*
X90371756Y-79652363D01*
X90527640Y-79808247D01*
X90667679Y-79909990D01*
X90710345Y-79965319D01*
X90716324Y-80034933D01*
X90683719Y-80096728D01*
X90667679Y-80110626D01*
X90642485Y-80128930D01*
X90642485Y-80128932D01*
X91310590Y-80797037D01*
X91247007Y-80814075D01*
X91132993Y-80879901D01*
X91039901Y-80972993D01*
X90974075Y-81087007D01*
X90957037Y-81150590D01*
X90288932Y-80482485D01*
X90288931Y-80482485D01*
X90242616Y-80546233D01*
X90142567Y-80742589D01*
X90074473Y-80952164D01*
X90040000Y-81169818D01*
X90040000Y-81390181D01*
X90074473Y-81607835D01*
X90142567Y-81817410D01*
X90242611Y-82013756D01*
X90288932Y-82077513D01*
X90957037Y-81409408D01*
X90974075Y-81472993D01*
X91039901Y-81587007D01*
X91132993Y-81680099D01*
X91247007Y-81745925D01*
X91310590Y-81762962D01*
X90642485Y-82431065D01*
X90642485Y-82431066D01*
X90667680Y-82449371D01*
X90710346Y-82504701D01*
X90716325Y-82574314D01*
X90683720Y-82636110D01*
X90667681Y-82650008D01*
X90527636Y-82751756D01*
X90371756Y-82907636D01*
X90371752Y-82907641D01*
X90242187Y-83085974D01*
X90142104Y-83282393D01*
X90142103Y-83282396D01*
X90073985Y-83492047D01*
X90056824Y-83600401D01*
X90039500Y-83709778D01*
X90039500Y-83930222D01*
X90041746Y-83944403D01*
X90073985Y-84147952D01*
X90142103Y-84357603D01*
X90142104Y-84357606D01*
X90242187Y-84554025D01*
X90371752Y-84732358D01*
X90371756Y-84732363D01*
X90527636Y-84888243D01*
X90527641Y-84888247D01*
X90667254Y-84989682D01*
X90709920Y-85045012D01*
X90715899Y-85114625D01*
X90683293Y-85176420D01*
X90667254Y-85190318D01*
X90527641Y-85291752D01*
X90527636Y-85291756D01*
X90371756Y-85447636D01*
X90371752Y-85447641D01*
X90242187Y-85625974D01*
X90142104Y-85822393D01*
X90142103Y-85822396D01*
X90073985Y-86032047D01*
X90039500Y-86249778D01*
X90039500Y-86470221D01*
X90073985Y-86687952D01*
X90142103Y-86897603D01*
X90142104Y-86897606D01*
X90192161Y-86995845D01*
X90242173Y-87093999D01*
X90242187Y-87094025D01*
X90371752Y-87272358D01*
X90371756Y-87272363D01*
X90527636Y-87428243D01*
X90527641Y-87428247D01*
X90667254Y-87529682D01*
X90709920Y-87585012D01*
X90715899Y-87654625D01*
X90683293Y-87716420D01*
X90667254Y-87730318D01*
X90527641Y-87831752D01*
X90527636Y-87831756D01*
X90371756Y-87987636D01*
X90371752Y-87987641D01*
X90242187Y-88165974D01*
X90142104Y-88362393D01*
X90142103Y-88362396D01*
X90073985Y-88572047D01*
X90039500Y-88789778D01*
X90039500Y-89010221D01*
X90073985Y-89227952D01*
X90142103Y-89437603D01*
X90142104Y-89437606D01*
X90242187Y-89634025D01*
X90371752Y-89812358D01*
X90371756Y-89812363D01*
X90527636Y-89968243D01*
X90527641Y-89968247D01*
X90667254Y-90069682D01*
X90709920Y-90125012D01*
X90715899Y-90194625D01*
X90683293Y-90256420D01*
X90667254Y-90270318D01*
X90527641Y-90371752D01*
X90527636Y-90371756D01*
X90371756Y-90527636D01*
X90371752Y-90527641D01*
X90242187Y-90705974D01*
X90142104Y-90902393D01*
X90142103Y-90902396D01*
X90073985Y-91112047D01*
X90039500Y-91329778D01*
X90039500Y-91550221D01*
X90073985Y-91767952D01*
X90142103Y-91977603D01*
X90142104Y-91977606D01*
X90242187Y-92174025D01*
X90371752Y-92352358D01*
X90371756Y-92352363D01*
X90527636Y-92508243D01*
X90527641Y-92508247D01*
X90667254Y-92609682D01*
X90709920Y-92665012D01*
X90715899Y-92734625D01*
X90683293Y-92796420D01*
X90667254Y-92810318D01*
X90527641Y-92911752D01*
X90527636Y-92911756D01*
X90371756Y-93067636D01*
X90371752Y-93067641D01*
X90242187Y-93245974D01*
X90142104Y-93442393D01*
X90142103Y-93442396D01*
X90073985Y-93652047D01*
X90039500Y-93869778D01*
X90039500Y-94090221D01*
X90073985Y-94307952D01*
X90142103Y-94517603D01*
X90142104Y-94517606D01*
X90210122Y-94651096D01*
X90225475Y-94681228D01*
X90242187Y-94714025D01*
X90371752Y-94892358D01*
X90371756Y-94892363D01*
X90421928Y-94942535D01*
X90455413Y-95003858D01*
X90450429Y-95073550D01*
X90408557Y-95129483D01*
X90377581Y-95146398D01*
X90297669Y-95176203D01*
X90297664Y-95176206D01*
X90182455Y-95262452D01*
X90182452Y-95262455D01*
X90096206Y-95377664D01*
X90096202Y-95377671D01*
X90045908Y-95512517D01*
X90041091Y-95557325D01*
X90039501Y-95572123D01*
X90039500Y-95572135D01*
X90039500Y-97467870D01*
X90039501Y-97467876D01*
X90045908Y-97527483D01*
X90096202Y-97662328D01*
X90096206Y-97662335D01*
X90182452Y-97777544D01*
X90182455Y-97777547D01*
X90297664Y-97863793D01*
X90297671Y-97863797D01*
X90432517Y-97914091D01*
X90432516Y-97914091D01*
X90439444Y-97914835D01*
X90492127Y-97920500D01*
X92387872Y-97920499D01*
X92447483Y-97914091D01*
X92582331Y-97863796D01*
X92697546Y-97777546D01*
X92783796Y-97662331D01*
X92834091Y-97527483D01*
X92840500Y-97467873D01*
X92840499Y-95572128D01*
X92834091Y-95512517D01*
X92828399Y-95497257D01*
X92783797Y-95377671D01*
X92783793Y-95377664D01*
X92697547Y-95262455D01*
X92697544Y-95262452D01*
X92582335Y-95176206D01*
X92582328Y-95176202D01*
X92502419Y-95146398D01*
X92446485Y-95104527D01*
X92422068Y-95039062D01*
X92436920Y-94970789D01*
X92458069Y-94942537D01*
X92508242Y-94892365D01*
X92637815Y-94714022D01*
X92737895Y-94517606D01*
X92806015Y-94307951D01*
X92834994Y-94124983D01*
X96899500Y-94124983D01*
X96899500Y-95475001D01*
X96899501Y-95475018D01*
X96910000Y-95577796D01*
X96910001Y-95577799D01*
X96965185Y-95744331D01*
X96965186Y-95744334D01*
X97057288Y-95893656D01*
X97181344Y-96017712D01*
X97330666Y-96109814D01*
X97497203Y-96164999D01*
X97599991Y-96175500D01*
X98333480Y-96175499D01*
X98400519Y-96195183D01*
X98421161Y-96211818D01*
X101073453Y-98864111D01*
X101073454Y-98864112D01*
X101188192Y-98940777D01*
X101315667Y-98993578D01*
X101315672Y-98993580D01*
X101315676Y-98993580D01*
X101315677Y-98993581D01*
X101451003Y-99020500D01*
X101451006Y-99020500D01*
X101451007Y-99020500D01*
X107533331Y-99020500D01*
X107600370Y-99040185D01*
X107646125Y-99092989D01*
X107656069Y-99162147D01*
X107654948Y-99168692D01*
X107649500Y-99196079D01*
X107649500Y-99196082D01*
X107649500Y-99343918D01*
X107649500Y-99343920D01*
X107649499Y-99343920D01*
X107678340Y-99488907D01*
X107678343Y-99488917D01*
X107734912Y-99625488D01*
X107734919Y-99625501D01*
X107817048Y-99748415D01*
X107817051Y-99748419D01*
X107921580Y-99852948D01*
X107921584Y-99852951D01*
X108044498Y-99935080D01*
X108044511Y-99935087D01*
X108181082Y-99991656D01*
X108181087Y-99991658D01*
X108181091Y-99991658D01*
X108181092Y-99991659D01*
X108326079Y-100020500D01*
X108326082Y-100020500D01*
X108473920Y-100020500D01*
X108584708Y-99998462D01*
X108618913Y-99991658D01*
X108755495Y-99935084D01*
X108878416Y-99852951D01*
X108982951Y-99748416D01*
X109065084Y-99625495D01*
X109121658Y-99488913D01*
X109143487Y-99379174D01*
X109150500Y-99343920D01*
X109150500Y-99196079D01*
X109145052Y-99168692D01*
X109151279Y-99099101D01*
X109194141Y-99043923D01*
X109260031Y-99020678D01*
X109266669Y-99020500D01*
X110068996Y-99020500D01*
X110177412Y-98998934D01*
X110204328Y-98993580D01*
X110268069Y-98967177D01*
X110331807Y-98940777D01*
X110331808Y-98940776D01*
X110331811Y-98940775D01*
X110446543Y-98864114D01*
X111009077Y-98301578D01*
X111070398Y-98268095D01*
X111110011Y-98265972D01*
X111113788Y-98266378D01*
X111152127Y-98270500D01*
X112447872Y-98270499D01*
X112507483Y-98264091D01*
X112642331Y-98213796D01*
X112757546Y-98127546D01*
X112843796Y-98012331D01*
X112894091Y-97877483D01*
X112900500Y-97817873D01*
X112900499Y-95222128D01*
X112894091Y-95162517D01*
X112893738Y-95161571D01*
X112843797Y-95027671D01*
X112843793Y-95027664D01*
X112757547Y-94912455D01*
X112757543Y-94912452D01*
X112745939Y-94903765D01*
X112704070Y-94847832D01*
X112699086Y-94778140D01*
X112732572Y-94716818D01*
X112793895Y-94683333D01*
X112820252Y-94680500D01*
X113279748Y-94680500D01*
X113346787Y-94700185D01*
X113392542Y-94752989D01*
X113402486Y-94822147D01*
X113373461Y-94885703D01*
X113354060Y-94903766D01*
X113342452Y-94912455D01*
X113256206Y-95027664D01*
X113256202Y-95027671D01*
X113205908Y-95162517D01*
X113199501Y-95222116D01*
X113199501Y-95222123D01*
X113199500Y-95222135D01*
X113199500Y-97817870D01*
X113199501Y-97817876D01*
X113205908Y-97877483D01*
X113256202Y-98012328D01*
X113256206Y-98012335D01*
X113342452Y-98127544D01*
X113342455Y-98127547D01*
X113457664Y-98213793D01*
X113457671Y-98213797D01*
X113592517Y-98264091D01*
X113592516Y-98264091D01*
X113599444Y-98264835D01*
X113652127Y-98270500D01*
X114947872Y-98270499D01*
X114989989Y-98265971D01*
X114992246Y-98266378D01*
X114994396Y-98265577D01*
X115026448Y-98272549D01*
X115058746Y-98278377D01*
X115061126Y-98280093D01*
X115062669Y-98280429D01*
X115090923Y-98301580D01*
X115114481Y-98325138D01*
X115147966Y-98386461D01*
X115142982Y-98456153D01*
X115101110Y-98512086D01*
X115050992Y-98534436D01*
X114981092Y-98548340D01*
X114981082Y-98548343D01*
X114844511Y-98604912D01*
X114844498Y-98604919D01*
X114721584Y-98687048D01*
X114721580Y-98687051D01*
X114617051Y-98791580D01*
X114617048Y-98791584D01*
X114534919Y-98914498D01*
X114534912Y-98914511D01*
X114478343Y-99051082D01*
X114478340Y-99051092D01*
X114449500Y-99196079D01*
X114449500Y-99196082D01*
X114449500Y-99343918D01*
X114449500Y-99343920D01*
X114449499Y-99343920D01*
X114478340Y-99488907D01*
X114478343Y-99488917D01*
X114534912Y-99625488D01*
X114534919Y-99625501D01*
X114617048Y-99748415D01*
X114617051Y-99748419D01*
X114721580Y-99852948D01*
X114721584Y-99852951D01*
X114844498Y-99935080D01*
X114844511Y-99935087D01*
X114981082Y-99991656D01*
X114981087Y-99991658D01*
X114981091Y-99991658D01*
X114981092Y-99991659D01*
X115126079Y-100020500D01*
X115126082Y-100020500D01*
X115273920Y-100020500D01*
X115384708Y-99998462D01*
X115418913Y-99991658D01*
X115555495Y-99935084D01*
X115678416Y-99852951D01*
X115782951Y-99748416D01*
X115865084Y-99625495D01*
X115921658Y-99488913D01*
X115943487Y-99379174D01*
X115950500Y-99343920D01*
X115950500Y-99196079D01*
X115945052Y-99168692D01*
X115951279Y-99099101D01*
X115994141Y-99043923D01*
X116060031Y-99020678D01*
X116066669Y-99020500D01*
X120188996Y-99020500D01*
X120297412Y-98998934D01*
X120324328Y-98993580D01*
X120388069Y-98967177D01*
X120451807Y-98940777D01*
X120451808Y-98940776D01*
X120451811Y-98940775D01*
X120566543Y-98864114D01*
X121144338Y-98286319D01*
X121205661Y-98252834D01*
X121232019Y-98250000D01*
X130810000Y-98250000D01*
X130810000Y-92250000D01*
X122109500Y-92250000D01*
X122042461Y-92230315D01*
X121996706Y-92177511D01*
X121985500Y-92126000D01*
X121985500Y-78036004D01*
X121958581Y-77900677D01*
X121958580Y-77900676D01*
X121958580Y-77900672D01*
X121905775Y-77773189D01*
X121883265Y-77739500D01*
X121829114Y-77658457D01*
X121829112Y-77658454D01*
X120816818Y-76646160D01*
X120783333Y-76584837D01*
X120780499Y-76558479D01*
X120780499Y-75584500D01*
X120800184Y-75517461D01*
X120852988Y-75471706D01*
X120904499Y-75460500D01*
X127758481Y-75460500D01*
X127825520Y-75480185D01*
X127846162Y-75496819D01*
X133215791Y-80866447D01*
X133249276Y-80927770D01*
X133250583Y-80973526D01*
X133219500Y-81169778D01*
X133219500Y-81390221D01*
X133253985Y-81607952D01*
X133322103Y-81817603D01*
X133322104Y-81817606D01*
X133390122Y-81951096D01*
X133422049Y-82013756D01*
X133422187Y-82014025D01*
X133551752Y-82192358D01*
X133551756Y-82192363D01*
X133707636Y-82348243D01*
X133707641Y-82348247D01*
X133847254Y-82449682D01*
X133889920Y-82505012D01*
X133895899Y-82574625D01*
X133863293Y-82636420D01*
X133847254Y-82650318D01*
X133707641Y-82751752D01*
X133707636Y-82751756D01*
X133551756Y-82907636D01*
X133551752Y-82907641D01*
X133422187Y-83085974D01*
X133322104Y-83282393D01*
X133322103Y-83282396D01*
X133253985Y-83492047D01*
X133236824Y-83600401D01*
X133219500Y-83709778D01*
X133219500Y-83930222D01*
X133221746Y-83944403D01*
X133253985Y-84147952D01*
X133322103Y-84357603D01*
X133322104Y-84357606D01*
X133422187Y-84554025D01*
X133551752Y-84732358D01*
X133551756Y-84732363D01*
X133707636Y-84888243D01*
X133707641Y-84888247D01*
X133847254Y-84989682D01*
X133889920Y-85045012D01*
X133895899Y-85114625D01*
X133863293Y-85176420D01*
X133847254Y-85190318D01*
X133707641Y-85291752D01*
X133707636Y-85291756D01*
X133551756Y-85447636D01*
X133551752Y-85447641D01*
X133422187Y-85625974D01*
X133322104Y-85822393D01*
X133322103Y-85822396D01*
X133253985Y-86032047D01*
X133219500Y-86249778D01*
X133219500Y-86470221D01*
X133253985Y-86687952D01*
X133322103Y-86897603D01*
X133322104Y-86897606D01*
X133372161Y-86995845D01*
X133422173Y-87093999D01*
X133422187Y-87094025D01*
X133551752Y-87272358D01*
X133551756Y-87272363D01*
X133707636Y-87428243D01*
X133707641Y-87428247D01*
X133847254Y-87529682D01*
X133889920Y-87585012D01*
X133895899Y-87654625D01*
X133863293Y-87716420D01*
X133847254Y-87730318D01*
X133707641Y-87831752D01*
X133707636Y-87831756D01*
X133551756Y-87987636D01*
X133551752Y-87987641D01*
X133422187Y-88165974D01*
X133322104Y-88362393D01*
X133322103Y-88362396D01*
X133253985Y-88572047D01*
X133219500Y-88789778D01*
X133219500Y-89010221D01*
X133253985Y-89227952D01*
X133322103Y-89437603D01*
X133322104Y-89437606D01*
X133422187Y-89634025D01*
X133551752Y-89812358D01*
X133551756Y-89812363D01*
X133707636Y-89968243D01*
X133707641Y-89968247D01*
X133847254Y-90069682D01*
X133889920Y-90125012D01*
X133895899Y-90194625D01*
X133863293Y-90256420D01*
X133847254Y-90270318D01*
X133707641Y-90371752D01*
X133707636Y-90371756D01*
X133551756Y-90527636D01*
X133551752Y-90527641D01*
X133422187Y-90705974D01*
X133322104Y-90902393D01*
X133322103Y-90902396D01*
X133253985Y-91112047D01*
X133219500Y-91329778D01*
X133219500Y-91550221D01*
X133253985Y-91767952D01*
X133322103Y-91977603D01*
X133322104Y-91977606D01*
X133422187Y-92174025D01*
X133551752Y-92352358D01*
X133551756Y-92352363D01*
X133707636Y-92508243D01*
X133707641Y-92508247D01*
X133847254Y-92609682D01*
X133889920Y-92665012D01*
X133895899Y-92734625D01*
X133863293Y-92796420D01*
X133847254Y-92810318D01*
X133707641Y-92911752D01*
X133707636Y-92911756D01*
X133551756Y-93067636D01*
X133551752Y-93067641D01*
X133422187Y-93245974D01*
X133322104Y-93442393D01*
X133322103Y-93442396D01*
X133253985Y-93652047D01*
X133219500Y-93869778D01*
X133219500Y-94090221D01*
X133253985Y-94307952D01*
X133322103Y-94517603D01*
X133322104Y-94517606D01*
X133390122Y-94651096D01*
X133405475Y-94681228D01*
X133422187Y-94714025D01*
X133551752Y-94892358D01*
X133551756Y-94892363D01*
X133707636Y-95048243D01*
X133707641Y-95048247D01*
X133847254Y-95149682D01*
X133889920Y-95205012D01*
X133895899Y-95274625D01*
X133863293Y-95336420D01*
X133847254Y-95350318D01*
X133707641Y-95451752D01*
X133707636Y-95451756D01*
X133551756Y-95607636D01*
X133551752Y-95607641D01*
X133422187Y-95785974D01*
X133322104Y-95982393D01*
X133322103Y-95982396D01*
X133253985Y-96192047D01*
X133250854Y-96211818D01*
X133219500Y-96409778D01*
X133219500Y-96630222D01*
X133221923Y-96645519D01*
X133253985Y-96847952D01*
X133322103Y-97057603D01*
X133322104Y-97057606D01*
X133422187Y-97254025D01*
X133551752Y-97432358D01*
X133551756Y-97432363D01*
X133707636Y-97588243D01*
X133707641Y-97588247D01*
X133735234Y-97608294D01*
X133885978Y-97717815D01*
X134014375Y-97783237D01*
X134082393Y-97817895D01*
X134082396Y-97817896D01*
X134187221Y-97851955D01*
X134292049Y-97886015D01*
X134509778Y-97920500D01*
X134509779Y-97920500D01*
X134730221Y-97920500D01*
X134730222Y-97920500D01*
X134947951Y-97886015D01*
X135157606Y-97817895D01*
X135354022Y-97717815D01*
X135532365Y-97588242D01*
X135688242Y-97432365D01*
X135817815Y-97254022D01*
X135917895Y-97057606D01*
X135986015Y-96847951D01*
X136020500Y-96630222D01*
X136020500Y-96409778D01*
X135986015Y-96192049D01*
X135948341Y-96076098D01*
X135917896Y-95982396D01*
X135917895Y-95982393D01*
X135872680Y-95893656D01*
X135817815Y-95785978D01*
X135801260Y-95763192D01*
X135688247Y-95607641D01*
X135688243Y-95607636D01*
X135532363Y-95451756D01*
X135532358Y-95451752D01*
X135392745Y-95350318D01*
X135350079Y-95294989D01*
X135344100Y-95225375D01*
X135376705Y-95163580D01*
X135392745Y-95149682D01*
X135532358Y-95048247D01*
X135532356Y-95048247D01*
X135532365Y-95048242D01*
X135688242Y-94892365D01*
X135817815Y-94714022D01*
X135917895Y-94517606D01*
X135986015Y-94307951D01*
X136020500Y-94090222D01*
X136020500Y-93869778D01*
X135986015Y-93652049D01*
X135933424Y-93490187D01*
X135917896Y-93442396D01*
X135917895Y-93442393D01*
X135834895Y-93279500D01*
X135817815Y-93245978D01*
X135773996Y-93185666D01*
X135688247Y-93067641D01*
X135688243Y-93067636D01*
X135532363Y-92911756D01*
X135532358Y-92911752D01*
X135392745Y-92810318D01*
X135350079Y-92754989D01*
X135344100Y-92685375D01*
X135376705Y-92623580D01*
X135392745Y-92609682D01*
X135532358Y-92508247D01*
X135532356Y-92508247D01*
X135532365Y-92508242D01*
X135688242Y-92352365D01*
X135817815Y-92174022D01*
X135917895Y-91977606D01*
X135986015Y-91767951D01*
X136020500Y-91550222D01*
X136020500Y-91329778D01*
X135986015Y-91112049D01*
X135931736Y-90944992D01*
X135917896Y-90902396D01*
X135917895Y-90902393D01*
X135883237Y-90834375D01*
X135817815Y-90705978D01*
X135795790Y-90675663D01*
X135688247Y-90527641D01*
X135688243Y-90527636D01*
X135532363Y-90371756D01*
X135532358Y-90371752D01*
X135392745Y-90270318D01*
X135350079Y-90214989D01*
X135344100Y-90145375D01*
X135376705Y-90083580D01*
X135392745Y-90069682D01*
X135532358Y-89968247D01*
X135532356Y-89968247D01*
X135532365Y-89968242D01*
X135688242Y-89812365D01*
X135817815Y-89634022D01*
X135917895Y-89437606D01*
X135986015Y-89227951D01*
X136020500Y-89010222D01*
X136020500Y-88789778D01*
X135986015Y-88572049D01*
X135917895Y-88362394D01*
X135917895Y-88362393D01*
X135883237Y-88294375D01*
X135817815Y-88165978D01*
X135801260Y-88143192D01*
X135688247Y-87987641D01*
X135688243Y-87987636D01*
X135532363Y-87831756D01*
X135532358Y-87831752D01*
X135392745Y-87730318D01*
X135350079Y-87674989D01*
X135344100Y-87605375D01*
X135376705Y-87543580D01*
X135392745Y-87529682D01*
X135532358Y-87428247D01*
X135532356Y-87428247D01*
X135532365Y-87428242D01*
X135688242Y-87272365D01*
X135817815Y-87094022D01*
X135917895Y-86897606D01*
X135986015Y-86687951D01*
X136020500Y-86470222D01*
X136020500Y-86249778D01*
X135986015Y-86032049D01*
X135917895Y-85822394D01*
X135917895Y-85822393D01*
X135855434Y-85699809D01*
X135817815Y-85625978D01*
X135750539Y-85533380D01*
X135688247Y-85447641D01*
X135688243Y-85447636D01*
X135532363Y-85291756D01*
X135532358Y-85291752D01*
X135392745Y-85190318D01*
X135350079Y-85134989D01*
X135344100Y-85065375D01*
X135376705Y-85003580D01*
X135392745Y-84989682D01*
X135532358Y-84888247D01*
X135532356Y-84888247D01*
X135532365Y-84888242D01*
X135688242Y-84732365D01*
X135817815Y-84554022D01*
X135917895Y-84357606D01*
X135986015Y-84147951D01*
X136020500Y-83930222D01*
X136020500Y-83709778D01*
X135986015Y-83492049D01*
X135917895Y-83282394D01*
X135917895Y-83282393D01*
X135883237Y-83214375D01*
X135817815Y-83085978D01*
X135801260Y-83063192D01*
X135688247Y-82907641D01*
X135688243Y-82907636D01*
X135532363Y-82751756D01*
X135532358Y-82751752D01*
X135392745Y-82650318D01*
X135350079Y-82594989D01*
X135344100Y-82525375D01*
X135376705Y-82463580D01*
X135392745Y-82449682D01*
X135532358Y-82348247D01*
X135532356Y-82348247D01*
X135532365Y-82348242D01*
X135688242Y-82192365D01*
X135817815Y-82014022D01*
X135917895Y-81817606D01*
X135986015Y-81607951D01*
X136020500Y-81390222D01*
X136020500Y-81169778D01*
X135986015Y-80952049D01*
X135941185Y-80814075D01*
X135917896Y-80742396D01*
X135917895Y-80742393D01*
X135883237Y-80674375D01*
X135817815Y-80545978D01*
X135771685Y-80482485D01*
X135688247Y-80367641D01*
X135688243Y-80367636D01*
X135532363Y-80211756D01*
X135532358Y-80211752D01*
X135392745Y-80110318D01*
X135350079Y-80054989D01*
X135344100Y-79985375D01*
X135376705Y-79923580D01*
X135392745Y-79909682D01*
X135532358Y-79808247D01*
X135532356Y-79808247D01*
X135532365Y-79808242D01*
X135688242Y-79652365D01*
X135817815Y-79474022D01*
X135917895Y-79277606D01*
X135986015Y-79067951D01*
X136020500Y-78850222D01*
X136020500Y-78629778D01*
X135986015Y-78412049D01*
X135930348Y-78240721D01*
X135917896Y-78202396D01*
X135917895Y-78202393D01*
X135881006Y-78129996D01*
X135817815Y-78005978D01*
X135767919Y-77937302D01*
X135688247Y-77827641D01*
X135688243Y-77827636D01*
X135532363Y-77671756D01*
X135532358Y-77671752D01*
X135392745Y-77570318D01*
X135350079Y-77514989D01*
X135344100Y-77445375D01*
X135376705Y-77383580D01*
X135392745Y-77369682D01*
X135532358Y-77268247D01*
X135532356Y-77268247D01*
X135532365Y-77268242D01*
X135688242Y-77112365D01*
X135817815Y-76934022D01*
X135917895Y-76737606D01*
X135986015Y-76527951D01*
X136020500Y-76310222D01*
X136020500Y-76089778D01*
X135986015Y-75872049D01*
X135948341Y-75756098D01*
X135917896Y-75662396D01*
X135917895Y-75662393D01*
X135844047Y-75517461D01*
X135817815Y-75465978D01*
X135803956Y-75446902D01*
X135712986Y-75321691D01*
X135688247Y-75287641D01*
X135688243Y-75287636D01*
X135652742Y-75252135D01*
X138299500Y-75252135D01*
X138299500Y-77147870D01*
X138299501Y-77147876D01*
X138305908Y-77207483D01*
X138356202Y-77342328D01*
X138356206Y-77342335D01*
X138442452Y-77457544D01*
X138442455Y-77457547D01*
X138557664Y-77543793D01*
X138557671Y-77543797D01*
X138591516Y-77556420D01*
X138692517Y-77594091D01*
X138752127Y-77600500D01*
X138862693Y-77600499D01*
X138929730Y-77620183D01*
X138950372Y-77636818D01*
X139570591Y-78257037D01*
X139507007Y-78274075D01*
X139392993Y-78339901D01*
X139299901Y-78432993D01*
X139234075Y-78547007D01*
X139217037Y-78610590D01*
X138548932Y-77942485D01*
X138548931Y-77942485D01*
X138502616Y-78006233D01*
X138402567Y-78202589D01*
X138334473Y-78412164D01*
X138300000Y-78629818D01*
X138300000Y-78850181D01*
X138334473Y-79067835D01*
X138402567Y-79277410D01*
X138502611Y-79473756D01*
X138548932Y-79537513D01*
X139217037Y-78869408D01*
X139234075Y-78932993D01*
X139299901Y-79047007D01*
X139392993Y-79140099D01*
X139507007Y-79205925D01*
X139570590Y-79222962D01*
X138902485Y-79891065D01*
X138902485Y-79891066D01*
X138927680Y-79909371D01*
X138970346Y-79964701D01*
X138976325Y-80034314D01*
X138943720Y-80096110D01*
X138927681Y-80110008D01*
X138787636Y-80211756D01*
X138631756Y-80367636D01*
X138631752Y-80367641D01*
X138502187Y-80545974D01*
X138402104Y-80742393D01*
X138402103Y-80742396D01*
X138333985Y-80952047D01*
X138299500Y-81169778D01*
X138299500Y-81390221D01*
X138333985Y-81607952D01*
X138402103Y-81817603D01*
X138402104Y-81817606D01*
X138470122Y-81951096D01*
X138502049Y-82013756D01*
X138502187Y-82014025D01*
X138631752Y-82192358D01*
X138631756Y-82192363D01*
X138787636Y-82348243D01*
X138787641Y-82348247D01*
X138927254Y-82449682D01*
X138969920Y-82505012D01*
X138975899Y-82574625D01*
X138943293Y-82636420D01*
X138927254Y-82650318D01*
X138787641Y-82751752D01*
X138787636Y-82751756D01*
X138631756Y-82907636D01*
X138631752Y-82907641D01*
X138502187Y-83085974D01*
X138402104Y-83282393D01*
X138402103Y-83282396D01*
X138333985Y-83492047D01*
X138316824Y-83600401D01*
X138299500Y-83709778D01*
X138299500Y-83930222D01*
X138301746Y-83944403D01*
X138333985Y-84147952D01*
X138402103Y-84357603D01*
X138402104Y-84357606D01*
X138502187Y-84554025D01*
X138631752Y-84732358D01*
X138631756Y-84732363D01*
X138787636Y-84888243D01*
X138787641Y-84888247D01*
X138927254Y-84989682D01*
X138969920Y-85045012D01*
X138975899Y-85114625D01*
X138943293Y-85176420D01*
X138927254Y-85190318D01*
X138787641Y-85291752D01*
X138787636Y-85291756D01*
X138631756Y-85447636D01*
X138631752Y-85447641D01*
X138502187Y-85625974D01*
X138402104Y-85822393D01*
X138402103Y-85822396D01*
X138333985Y-86032047D01*
X138299500Y-86249778D01*
X138299500Y-86470221D01*
X138333985Y-86687952D01*
X138402103Y-86897603D01*
X138402104Y-86897606D01*
X138452161Y-86995845D01*
X138502173Y-87093999D01*
X138502187Y-87094025D01*
X138631752Y-87272358D01*
X138631756Y-87272363D01*
X138787636Y-87428243D01*
X138787641Y-87428247D01*
X138927254Y-87529682D01*
X138969920Y-87585012D01*
X138975899Y-87654625D01*
X138943293Y-87716420D01*
X138927254Y-87730318D01*
X138787641Y-87831752D01*
X138787636Y-87831756D01*
X138631756Y-87987636D01*
X138631752Y-87987641D01*
X138502187Y-88165974D01*
X138402104Y-88362393D01*
X138402103Y-88362396D01*
X138333985Y-88572047D01*
X138299500Y-88789778D01*
X138299500Y-89010221D01*
X138333985Y-89227952D01*
X138402103Y-89437603D01*
X138402104Y-89437606D01*
X138502187Y-89634025D01*
X138631752Y-89812358D01*
X138631756Y-89812363D01*
X138787636Y-89968243D01*
X138787641Y-89968247D01*
X138927254Y-90069682D01*
X138969920Y-90125012D01*
X138975899Y-90194625D01*
X138943293Y-90256420D01*
X138927254Y-90270318D01*
X138787641Y-90371752D01*
X138787636Y-90371756D01*
X138631756Y-90527636D01*
X138631752Y-90527641D01*
X138502187Y-90705974D01*
X138402104Y-90902393D01*
X138402103Y-90902396D01*
X138333985Y-91112047D01*
X138299500Y-91329778D01*
X138299500Y-91550221D01*
X138333985Y-91767952D01*
X138402103Y-91977603D01*
X138402104Y-91977606D01*
X138502187Y-92174025D01*
X138631752Y-92352358D01*
X138631756Y-92352363D01*
X138787636Y-92508243D01*
X138787641Y-92508247D01*
X138927254Y-92609682D01*
X138969920Y-92665012D01*
X138975899Y-92734625D01*
X138943293Y-92796420D01*
X138927254Y-92810318D01*
X138787641Y-92911752D01*
X138787636Y-92911756D01*
X138631756Y-93067636D01*
X138631752Y-93067641D01*
X138502187Y-93245974D01*
X138402104Y-93442393D01*
X138402103Y-93442396D01*
X138333985Y-93652047D01*
X138299500Y-93869778D01*
X138299500Y-94090221D01*
X138333985Y-94307952D01*
X138402103Y-94517603D01*
X138402104Y-94517606D01*
X138470122Y-94651096D01*
X138485475Y-94681228D01*
X138502187Y-94714025D01*
X138631752Y-94892358D01*
X138631756Y-94892363D01*
X138787636Y-95048243D01*
X138787641Y-95048247D01*
X138927254Y-95149682D01*
X138969920Y-95205012D01*
X138975899Y-95274625D01*
X138943293Y-95336420D01*
X138927254Y-95350318D01*
X138787641Y-95451752D01*
X138787636Y-95451756D01*
X138631756Y-95607636D01*
X138631752Y-95607641D01*
X138502187Y-95785974D01*
X138402104Y-95982393D01*
X138402103Y-95982396D01*
X138333985Y-96192047D01*
X138330854Y-96211818D01*
X138299500Y-96409778D01*
X138299500Y-96630222D01*
X138301923Y-96645519D01*
X138333985Y-96847952D01*
X138402103Y-97057603D01*
X138402104Y-97057606D01*
X138502187Y-97254025D01*
X138631752Y-97432358D01*
X138631756Y-97432363D01*
X138787636Y-97588243D01*
X138787641Y-97588247D01*
X138815234Y-97608294D01*
X138965978Y-97717815D01*
X139094375Y-97783237D01*
X139162393Y-97817895D01*
X139162396Y-97817896D01*
X139267221Y-97851955D01*
X139372049Y-97886015D01*
X139589778Y-97920500D01*
X139589779Y-97920500D01*
X139810221Y-97920500D01*
X139810222Y-97920500D01*
X140027951Y-97886015D01*
X140237606Y-97817895D01*
X140434022Y-97717815D01*
X140612365Y-97588242D01*
X140768242Y-97432365D01*
X140897815Y-97254022D01*
X140997895Y-97057606D01*
X141066015Y-96847951D01*
X141100500Y-96630222D01*
X141100500Y-96409778D01*
X141066015Y-96192049D01*
X141028341Y-96076098D01*
X140997896Y-95982396D01*
X140997895Y-95982393D01*
X140952680Y-95893656D01*
X140897815Y-95785978D01*
X140881260Y-95763192D01*
X140768247Y-95607641D01*
X140768243Y-95607636D01*
X140612363Y-95451756D01*
X140612358Y-95451752D01*
X140472745Y-95350318D01*
X140430079Y-95294989D01*
X140424100Y-95225375D01*
X140456705Y-95163580D01*
X140472745Y-95149682D01*
X140612358Y-95048247D01*
X140612356Y-95048247D01*
X140612365Y-95048242D01*
X140768242Y-94892365D01*
X140897815Y-94714022D01*
X140997895Y-94517606D01*
X141066015Y-94307951D01*
X141100500Y-94090222D01*
X141100500Y-93869778D01*
X141066015Y-93652049D01*
X141013424Y-93490187D01*
X140997896Y-93442396D01*
X140997895Y-93442393D01*
X140914895Y-93279500D01*
X140897815Y-93245978D01*
X140853996Y-93185666D01*
X140768247Y-93067641D01*
X140768243Y-93067636D01*
X140612363Y-92911756D01*
X140612358Y-92911752D01*
X140472745Y-92810318D01*
X140430079Y-92754989D01*
X140424100Y-92685375D01*
X140456705Y-92623580D01*
X140472745Y-92609682D01*
X140612358Y-92508247D01*
X140612356Y-92508247D01*
X140612365Y-92508242D01*
X140768242Y-92352365D01*
X140897815Y-92174022D01*
X140997895Y-91977606D01*
X141066015Y-91767951D01*
X141100500Y-91550222D01*
X141100500Y-91329778D01*
X141066015Y-91112049D01*
X141011736Y-90944992D01*
X140997896Y-90902396D01*
X140997895Y-90902393D01*
X140963237Y-90834375D01*
X140897815Y-90705978D01*
X140875790Y-90675663D01*
X140768247Y-90527641D01*
X140768243Y-90527636D01*
X140612363Y-90371756D01*
X140612358Y-90371752D01*
X140472745Y-90270318D01*
X140430079Y-90214989D01*
X140424100Y-90145375D01*
X140456705Y-90083580D01*
X140472745Y-90069682D01*
X140612358Y-89968247D01*
X140612356Y-89968247D01*
X140612365Y-89968242D01*
X140768242Y-89812365D01*
X140897815Y-89634022D01*
X140997895Y-89437606D01*
X141066015Y-89227951D01*
X141100500Y-89010222D01*
X141100500Y-88789778D01*
X141066015Y-88572049D01*
X140997895Y-88362394D01*
X140997895Y-88362393D01*
X140963237Y-88294375D01*
X140897815Y-88165978D01*
X140881260Y-88143192D01*
X140768247Y-87987641D01*
X140768243Y-87987636D01*
X140612363Y-87831756D01*
X140612358Y-87831752D01*
X140472745Y-87730318D01*
X140430079Y-87674989D01*
X140424100Y-87605375D01*
X140456705Y-87543580D01*
X140472745Y-87529682D01*
X140612358Y-87428247D01*
X140612356Y-87428247D01*
X140612365Y-87428242D01*
X140768242Y-87272365D01*
X140897815Y-87094022D01*
X140997895Y-86897606D01*
X141066015Y-86687951D01*
X141100500Y-86470222D01*
X141100500Y-86249778D01*
X141066015Y-86032049D01*
X140997895Y-85822394D01*
X140997895Y-85822393D01*
X140935434Y-85699809D01*
X140897815Y-85625978D01*
X140830539Y-85533380D01*
X140768247Y-85447641D01*
X140768243Y-85447636D01*
X140612363Y-85291756D01*
X140612358Y-85291752D01*
X140472745Y-85190318D01*
X140430079Y-85134989D01*
X140424100Y-85065375D01*
X140456705Y-85003580D01*
X140472745Y-84989682D01*
X140612358Y-84888247D01*
X140612356Y-84888247D01*
X140612365Y-84888242D01*
X140768242Y-84732365D01*
X140897815Y-84554022D01*
X140997895Y-84357606D01*
X141066015Y-84147951D01*
X141100500Y-83930222D01*
X141100500Y-83709778D01*
X141066015Y-83492049D01*
X140997895Y-83282394D01*
X140997895Y-83282393D01*
X140963237Y-83214375D01*
X140897815Y-83085978D01*
X140881260Y-83063192D01*
X140768247Y-82907641D01*
X140768243Y-82907636D01*
X140612363Y-82751756D01*
X140612358Y-82751752D01*
X140472745Y-82650318D01*
X140430079Y-82594989D01*
X140424100Y-82525375D01*
X140456705Y-82463580D01*
X140472745Y-82449682D01*
X140612358Y-82348247D01*
X140612356Y-82348247D01*
X140612365Y-82348242D01*
X140768242Y-82192365D01*
X140897815Y-82014022D01*
X140997895Y-81817606D01*
X141066015Y-81607951D01*
X141100500Y-81390222D01*
X141100500Y-81169778D01*
X141066015Y-80952049D01*
X141021185Y-80814075D01*
X140997896Y-80742396D01*
X140997895Y-80742393D01*
X140963237Y-80674375D01*
X140897815Y-80545978D01*
X140851685Y-80482485D01*
X140768247Y-80367641D01*
X140768243Y-80367636D01*
X140612363Y-80211756D01*
X140612358Y-80211752D01*
X140472319Y-80110008D01*
X140429653Y-80054678D01*
X140423674Y-79985065D01*
X140456279Y-79923270D01*
X140472319Y-79909372D01*
X140497513Y-79891066D01*
X140497514Y-79891066D01*
X139829409Y-79222962D01*
X139892993Y-79205925D01*
X140007007Y-79140099D01*
X140100099Y-79047007D01*
X140165925Y-78932993D01*
X140182962Y-78869410D01*
X140851066Y-79537514D01*
X140851066Y-79537513D01*
X140897386Y-79473760D01*
X140997432Y-79277410D01*
X141065526Y-79067835D01*
X141100000Y-78850181D01*
X141100000Y-78629818D01*
X141065526Y-78412164D01*
X140997432Y-78202589D01*
X140897388Y-78006243D01*
X140851066Y-77942485D01*
X140851065Y-77942485D01*
X140182962Y-78610589D01*
X140165925Y-78547007D01*
X140100099Y-78432993D01*
X140007007Y-78339901D01*
X139892993Y-78274075D01*
X139829408Y-78257037D01*
X140449628Y-77636818D01*
X140510951Y-77603333D01*
X140537308Y-77600499D01*
X140647872Y-77600499D01*
X140707483Y-77594091D01*
X140842331Y-77543796D01*
X140957546Y-77457546D01*
X141043796Y-77342331D01*
X141094091Y-77207483D01*
X141100500Y-77147873D01*
X141100499Y-76089778D01*
X163699500Y-76089778D01*
X163699500Y-76310222D01*
X163705985Y-76351169D01*
X163733985Y-76527952D01*
X163802103Y-76737603D01*
X163802104Y-76737606D01*
X163902187Y-76934025D01*
X164031752Y-77112358D01*
X164031756Y-77112363D01*
X164187636Y-77268243D01*
X164187641Y-77268247D01*
X164327254Y-77369682D01*
X164369920Y-77425012D01*
X164375899Y-77494625D01*
X164343293Y-77556420D01*
X164327254Y-77570318D01*
X164187641Y-77671752D01*
X164187636Y-77671756D01*
X164031756Y-77827636D01*
X164031752Y-77827641D01*
X163902187Y-78005974D01*
X163802104Y-78202393D01*
X163802103Y-78202396D01*
X163733985Y-78412047D01*
X163699500Y-78629778D01*
X163699500Y-78850221D01*
X163733985Y-79067952D01*
X163802103Y-79277603D01*
X163802104Y-79277606D01*
X163870122Y-79411096D01*
X163902049Y-79473756D01*
X163902187Y-79474025D01*
X164031752Y-79652358D01*
X164031756Y-79652363D01*
X164187636Y-79808243D01*
X164187641Y-79808247D01*
X164327254Y-79909682D01*
X164369920Y-79965012D01*
X164375899Y-80034625D01*
X164343293Y-80096420D01*
X164327254Y-80110318D01*
X164187641Y-80211752D01*
X164187636Y-80211756D01*
X164031756Y-80367636D01*
X164031752Y-80367641D01*
X163902187Y-80545974D01*
X163802104Y-80742393D01*
X163802103Y-80742396D01*
X163733985Y-80952047D01*
X163699500Y-81169778D01*
X163699500Y-81390221D01*
X163733985Y-81607952D01*
X163802103Y-81817603D01*
X163802104Y-81817606D01*
X163870122Y-81951096D01*
X163902049Y-82013756D01*
X163902187Y-82014025D01*
X164031752Y-82192358D01*
X164031756Y-82192363D01*
X164187636Y-82348243D01*
X164187641Y-82348247D01*
X164327254Y-82449682D01*
X164369920Y-82505012D01*
X164375899Y-82574625D01*
X164343293Y-82636420D01*
X164327254Y-82650318D01*
X164187641Y-82751752D01*
X164187636Y-82751756D01*
X164031756Y-82907636D01*
X164031752Y-82907641D01*
X163902187Y-83085974D01*
X163802104Y-83282393D01*
X163802103Y-83282396D01*
X163733985Y-83492047D01*
X163716824Y-83600401D01*
X163699500Y-83709778D01*
X163699500Y-83930222D01*
X163701746Y-83944403D01*
X163733985Y-84147952D01*
X163802103Y-84357603D01*
X163802104Y-84357606D01*
X163902187Y-84554025D01*
X164031752Y-84732358D01*
X164031756Y-84732363D01*
X164187636Y-84888243D01*
X164187641Y-84888247D01*
X164327254Y-84989682D01*
X164369920Y-85045012D01*
X164375899Y-85114625D01*
X164343293Y-85176420D01*
X164327254Y-85190318D01*
X164187641Y-85291752D01*
X164187636Y-85291756D01*
X164031756Y-85447636D01*
X164031752Y-85447641D01*
X163902187Y-85625974D01*
X163802104Y-85822393D01*
X163802103Y-85822396D01*
X163733985Y-86032047D01*
X163699500Y-86249778D01*
X163699500Y-86470221D01*
X163733985Y-86687952D01*
X163802103Y-86897603D01*
X163802104Y-86897606D01*
X163852161Y-86995845D01*
X163902173Y-87093999D01*
X163902187Y-87094025D01*
X164031752Y-87272358D01*
X164031756Y-87272363D01*
X164187636Y-87428243D01*
X164187641Y-87428247D01*
X164229755Y-87458844D01*
X164365978Y-87557815D01*
X164494375Y-87623237D01*
X164562393Y-87657895D01*
X164562396Y-87657896D01*
X164667221Y-87691955D01*
X164772049Y-87726015D01*
X164989778Y-87760500D01*
X164989779Y-87760500D01*
X165210221Y-87760500D01*
X165210222Y-87760500D01*
X165427951Y-87726015D01*
X165637606Y-87657895D01*
X165834022Y-87557815D01*
X166012365Y-87428242D01*
X166168242Y-87272365D01*
X166297815Y-87094022D01*
X166397895Y-86897606D01*
X166466015Y-86687951D01*
X166500500Y-86470222D01*
X166500500Y-86249778D01*
X166466015Y-86032049D01*
X166397895Y-85822394D01*
X166397895Y-85822393D01*
X166335434Y-85699809D01*
X166297815Y-85625978D01*
X166230539Y-85533380D01*
X166168247Y-85447641D01*
X166168243Y-85447636D01*
X166012363Y-85291756D01*
X166012358Y-85291752D01*
X165872745Y-85190318D01*
X165830079Y-85134989D01*
X165824100Y-85065375D01*
X165856705Y-85003580D01*
X165872745Y-84989682D01*
X166012358Y-84888247D01*
X166012356Y-84888247D01*
X166012365Y-84888242D01*
X166168242Y-84732365D01*
X166297815Y-84554022D01*
X166397895Y-84357606D01*
X166466015Y-84147951D01*
X166500500Y-83930222D01*
X166500500Y-83709778D01*
X166466015Y-83492049D01*
X166397895Y-83282394D01*
X166397895Y-83282393D01*
X166363237Y-83214375D01*
X166297815Y-83085978D01*
X166281260Y-83063192D01*
X166168247Y-82907641D01*
X166168243Y-82907636D01*
X166012363Y-82751756D01*
X166012358Y-82751752D01*
X165872745Y-82650318D01*
X165830079Y-82594989D01*
X165824100Y-82525375D01*
X165856705Y-82463580D01*
X165872745Y-82449682D01*
X166012358Y-82348247D01*
X166012356Y-82348247D01*
X166012365Y-82348242D01*
X166168242Y-82192365D01*
X166297815Y-82014022D01*
X166397895Y-81817606D01*
X166466015Y-81607951D01*
X166500500Y-81390222D01*
X166500500Y-81169778D01*
X166466015Y-80952049D01*
X166421185Y-80814075D01*
X166397896Y-80742396D01*
X166397895Y-80742393D01*
X166363237Y-80674375D01*
X166297815Y-80545978D01*
X166251685Y-80482485D01*
X166168247Y-80367641D01*
X166168243Y-80367636D01*
X166012363Y-80211756D01*
X166012358Y-80211752D01*
X165872745Y-80110318D01*
X165830079Y-80054989D01*
X165824100Y-79985375D01*
X165856705Y-79923580D01*
X165872745Y-79909682D01*
X166012358Y-79808247D01*
X166012356Y-79808247D01*
X166012365Y-79808242D01*
X166168242Y-79652365D01*
X166297815Y-79474022D01*
X166397895Y-79277606D01*
X166466015Y-79067951D01*
X166500500Y-78850222D01*
X166500500Y-78629778D01*
X166466015Y-78412049D01*
X166410348Y-78240721D01*
X166397896Y-78202396D01*
X166397895Y-78202393D01*
X166361006Y-78129996D01*
X166297815Y-78005978D01*
X166247919Y-77937302D01*
X166168247Y-77827641D01*
X166168243Y-77827636D01*
X166012363Y-77671756D01*
X166012358Y-77671752D01*
X165872745Y-77570318D01*
X165830079Y-77514989D01*
X165824100Y-77445375D01*
X165856705Y-77383580D01*
X165872745Y-77369682D01*
X166012358Y-77268247D01*
X166012356Y-77268247D01*
X166012365Y-77268242D01*
X166168242Y-77112365D01*
X166297815Y-76934022D01*
X166397895Y-76737606D01*
X166466015Y-76527951D01*
X166500500Y-76310222D01*
X166500500Y-76089778D01*
X166466015Y-75872049D01*
X166428341Y-75756098D01*
X166397896Y-75662396D01*
X166397895Y-75662393D01*
X166324047Y-75517461D01*
X166297815Y-75465978D01*
X166192985Y-75321691D01*
X166168247Y-75287641D01*
X166168243Y-75287636D01*
X166012363Y-75131756D01*
X166012358Y-75131752D01*
X165834025Y-75002187D01*
X165834024Y-75002186D01*
X165834022Y-75002185D01*
X165716791Y-74942452D01*
X165637606Y-74902104D01*
X165637603Y-74902103D01*
X165427952Y-74833985D01*
X165319086Y-74816742D01*
X165210222Y-74799500D01*
X164989778Y-74799500D01*
X164917201Y-74810995D01*
X164772047Y-74833985D01*
X164562396Y-74902103D01*
X164562393Y-74902104D01*
X164365974Y-75002187D01*
X164187641Y-75131752D01*
X164187636Y-75131756D01*
X164031756Y-75287636D01*
X164031752Y-75287641D01*
X163902187Y-75465974D01*
X163802104Y-75662393D01*
X163802103Y-75662396D01*
X163733985Y-75872047D01*
X163726619Y-75918554D01*
X163699500Y-76089778D01*
X141100499Y-76089778D01*
X141100499Y-75252128D01*
X141094091Y-75192517D01*
X141071429Y-75131758D01*
X141043797Y-75057671D01*
X141043793Y-75057664D01*
X140957547Y-74942455D01*
X140957544Y-74942452D01*
X140842335Y-74856206D01*
X140842328Y-74856202D01*
X140707482Y-74805908D01*
X140707483Y-74805908D01*
X140647883Y-74799501D01*
X140647881Y-74799500D01*
X140647873Y-74799500D01*
X140647864Y-74799500D01*
X138752129Y-74799500D01*
X138752123Y-74799501D01*
X138692516Y-74805908D01*
X138557671Y-74856202D01*
X138557664Y-74856206D01*
X138442455Y-74942452D01*
X138442452Y-74942455D01*
X138356206Y-75057664D01*
X138356202Y-75057671D01*
X138305908Y-75192517D01*
X138299501Y-75252116D01*
X138299501Y-75252123D01*
X138299500Y-75252135D01*
X135652742Y-75252135D01*
X135532363Y-75131756D01*
X135532358Y-75131752D01*
X135354025Y-75002187D01*
X135354024Y-75002186D01*
X135354022Y-75002185D01*
X135236791Y-74942452D01*
X135157606Y-74902104D01*
X135157603Y-74902103D01*
X134947952Y-74833985D01*
X134839086Y-74816742D01*
X134730222Y-74799500D01*
X134509778Y-74799500D01*
X134437201Y-74810995D01*
X134292047Y-74833985D01*
X134082396Y-74902103D01*
X134082393Y-74902104D01*
X133885974Y-75002187D01*
X133707641Y-75131752D01*
X133707636Y-75131756D01*
X133551756Y-75287636D01*
X133551752Y-75287641D01*
X133422187Y-75465974D01*
X133322104Y-75662393D01*
X133322103Y-75662396D01*
X133253985Y-75872047D01*
X133246619Y-75918554D01*
X133219500Y-76089778D01*
X133219500Y-76310222D01*
X133225985Y-76351169D01*
X133253985Y-76527952D01*
X133322103Y-76737603D01*
X133322104Y-76737606D01*
X133422187Y-76934025D01*
X133551752Y-77112358D01*
X133551756Y-77112363D01*
X133707636Y-77268243D01*
X133707641Y-77268247D01*
X133847254Y-77369682D01*
X133889920Y-77425012D01*
X133895899Y-77494625D01*
X133863293Y-77556420D01*
X133847254Y-77570318D01*
X133707641Y-77671752D01*
X133707636Y-77671756D01*
X133551756Y-77827636D01*
X133551752Y-77827641D01*
X133422187Y-78005974D01*
X133322104Y-78202393D01*
X133322103Y-78202396D01*
X133253985Y-78412047D01*
X133222148Y-78613054D01*
X133192219Y-78676189D01*
X133132907Y-78713120D01*
X133063044Y-78712122D01*
X133011994Y-78681337D01*
X128546546Y-74215888D01*
X128546545Y-74215887D01*
X128431807Y-74139222D01*
X128304332Y-74086421D01*
X128304322Y-74086418D01*
X128168996Y-74059500D01*
X128168994Y-74059500D01*
X128168993Y-74059500D01*
X116217435Y-74059500D01*
X116150396Y-74039815D01*
X116104641Y-73987011D01*
X116094697Y-73917853D01*
X116102875Y-73888045D01*
X116106658Y-73878913D01*
X116135500Y-73733918D01*
X116135500Y-73586082D01*
X116135500Y-73586079D01*
X116106659Y-73441092D01*
X116106658Y-73441091D01*
X116106658Y-73441087D01*
X116106656Y-73441082D01*
X116050087Y-73304511D01*
X116050080Y-73304498D01*
X115967951Y-73181584D01*
X115967948Y-73181580D01*
X115863419Y-73077051D01*
X115863415Y-73077048D01*
X115740501Y-72994919D01*
X115740488Y-72994912D01*
X115603917Y-72938343D01*
X115603907Y-72938340D01*
X115458920Y-72909500D01*
X115458918Y-72909500D01*
X115311082Y-72909500D01*
X115311080Y-72909500D01*
X115166092Y-72938340D01*
X115166082Y-72938343D01*
X115029511Y-72994912D01*
X115029498Y-72994919D01*
X114906584Y-73077048D01*
X114906580Y-73077051D01*
X114802051Y-73181580D01*
X114802048Y-73181584D01*
X114719919Y-73304498D01*
X114719912Y-73304511D01*
X114663343Y-73441082D01*
X114663340Y-73441092D01*
X114634500Y-73586079D01*
X114634500Y-73586082D01*
X114634500Y-73733918D01*
X114634500Y-73733920D01*
X114634499Y-73733920D01*
X114663340Y-73878907D01*
X114663342Y-73878913D01*
X114667125Y-73888045D01*
X114674595Y-73957514D01*
X114643322Y-74019994D01*
X114583234Y-74055648D01*
X114552565Y-74059500D01*
X113566003Y-74059500D01*
X113464042Y-74079781D01*
X113464034Y-74079783D01*
X113457591Y-74081065D01*
X113430671Y-74086420D01*
X113399094Y-74099500D01*
X113393914Y-74101645D01*
X113393903Y-74101649D01*
X113303191Y-74139223D01*
X113214152Y-74198718D01*
X113188457Y-74215886D01*
X113188451Y-74215891D01*
X112775923Y-74628419D01*
X112714600Y-74661904D01*
X112674989Y-74664028D01*
X112668219Y-74663300D01*
X112632873Y-74659500D01*
X112632867Y-74659500D01*
X111337129Y-74659500D01*
X111337123Y-74659501D01*
X111277516Y-74665908D01*
X111142671Y-74716202D01*
X111142664Y-74716206D01*
X111027455Y-74802452D01*
X111027452Y-74802455D01*
X110941206Y-74917664D01*
X110941202Y-74917671D01*
X110890908Y-75052517D01*
X110884501Y-75112116D01*
X110884500Y-75112135D01*
X110884500Y-77707870D01*
X110884501Y-77707876D01*
X110890908Y-77767483D01*
X110941202Y-77902328D01*
X110941206Y-77902335D01*
X110971263Y-77942485D01*
X111027454Y-78017546D01*
X111101692Y-78073120D01*
X111143562Y-78129053D01*
X111148546Y-78198745D01*
X111130482Y-78241277D01*
X111050609Y-78360814D01*
X111050602Y-78360827D01*
X110990264Y-78506498D01*
X110990261Y-78506510D01*
X110959500Y-78661153D01*
X110959500Y-78818846D01*
X110990261Y-78973489D01*
X110990264Y-78973501D01*
X111050602Y-79119172D01*
X111050609Y-79119185D01*
X111138210Y-79250288D01*
X111138213Y-79250292D01*
X111249707Y-79361786D01*
X111249711Y-79361789D01*
X111380814Y-79449390D01*
X111380827Y-79449397D01*
X111526498Y-79509735D01*
X111526503Y-79509737D01*
X111681153Y-79540499D01*
X111681156Y-79540500D01*
X111681158Y-79540500D01*
X111838844Y-79540500D01*
X111838845Y-79540499D01*
X111993497Y-79509737D01*
X112080354Y-79473760D01*
X112137864Y-79449939D01*
X112185316Y-79440500D01*
X114368996Y-79440500D01*
X114460040Y-79422389D01*
X114504328Y-79413580D01*
X114568069Y-79387177D01*
X114631807Y-79360777D01*
X114631808Y-79360776D01*
X114631811Y-79360775D01*
X114746543Y-79284114D01*
X115029114Y-79001543D01*
X115105775Y-78886811D01*
X115158580Y-78759328D01*
X115167970Y-78712122D01*
X115185500Y-78623995D01*
X115185500Y-78242790D01*
X115205185Y-78175751D01*
X115257989Y-78129996D01*
X115266146Y-78126616D01*
X115327331Y-78103796D01*
X115442546Y-78017546D01*
X115528796Y-77902331D01*
X115579091Y-77767483D01*
X115585500Y-77707873D01*
X115585499Y-75584499D01*
X115605184Y-75517461D01*
X115657987Y-75471706D01*
X115709499Y-75460500D01*
X117855500Y-75460500D01*
X117922539Y-75480185D01*
X117968294Y-75532989D01*
X117979500Y-75584500D01*
X117979500Y-77147870D01*
X117979501Y-77147876D01*
X117985908Y-77207483D01*
X118036202Y-77342328D01*
X118036206Y-77342335D01*
X118122452Y-77457544D01*
X118122455Y-77457547D01*
X118237664Y-77543793D01*
X118237671Y-77543797D01*
X118271516Y-77556420D01*
X118372517Y-77594091D01*
X118432127Y-77600500D01*
X118542692Y-77600499D01*
X118609729Y-77620183D01*
X118630371Y-77636818D01*
X119250591Y-78257037D01*
X119187007Y-78274075D01*
X119072993Y-78339901D01*
X118979901Y-78432993D01*
X118914075Y-78547007D01*
X118897037Y-78610590D01*
X118228932Y-77942485D01*
X118228931Y-77942485D01*
X118182616Y-78006233D01*
X118082567Y-78202589D01*
X118014473Y-78412164D01*
X117980000Y-78629818D01*
X117980000Y-78850181D01*
X118014473Y-79067835D01*
X118082567Y-79277410D01*
X118182611Y-79473756D01*
X118228932Y-79537513D01*
X118897037Y-78869408D01*
X118914075Y-78932993D01*
X118979901Y-79047007D01*
X119072993Y-79140099D01*
X119187007Y-79205925D01*
X119250590Y-79222962D01*
X118582485Y-79891065D01*
X118582485Y-79891066D01*
X118607680Y-79909371D01*
X118650346Y-79964701D01*
X118656325Y-80034314D01*
X118623720Y-80096110D01*
X118607681Y-80110008D01*
X118467636Y-80211756D01*
X118311756Y-80367636D01*
X118311752Y-80367641D01*
X118182187Y-80545974D01*
X118082104Y-80742393D01*
X118082103Y-80742396D01*
X118013985Y-80952047D01*
X117979500Y-81169778D01*
X117979500Y-81390221D01*
X118013985Y-81607952D01*
X118082103Y-81817603D01*
X118082104Y-81817606D01*
X118150122Y-81951096D01*
X118182049Y-82013756D01*
X118182187Y-82014025D01*
X118311752Y-82192358D01*
X118311756Y-82192363D01*
X118392212Y-82272819D01*
X118425697Y-82334142D01*
X118420713Y-82403834D01*
X118378841Y-82459767D01*
X118313377Y-82484184D01*
X118304531Y-82484500D01*
X115484798Y-82484500D01*
X115417759Y-82464815D01*
X115390038Y-82440478D01*
X115384094Y-82433436D01*
X115342712Y-82366344D01*
X115244992Y-82268624D01*
X115241616Y-82264624D01*
X115229543Y-82237253D01*
X115215210Y-82211004D01*
X115215594Y-82205628D01*
X115213419Y-82200697D01*
X115218060Y-82171144D01*
X115220194Y-82141312D01*
X115223571Y-82136056D01*
X115224260Y-82131673D01*
X115231930Y-82123050D01*
X115248695Y-82096964D01*
X115342317Y-82003342D01*
X115434356Y-81854124D01*
X115434358Y-81854119D01*
X115489505Y-81687697D01*
X115489506Y-81687690D01*
X115499999Y-81584986D01*
X115500000Y-81584973D01*
X115500000Y-81435000D01*
X113100001Y-81435000D01*
X113100001Y-81584986D01*
X113110494Y-81687697D01*
X113165641Y-81854119D01*
X113165643Y-81854124D01*
X113257684Y-82003345D01*
X113351304Y-82096965D01*
X113384789Y-82158288D01*
X113379805Y-82227980D01*
X113351305Y-82272327D01*
X113257287Y-82366345D01*
X113165187Y-82515663D01*
X113165185Y-82515668D01*
X113153809Y-82550000D01*
X113110001Y-82682203D01*
X113110001Y-82682204D01*
X113110000Y-82682204D01*
X113099500Y-82784983D01*
X113099500Y-83585001D01*
X113099501Y-83585019D01*
X113110000Y-83687796D01*
X113110001Y-83687799D01*
X113126242Y-83736809D01*
X113165186Y-83854334D01*
X113257288Y-84003656D01*
X113381344Y-84127712D01*
X113530666Y-84219814D01*
X113697203Y-84274999D01*
X113799991Y-84285500D01*
X114800008Y-84285499D01*
X114800016Y-84285498D01*
X114800019Y-84285498D01*
X114856302Y-84279748D01*
X114902797Y-84274999D01*
X115069334Y-84219814D01*
X115218656Y-84127712D01*
X115342712Y-84003656D01*
X115379259Y-83944402D01*
X115431207Y-83897679D01*
X115484798Y-83885500D01*
X117866511Y-83885500D01*
X117899215Y-83895103D01*
X117932054Y-83904238D01*
X117932667Y-83904925D01*
X117933550Y-83905185D01*
X117955848Y-83930919D01*
X117978558Y-83956383D01*
X117978915Y-83957539D01*
X117979305Y-83957989D01*
X117988984Y-83990102D01*
X118010583Y-84126471D01*
X118001629Y-84195764D01*
X117975791Y-84233550D01*
X115734851Y-86474489D01*
X115673528Y-86507974D01*
X115603836Y-86502990D01*
X115559489Y-86474489D01*
X115525000Y-86440000D01*
X113075001Y-86440000D01*
X113075001Y-86577486D01*
X113085494Y-86680197D01*
X113140641Y-86846619D01*
X113140643Y-86846624D01*
X113232684Y-86995845D01*
X113356655Y-87119816D01*
X113356659Y-87119819D01*
X113359656Y-87121668D01*
X113361279Y-87123472D01*
X113362323Y-87124298D01*
X113362181Y-87124476D01*
X113406381Y-87173616D01*
X113417602Y-87242579D01*
X113389759Y-87306661D01*
X113359661Y-87332741D01*
X113356349Y-87334783D01*
X113356343Y-87334788D01*
X113232289Y-87458842D01*
X113140187Y-87608163D01*
X113140186Y-87608166D01*
X113085001Y-87774703D01*
X113085001Y-87774704D01*
X113085000Y-87774704D01*
X113074500Y-87877483D01*
X113074500Y-88652501D01*
X113074501Y-88652519D01*
X113085000Y-88755296D01*
X113085001Y-88755299D01*
X113140185Y-88921831D01*
X113140186Y-88921834D01*
X113232288Y-89071156D01*
X113356344Y-89195212D01*
X113505666Y-89287314D01*
X113514498Y-89290240D01*
X113571944Y-89330008D01*
X113598771Y-89394522D01*
X113599500Y-89407948D01*
X113599500Y-90199091D01*
X113579815Y-90266130D01*
X113535731Y-90304641D01*
X113536813Y-90306395D01*
X113530667Y-90310185D01*
X113530666Y-90310186D01*
X113442558Y-90364531D01*
X113381342Y-90402289D01*
X113257289Y-90526342D01*
X113165187Y-90675663D01*
X113165185Y-90675668D01*
X113111434Y-90837878D01*
X113071661Y-90895323D01*
X113007145Y-90922146D01*
X112938369Y-90909831D01*
X112906047Y-90886555D01*
X111260819Y-89241327D01*
X111227334Y-89180004D01*
X111224500Y-89153646D01*
X111224500Y-87218499D01*
X111244185Y-87151460D01*
X111296989Y-87105705D01*
X111348500Y-87094499D01*
X112171871Y-87094499D01*
X112171872Y-87094499D01*
X112231483Y-87088091D01*
X112366331Y-87037796D01*
X112481546Y-86951546D01*
X112567796Y-86836331D01*
X112618091Y-86701483D01*
X112624500Y-86641873D01*
X112624499Y-85802513D01*
X113075000Y-85802513D01*
X113075000Y-85940000D01*
X114050000Y-85940000D01*
X114550000Y-85940000D01*
X115524999Y-85940000D01*
X115524999Y-85802528D01*
X115524998Y-85802513D01*
X115514505Y-85699802D01*
X115459358Y-85533380D01*
X115459356Y-85533375D01*
X115367315Y-85384154D01*
X115243345Y-85260184D01*
X115094124Y-85168143D01*
X115094119Y-85168141D01*
X114927697Y-85112994D01*
X114927690Y-85112993D01*
X114824986Y-85102500D01*
X114550000Y-85102500D01*
X114550000Y-85940000D01*
X114050000Y-85940000D01*
X114050000Y-85102500D01*
X113775029Y-85102500D01*
X113775012Y-85102501D01*
X113672302Y-85112994D01*
X113505880Y-85168141D01*
X113505875Y-85168143D01*
X113356654Y-85260184D01*
X113232684Y-85384154D01*
X113140643Y-85533375D01*
X113140641Y-85533380D01*
X113085494Y-85699802D01*
X113085493Y-85699809D01*
X113075000Y-85802513D01*
X112624499Y-85802513D01*
X112624499Y-85291758D01*
X112624499Y-84046129D01*
X112624498Y-84046123D01*
X112624497Y-84046116D01*
X112618091Y-83986517D01*
X112597354Y-83930919D01*
X112567797Y-83851671D01*
X112567793Y-83851664D01*
X112481547Y-83736455D01*
X112481544Y-83736452D01*
X112366335Y-83650206D01*
X112366328Y-83650202D01*
X112231482Y-83599908D01*
X112231483Y-83599908D01*
X112171883Y-83593501D01*
X112171881Y-83593500D01*
X112171873Y-83593500D01*
X112171864Y-83593500D01*
X109076129Y-83593500D01*
X109076123Y-83593501D01*
X109016516Y-83599908D01*
X108881671Y-83650202D01*
X108881664Y-83650206D01*
X108766455Y-83736452D01*
X108766452Y-83736455D01*
X108680206Y-83851664D01*
X108680202Y-83851671D01*
X108629908Y-83986517D01*
X108623501Y-84046116D01*
X108623501Y-84046123D01*
X108623500Y-84046135D01*
X108623500Y-86641870D01*
X108623501Y-86641876D01*
X108629908Y-86701483D01*
X108680202Y-86836328D01*
X108680206Y-86836335D01*
X108766452Y-86951544D01*
X108766455Y-86951547D01*
X108881664Y-87037793D01*
X108881671Y-87037797D01*
X109016517Y-87088091D01*
X109016516Y-87088091D01*
X109023444Y-87088835D01*
X109076127Y-87094500D01*
X109899500Y-87094499D01*
X109966539Y-87114183D01*
X110012294Y-87166987D01*
X110023500Y-87218499D01*
X110023500Y-89367074D01*
X110023499Y-89367092D01*
X110023499Y-89532798D01*
X110023498Y-89532798D01*
X110064423Y-89685529D01*
X110093358Y-89735644D01*
X110093359Y-89735648D01*
X110093360Y-89735648D01*
X110143479Y-89822458D01*
X110143481Y-89822461D01*
X110262349Y-89941329D01*
X110262355Y-89941334D01*
X113073268Y-92752248D01*
X113106753Y-92813571D01*
X113108945Y-92852531D01*
X113099500Y-92944981D01*
X113099500Y-93155500D01*
X113079815Y-93222539D01*
X113027011Y-93268294D01*
X112975500Y-93279500D01*
X107187949Y-93279500D01*
X107120910Y-93259815D01*
X107075155Y-93207011D01*
X107070244Y-93194507D01*
X107067314Y-93185667D01*
X107067314Y-93185666D01*
X106975212Y-93036344D01*
X106851156Y-92912288D01*
X106851155Y-92912287D01*
X106804402Y-92883449D01*
X106757678Y-92831500D01*
X106745500Y-92777911D01*
X106745500Y-80785013D01*
X113100000Y-80785013D01*
X113100000Y-80935000D01*
X114050000Y-80935000D01*
X114550000Y-80935000D01*
X115499999Y-80935000D01*
X115499999Y-80785028D01*
X115499998Y-80785013D01*
X115489505Y-80682302D01*
X115434358Y-80515880D01*
X115434356Y-80515875D01*
X115342315Y-80366654D01*
X115218345Y-80242684D01*
X115069124Y-80150643D01*
X115069119Y-80150641D01*
X114902697Y-80095494D01*
X114902690Y-80095493D01*
X114799986Y-80085000D01*
X114550000Y-80085000D01*
X114550000Y-80935000D01*
X114050000Y-80935000D01*
X114050000Y-80085000D01*
X113800029Y-80085000D01*
X113800012Y-80085001D01*
X113697302Y-80095494D01*
X113530880Y-80150641D01*
X113530875Y-80150643D01*
X113381654Y-80242684D01*
X113257684Y-80366654D01*
X113165643Y-80515875D01*
X113165641Y-80515880D01*
X113110494Y-80682302D01*
X113110493Y-80682309D01*
X113100000Y-80785013D01*
X106745500Y-80785013D01*
X106745500Y-79941004D01*
X106718581Y-79805677D01*
X106718580Y-79805676D01*
X106718580Y-79805672D01*
X106665775Y-79678189D01*
X106619819Y-79609412D01*
X106619817Y-79609409D01*
X106589116Y-79563459D01*
X104733501Y-77707844D01*
X108385000Y-77707844D01*
X108391401Y-77767372D01*
X108391403Y-77767379D01*
X108441645Y-77902086D01*
X108441649Y-77902093D01*
X108527809Y-78017187D01*
X108527812Y-78017190D01*
X108642906Y-78103350D01*
X108642913Y-78103354D01*
X108777620Y-78153596D01*
X108777627Y-78153598D01*
X108837155Y-78159999D01*
X108837172Y-78160000D01*
X109235000Y-78160000D01*
X109735000Y-78160000D01*
X110132828Y-78160000D01*
X110132844Y-78159999D01*
X110192372Y-78153598D01*
X110192379Y-78153596D01*
X110327086Y-78103354D01*
X110327093Y-78103350D01*
X110442187Y-78017190D01*
X110442190Y-78017187D01*
X110528350Y-77902093D01*
X110528354Y-77902086D01*
X110578596Y-77767379D01*
X110578598Y-77767372D01*
X110584999Y-77707844D01*
X110585000Y-77707827D01*
X110585000Y-76660000D01*
X109735000Y-76660000D01*
X109735000Y-78160000D01*
X109235000Y-78160000D01*
X109235000Y-76660000D01*
X108385000Y-76660000D01*
X108385000Y-77707844D01*
X104733501Y-77707844D01*
X103087480Y-76061823D01*
X103053995Y-76000500D01*
X103057230Y-75935825D01*
X103063553Y-75916368D01*
X103072871Y-75857533D01*
X103100500Y-75683097D01*
X103100500Y-75446902D01*
X103063553Y-75213631D01*
X103041958Y-75147170D01*
X103036948Y-75131752D01*
X103030581Y-75112155D01*
X108385000Y-75112155D01*
X108385000Y-76160000D01*
X109235000Y-76160000D01*
X109735000Y-76160000D01*
X110585000Y-76160000D01*
X110585000Y-75112172D01*
X110584999Y-75112155D01*
X110578598Y-75052627D01*
X110578596Y-75052620D01*
X110528354Y-74917913D01*
X110528350Y-74917906D01*
X110442190Y-74802812D01*
X110442187Y-74802809D01*
X110327093Y-74716649D01*
X110327086Y-74716645D01*
X110192379Y-74666403D01*
X110192372Y-74666401D01*
X110132844Y-74660000D01*
X109735000Y-74660000D01*
X109735000Y-76160000D01*
X109235000Y-76160000D01*
X109235000Y-74660000D01*
X108837155Y-74660000D01*
X108777627Y-74666401D01*
X108777620Y-74666403D01*
X108642913Y-74716645D01*
X108642906Y-74716649D01*
X108527812Y-74802809D01*
X108527809Y-74802812D01*
X108441649Y-74917906D01*
X108441645Y-74917913D01*
X108391403Y-75052620D01*
X108391401Y-75052627D01*
X108385000Y-75112155D01*
X103030581Y-75112155D01*
X102990568Y-74989008D01*
X102990566Y-74989005D01*
X102990566Y-74989003D01*
X102895695Y-74802809D01*
X102883343Y-74778567D01*
X102744517Y-74587490D01*
X102577510Y-74420483D01*
X102386433Y-74281657D01*
X102175996Y-74174433D01*
X101951368Y-74101446D01*
X101718097Y-74064500D01*
X101718092Y-74064500D01*
X101481908Y-74064500D01*
X101481903Y-74064500D01*
X101248631Y-74101446D01*
X101024003Y-74174433D01*
X100813566Y-74281657D01*
X100730047Y-74342338D01*
X100622490Y-74420483D01*
X100622488Y-74420485D01*
X100622487Y-74420485D01*
X100455485Y-74587487D01*
X100455485Y-74587488D01*
X100455483Y-74587490D01*
X100403165Y-74659500D01*
X100316657Y-74778566D01*
X100209433Y-74989003D01*
X100136446Y-75213631D01*
X100099500Y-75446902D01*
X100099500Y-75683097D01*
X100136446Y-75916368D01*
X100209433Y-76140996D01*
X100290714Y-76300517D01*
X100316657Y-76351433D01*
X100455483Y-76542510D01*
X100622490Y-76709517D01*
X100813567Y-76848343D01*
X100912991Y-76899002D01*
X101024003Y-76955566D01*
X101024005Y-76955566D01*
X101024008Y-76955568D01*
X101144412Y-76994689D01*
X101248631Y-77028553D01*
X101481903Y-77065500D01*
X101481908Y-77065500D01*
X101718097Y-77065500D01*
X101892533Y-77037871D01*
X101951368Y-77028553D01*
X101970824Y-77022230D01*
X102040661Y-77020234D01*
X102096823Y-77052480D01*
X105308181Y-80263838D01*
X105341666Y-80325161D01*
X105344500Y-80351519D01*
X105344500Y-92777911D01*
X105324815Y-92844950D01*
X105285598Y-92883449D01*
X105238844Y-92912287D01*
X105114788Y-93036343D01*
X105114783Y-93036349D01*
X105112741Y-93039661D01*
X105110747Y-93041453D01*
X105110307Y-93042011D01*
X105110211Y-93041935D01*
X105060791Y-93086383D01*
X104991828Y-93097602D01*
X104927747Y-93069755D01*
X104901668Y-93039656D01*
X104899819Y-93036659D01*
X104899816Y-93036655D01*
X104775845Y-92912684D01*
X104626624Y-92820643D01*
X104626619Y-92820641D01*
X104460197Y-92765494D01*
X104460190Y-92765493D01*
X104357486Y-92755000D01*
X104220000Y-92755000D01*
X104220000Y-95204999D01*
X104357472Y-95204999D01*
X104357486Y-95204998D01*
X104460197Y-95194505D01*
X104626619Y-95139358D01*
X104626624Y-95139356D01*
X104775845Y-95047315D01*
X104899818Y-94923342D01*
X104901665Y-94920348D01*
X104903469Y-94918724D01*
X104904298Y-94917677D01*
X104904476Y-94917818D01*
X104953610Y-94873621D01*
X105022573Y-94862396D01*
X105086656Y-94890236D01*
X105112743Y-94920341D01*
X105114788Y-94923656D01*
X105238844Y-95047712D01*
X105388166Y-95139814D01*
X105554703Y-95194999D01*
X105657491Y-95205500D01*
X106432508Y-95205499D01*
X106432516Y-95205498D01*
X106432519Y-95205498D01*
X106488802Y-95199748D01*
X106535297Y-95194999D01*
X106701834Y-95139814D01*
X106851156Y-95047712D01*
X106975212Y-94923656D01*
X107067314Y-94774334D01*
X107070244Y-94765493D01*
X107110018Y-94708049D01*
X107174535Y-94681228D01*
X107187949Y-94680500D01*
X108279748Y-94680500D01*
X108346787Y-94700185D01*
X108392542Y-94752989D01*
X108402486Y-94822147D01*
X108373461Y-94885703D01*
X108354060Y-94903766D01*
X108342452Y-94912455D01*
X108256206Y-95027664D01*
X108256202Y-95027671D01*
X108205908Y-95162517D01*
X108199501Y-95222116D01*
X108199500Y-95222127D01*
X108199500Y-96409778D01*
X108199501Y-97495500D01*
X108179816Y-97562539D01*
X108127013Y-97608294D01*
X108075501Y-97619500D01*
X101861519Y-97619500D01*
X101794480Y-97599815D01*
X101773838Y-97583181D01*
X100452055Y-96261398D01*
X100418570Y-96200075D01*
X100423554Y-96130383D01*
X100465426Y-96074450D01*
X100483442Y-96063232D01*
X100576522Y-96015805D01*
X100716602Y-95914032D01*
X100839032Y-95791602D01*
X100940804Y-95651524D01*
X101019408Y-95497257D01*
X101072914Y-95332584D01*
X101100000Y-95161571D01*
X101100000Y-95050000D01*
X100280330Y-95050000D01*
X100300075Y-95030255D01*
X100349444Y-94944745D01*
X100375000Y-94849370D01*
X100375000Y-94750630D01*
X100349444Y-94655255D01*
X100300075Y-94569745D01*
X100280330Y-94550000D01*
X101100000Y-94550000D01*
X101100000Y-94504986D01*
X102882501Y-94504986D01*
X102892994Y-94607697D01*
X102948141Y-94774119D01*
X102948143Y-94774124D01*
X103040184Y-94923345D01*
X103164154Y-95047315D01*
X103313375Y-95139356D01*
X103313380Y-95139358D01*
X103479802Y-95194505D01*
X103479809Y-95194506D01*
X103582519Y-95204999D01*
X103719999Y-95204999D01*
X103720000Y-95204998D01*
X103720000Y-94230000D01*
X102882501Y-94230000D01*
X102882501Y-94504986D01*
X101100000Y-94504986D01*
X101100000Y-94438428D01*
X101072913Y-94267414D01*
X101072913Y-94267411D01*
X101056519Y-94216956D01*
X101019408Y-94102742D01*
X100940804Y-93948475D01*
X100839032Y-93808397D01*
X100716602Y-93685967D01*
X100576524Y-93584195D01*
X100533648Y-93562349D01*
X100422257Y-93505591D01*
X100266594Y-93455013D01*
X102882500Y-93455013D01*
X102882500Y-93730000D01*
X103720000Y-93730000D01*
X103720000Y-92755000D01*
X103582527Y-92755000D01*
X103582512Y-92755001D01*
X103479802Y-92765494D01*
X103313380Y-92820641D01*
X103313375Y-92820643D01*
X103164154Y-92912684D01*
X103040184Y-93036654D01*
X102948143Y-93185875D01*
X102948141Y-93185880D01*
X102892994Y-93352302D01*
X102892993Y-93352309D01*
X102882500Y-93455013D01*
X100266594Y-93455013D01*
X100257589Y-93452087D01*
X100257581Y-93452085D01*
X100250000Y-93450884D01*
X100250000Y-94519670D01*
X100230255Y-94499925D01*
X100144745Y-94450556D01*
X100049370Y-94425000D01*
X99950630Y-94425000D01*
X99855255Y-94450556D01*
X99769745Y-94499925D01*
X99750000Y-94519670D01*
X99750000Y-93450884D01*
X99749999Y-93450884D01*
X99742418Y-93452085D01*
X99742410Y-93452087D01*
X99577742Y-93505591D01*
X99423475Y-93584195D01*
X99283401Y-93685964D01*
X99175799Y-93793566D01*
X99114476Y-93827050D01*
X99044784Y-93822066D01*
X98988851Y-93780194D01*
X98982585Y-93770988D01*
X98942712Y-93706344D01*
X98818656Y-93582288D01*
X98669334Y-93490186D01*
X98502797Y-93435001D01*
X98502795Y-93435000D01*
X98400010Y-93424500D01*
X97599998Y-93424500D01*
X97599980Y-93424501D01*
X97497203Y-93435000D01*
X97497200Y-93435001D01*
X97330668Y-93490185D01*
X97330663Y-93490187D01*
X97181342Y-93582289D01*
X97057289Y-93706342D01*
X96965187Y-93855663D01*
X96965185Y-93855668D01*
X96937349Y-93939670D01*
X96910001Y-94022203D01*
X96910001Y-94022204D01*
X96910000Y-94022204D01*
X96899500Y-94124983D01*
X92834994Y-94124983D01*
X92840500Y-94090222D01*
X92840500Y-93869778D01*
X92806015Y-93652049D01*
X92753424Y-93490187D01*
X92737896Y-93442396D01*
X92737895Y-93442393D01*
X92654895Y-93279500D01*
X92637815Y-93245978D01*
X92593996Y-93185666D01*
X92508247Y-93067641D01*
X92508243Y-93067636D01*
X92352363Y-92911756D01*
X92352358Y-92911752D01*
X92212745Y-92810318D01*
X92170079Y-92754989D01*
X92164100Y-92685375D01*
X92196705Y-92623580D01*
X92212745Y-92609682D01*
X92352358Y-92508247D01*
X92352356Y-92508247D01*
X92352365Y-92508242D01*
X92508242Y-92352365D01*
X92637815Y-92174022D01*
X92737895Y-91977606D01*
X92806015Y-91767951D01*
X92840500Y-91550222D01*
X92840500Y-91329778D01*
X92806015Y-91112049D01*
X92751736Y-90944992D01*
X92737896Y-90902396D01*
X92737895Y-90902393D01*
X92703237Y-90834375D01*
X92637815Y-90705978D01*
X92615790Y-90675663D01*
X92508247Y-90527641D01*
X92508243Y-90527636D01*
X92352363Y-90371756D01*
X92352358Y-90371752D01*
X92212745Y-90270318D01*
X92170079Y-90214989D01*
X92164100Y-90145375D01*
X92196705Y-90083580D01*
X92212745Y-90069682D01*
X92352358Y-89968247D01*
X92352356Y-89968247D01*
X92352365Y-89968242D01*
X92508242Y-89812365D01*
X92637815Y-89634022D01*
X92737895Y-89437606D01*
X92806015Y-89227951D01*
X92840500Y-89010222D01*
X92840500Y-88789778D01*
X92806015Y-88572049D01*
X92737895Y-88362394D01*
X92737895Y-88362393D01*
X92703237Y-88294375D01*
X92637815Y-88165978D01*
X92621260Y-88143192D01*
X92508247Y-87987641D01*
X92508243Y-87987636D01*
X92352363Y-87831756D01*
X92352358Y-87831752D01*
X92212745Y-87730318D01*
X92170079Y-87674989D01*
X92164100Y-87605375D01*
X92196705Y-87543580D01*
X92212745Y-87529682D01*
X92352358Y-87428247D01*
X92352356Y-87428247D01*
X92352365Y-87428242D01*
X92508242Y-87272365D01*
X92637815Y-87094022D01*
X92737895Y-86897606D01*
X92806015Y-86687951D01*
X92813318Y-86641844D01*
X93624000Y-86641844D01*
X93630401Y-86701372D01*
X93630403Y-86701379D01*
X93680645Y-86836086D01*
X93680649Y-86836093D01*
X93766809Y-86951187D01*
X93766812Y-86951190D01*
X93881906Y-87037350D01*
X93881913Y-87037354D01*
X94016620Y-87087596D01*
X94016627Y-87087598D01*
X94076155Y-87093999D01*
X94076172Y-87094000D01*
X95374000Y-87094000D01*
X95874000Y-87094000D01*
X97171828Y-87094000D01*
X97171844Y-87093999D01*
X97231372Y-87087598D01*
X97231379Y-87087596D01*
X97366086Y-87037354D01*
X97366093Y-87037350D01*
X97481187Y-86951190D01*
X97481190Y-86951187D01*
X97567350Y-86836093D01*
X97567354Y-86836086D01*
X97617596Y-86701379D01*
X97617598Y-86701372D01*
X97623999Y-86641844D01*
X97624000Y-86641827D01*
X97624000Y-85594000D01*
X95874000Y-85594000D01*
X95874000Y-87094000D01*
X95374000Y-87094000D01*
X95374000Y-85594000D01*
X93624000Y-85594000D01*
X93624000Y-86641844D01*
X92813318Y-86641844D01*
X92840500Y-86470222D01*
X92840500Y-86249778D01*
X92806015Y-86032049D01*
X92737895Y-85822394D01*
X92737895Y-85822393D01*
X92675434Y-85699809D01*
X92637815Y-85625978D01*
X92637812Y-85625974D01*
X92630219Y-85615522D01*
X92630218Y-85615521D01*
X92508247Y-85447641D01*
X92508243Y-85447636D01*
X92352363Y-85291756D01*
X92352358Y-85291752D01*
X92212745Y-85190318D01*
X92170079Y-85134989D01*
X92164100Y-85065375D01*
X92196705Y-85003580D01*
X92212745Y-84989682D01*
X92352358Y-84888247D01*
X92352356Y-84888247D01*
X92352365Y-84888242D01*
X92508242Y-84732365D01*
X92637815Y-84554022D01*
X92737895Y-84357606D01*
X92806015Y-84147951D01*
X92822138Y-84046155D01*
X93624000Y-84046155D01*
X93624000Y-85094000D01*
X95374000Y-85094000D01*
X95874000Y-85094000D01*
X97624000Y-85094000D01*
X97624000Y-84046172D01*
X97623999Y-84046155D01*
X97617598Y-83986627D01*
X97617596Y-83986620D01*
X97567354Y-83851913D01*
X97567350Y-83851906D01*
X97481190Y-83736812D01*
X97481187Y-83736809D01*
X97366093Y-83650649D01*
X97366086Y-83650645D01*
X97231379Y-83600403D01*
X97231372Y-83600401D01*
X97171844Y-83594000D01*
X95874000Y-83594000D01*
X95874000Y-85094000D01*
X95374000Y-85094000D01*
X95374000Y-83594000D01*
X94076155Y-83594000D01*
X94016627Y-83600401D01*
X94016620Y-83600403D01*
X93881913Y-83650645D01*
X93881906Y-83650649D01*
X93766812Y-83736809D01*
X93766809Y-83736812D01*
X93680649Y-83851906D01*
X93680645Y-83851913D01*
X93630403Y-83986620D01*
X93630401Y-83986627D01*
X93624000Y-84046155D01*
X92822138Y-84046155D01*
X92822142Y-84046128D01*
X92825734Y-84023453D01*
X92825734Y-84023452D01*
X92840500Y-83930222D01*
X92840500Y-83709778D01*
X92837019Y-83687799D01*
X92806015Y-83492049D01*
X92737895Y-83282394D01*
X92737895Y-83282393D01*
X92703237Y-83214375D01*
X92637815Y-83085978D01*
X92621260Y-83063192D01*
X92508247Y-82907641D01*
X92508243Y-82907636D01*
X92352363Y-82751756D01*
X92352358Y-82751752D01*
X92212319Y-82650008D01*
X92169653Y-82594678D01*
X92163674Y-82525065D01*
X92196279Y-82463270D01*
X92212319Y-82449372D01*
X92237513Y-82431066D01*
X92237514Y-82431066D01*
X91569409Y-81762962D01*
X91632993Y-81745925D01*
X91747007Y-81680099D01*
X91840099Y-81587007D01*
X91905925Y-81472993D01*
X91922962Y-81409410D01*
X92591066Y-82077514D01*
X92591066Y-82077513D01*
X92637386Y-82013760D01*
X92737432Y-81817410D01*
X92805526Y-81607835D01*
X92840000Y-81390181D01*
X92840000Y-81169818D01*
X92805526Y-80952164D01*
X92737432Y-80742589D01*
X92637388Y-80546243D01*
X92591066Y-80482485D01*
X92591065Y-80482485D01*
X91922962Y-81150589D01*
X91905925Y-81087007D01*
X91840099Y-80972993D01*
X91747007Y-80879901D01*
X91632993Y-80814075D01*
X91569407Y-80797037D01*
X92237513Y-80128932D01*
X92212319Y-80110628D01*
X92169653Y-80055298D01*
X92163674Y-79985685D01*
X92196279Y-79923889D01*
X92212313Y-79909994D01*
X92352365Y-79808242D01*
X92508242Y-79652365D01*
X92637815Y-79474022D01*
X92737895Y-79277606D01*
X92806015Y-79067951D01*
X92840500Y-78850222D01*
X92840500Y-78629778D01*
X92806015Y-78412049D01*
X92750348Y-78240721D01*
X92737896Y-78202396D01*
X92737895Y-78202393D01*
X92701006Y-78129996D01*
X92637815Y-78005978D01*
X92587919Y-77937302D01*
X92508247Y-77827641D01*
X92508243Y-77827636D01*
X92352363Y-77671756D01*
X92352358Y-77671752D01*
X92212745Y-77570318D01*
X92170079Y-77514989D01*
X92164100Y-77445375D01*
X92196705Y-77383580D01*
X92212745Y-77369682D01*
X92352358Y-77268247D01*
X92352356Y-77268247D01*
X92352365Y-77268242D01*
X92508242Y-77112365D01*
X92637815Y-76934022D01*
X92712392Y-76787658D01*
X96920893Y-76787658D01*
X97003828Y-76847914D01*
X97214197Y-76955102D01*
X97438752Y-77028065D01*
X97438751Y-77028065D01*
X97671948Y-77065000D01*
X97908052Y-77065000D01*
X98141247Y-77028065D01*
X98365802Y-76955102D01*
X98576163Y-76847918D01*
X98576169Y-76847914D01*
X98659104Y-76787658D01*
X98659105Y-76787658D01*
X97790000Y-75918554D01*
X96920893Y-76787658D01*
X92712392Y-76787658D01*
X92737895Y-76737606D01*
X92768341Y-76643903D01*
X92796096Y-76558479D01*
X92806015Y-76527951D01*
X92840500Y-76310222D01*
X92840500Y-76089778D01*
X92806015Y-75872049D01*
X92768341Y-75756098D01*
X92737896Y-75662396D01*
X92737895Y-75662393D01*
X92654320Y-75498370D01*
X92654319Y-75498368D01*
X92637814Y-75465976D01*
X92623989Y-75446947D01*
X96290000Y-75446947D01*
X96290000Y-75683052D01*
X96326934Y-75916247D01*
X96399897Y-76140802D01*
X96507087Y-76351174D01*
X96567338Y-76434104D01*
X96567340Y-76434105D01*
X97436446Y-75565000D01*
X97436445Y-75564999D01*
X98143554Y-75564999D01*
X98143554Y-75565001D01*
X99012658Y-76434105D01*
X99012658Y-76434104D01*
X99072914Y-76351169D01*
X99072918Y-76351163D01*
X99180102Y-76140802D01*
X99253065Y-75916247D01*
X99290000Y-75683052D01*
X99290000Y-75446947D01*
X99253065Y-75213752D01*
X99180102Y-74989197D01*
X99072914Y-74778828D01*
X99012658Y-74695894D01*
X99012658Y-74695893D01*
X98143554Y-75564999D01*
X97436445Y-75564999D01*
X96567340Y-74695894D01*
X96507084Y-74778830D01*
X96399897Y-74989197D01*
X96326934Y-75213752D01*
X96290000Y-75446947D01*
X92623989Y-75446947D01*
X92508247Y-75287641D01*
X92508243Y-75287636D01*
X92352363Y-75131756D01*
X92352358Y-75131752D01*
X92174025Y-75002187D01*
X92174024Y-75002186D01*
X92174022Y-75002185D01*
X92056791Y-74942452D01*
X91977606Y-74902104D01*
X91977603Y-74902103D01*
X91767952Y-74833985D01*
X91659086Y-74816742D01*
X91550222Y-74799500D01*
X91329778Y-74799500D01*
X91257201Y-74810995D01*
X91112047Y-74833985D01*
X90902396Y-74902103D01*
X90902393Y-74902104D01*
X90705974Y-75002187D01*
X90527641Y-75131752D01*
X90527636Y-75131756D01*
X90371756Y-75287636D01*
X90371752Y-75287641D01*
X90242187Y-75465974D01*
X90142104Y-75662393D01*
X90142103Y-75662396D01*
X90073985Y-75872047D01*
X90066619Y-75918554D01*
X90039500Y-76089778D01*
X87500000Y-76089778D01*
X87500000Y-74342340D01*
X96920894Y-74342340D01*
X97790000Y-75211446D01*
X97790001Y-75211446D01*
X98659105Y-74342340D01*
X98659104Y-74342338D01*
X98576174Y-74282087D01*
X98365802Y-74174897D01*
X98141247Y-74101934D01*
X98141248Y-74101934D01*
X97908052Y-74065000D01*
X97671948Y-74065000D01*
X97438752Y-74101934D01*
X97214197Y-74174897D01*
X97003830Y-74282084D01*
X96920894Y-74342340D01*
X87500000Y-74342340D01*
X87500000Y-73750000D01*
X65000000Y-73750000D01*
X65000000Y-99000000D01*
X53555141Y-99000000D01*
X53520076Y-98808659D01*
X53518271Y-98793794D01*
X53500726Y-98503736D01*
X53500500Y-98496249D01*
X53500500Y-96371190D01*
X59705500Y-96371190D01*
X59705500Y-96668809D01*
X59705501Y-96668825D01*
X59744348Y-96963901D01*
X59821382Y-97251396D01*
X59935278Y-97526364D01*
X59935282Y-97526374D01*
X60084096Y-97784128D01*
X60265283Y-98020255D01*
X60265289Y-98020262D01*
X60475737Y-98230710D01*
X60475744Y-98230716D01*
X60711871Y-98411903D01*
X60969625Y-98560717D01*
X60969626Y-98560717D01*
X60969629Y-98560719D01*
X61152947Y-98636651D01*
X61244603Y-98674617D01*
X61244604Y-98674617D01*
X61244606Y-98674618D01*
X61532097Y-98751651D01*
X61827184Y-98790500D01*
X61827191Y-98790500D01*
X62124809Y-98790500D01*
X62124816Y-98790500D01*
X62419903Y-98751651D01*
X62707394Y-98674618D01*
X62982371Y-98560719D01*
X63240129Y-98411903D01*
X63476257Y-98230715D01*
X63686715Y-98020257D01*
X63867903Y-97784129D01*
X64016719Y-97526371D01*
X64130618Y-97251394D01*
X64207651Y-96963903D01*
X64246500Y-96668816D01*
X64246500Y-96371184D01*
X64207651Y-96076097D01*
X64130618Y-95788606D01*
X64129529Y-95785978D01*
X64043298Y-95577797D01*
X64016719Y-95513629D01*
X64016076Y-95512516D01*
X63867903Y-95255871D01*
X63686716Y-95019744D01*
X63686710Y-95019737D01*
X63476262Y-94809289D01*
X63476255Y-94809283D01*
X63240128Y-94628096D01*
X62982374Y-94479282D01*
X62982364Y-94479278D01*
X62707396Y-94365382D01*
X62419901Y-94288348D01*
X62124825Y-94249501D01*
X62124822Y-94249500D01*
X62124816Y-94249500D01*
X61827184Y-94249500D01*
X61827178Y-94249500D01*
X61827174Y-94249501D01*
X61532098Y-94288348D01*
X61244603Y-94365382D01*
X60969635Y-94479278D01*
X60969625Y-94479282D01*
X60711871Y-94628096D01*
X60475744Y-94809283D01*
X60475737Y-94809289D01*
X60265289Y-95019737D01*
X60265283Y-95019744D01*
X60084096Y-95255871D01*
X59935282Y-95513625D01*
X59935278Y-95513635D01*
X59821382Y-95788603D01*
X59744348Y-96076098D01*
X59705501Y-96371174D01*
X59705500Y-96371190D01*
X53500500Y-96371190D01*
X53500500Y-76051190D01*
X59705500Y-76051190D01*
X59705500Y-76348809D01*
X59705501Y-76348825D01*
X59744348Y-76643901D01*
X59821382Y-76931396D01*
X59935278Y-77206364D01*
X59935282Y-77206374D01*
X60084096Y-77464128D01*
X60265283Y-77700255D01*
X60265289Y-77700262D01*
X60475737Y-77910710D01*
X60475744Y-77910716D01*
X60711871Y-78091903D01*
X60969625Y-78240717D01*
X60969626Y-78240717D01*
X60969629Y-78240719D01*
X61050158Y-78274075D01*
X61244603Y-78354617D01*
X61244604Y-78354617D01*
X61244606Y-78354618D01*
X61532097Y-78431651D01*
X61827184Y-78470500D01*
X61827191Y-78470500D01*
X62124809Y-78470500D01*
X62124816Y-78470500D01*
X62419903Y-78431651D01*
X62707394Y-78354618D01*
X62982371Y-78240719D01*
X63240129Y-78091903D01*
X63476257Y-77910715D01*
X63686715Y-77700257D01*
X63867903Y-77464129D01*
X64016719Y-77206371D01*
X64130618Y-76931394D01*
X64207651Y-76643903D01*
X64246500Y-76348816D01*
X64246500Y-76051184D01*
X64207651Y-75756097D01*
X64130618Y-75468606D01*
X64129529Y-75465978D01*
X64040950Y-75252128D01*
X64016719Y-75193629D01*
X64016076Y-75192516D01*
X63867903Y-74935871D01*
X63686716Y-74699744D01*
X63686710Y-74699737D01*
X63476262Y-74489289D01*
X63476255Y-74489283D01*
X63240128Y-74308096D01*
X62982374Y-74159282D01*
X62982364Y-74159278D01*
X62707396Y-74045382D01*
X62419901Y-73968348D01*
X62124825Y-73929501D01*
X62124822Y-73929500D01*
X62124816Y-73929500D01*
X61827184Y-73929500D01*
X61827178Y-73929500D01*
X61827174Y-73929501D01*
X61532098Y-73968348D01*
X61244603Y-74045382D01*
X60969635Y-74159278D01*
X60969625Y-74159282D01*
X60711871Y-74308096D01*
X60475744Y-74489283D01*
X60475737Y-74489289D01*
X60265289Y-74699737D01*
X60265283Y-74699744D01*
X60084096Y-74935871D01*
X59935282Y-75193625D01*
X59935278Y-75193635D01*
X59821382Y-75468603D01*
X59744348Y-75756098D01*
X59705501Y-76051174D01*
X59705500Y-76051190D01*
X53500500Y-76051190D01*
X53500500Y-74503750D01*
X53500726Y-74496263D01*
X53507658Y-74381656D01*
X53518271Y-74206201D01*
X53520076Y-74191340D01*
X53523090Y-74174897D01*
X53571780Y-73909198D01*
X53575364Y-73894664D01*
X53580271Y-73878917D01*
X53625453Y-73733920D01*
X107834499Y-73733920D01*
X107863340Y-73878907D01*
X107863343Y-73878917D01*
X107919912Y-74015488D01*
X107919919Y-74015501D01*
X108002048Y-74138415D01*
X108002051Y-74138419D01*
X108106580Y-74242948D01*
X108106584Y-74242951D01*
X108229498Y-74325080D01*
X108229511Y-74325087D01*
X108366082Y-74381656D01*
X108366087Y-74381658D01*
X108366091Y-74381658D01*
X108366092Y-74381659D01*
X108511079Y-74410500D01*
X108511082Y-74410500D01*
X108658920Y-74410500D01*
X108756462Y-74391096D01*
X108803913Y-74381658D01*
X108940495Y-74325084D01*
X109063416Y-74242951D01*
X109167951Y-74138416D01*
X109250084Y-74015495D01*
X109306658Y-73878913D01*
X109335500Y-73733918D01*
X109335500Y-73586082D01*
X109335500Y-73586079D01*
X109306659Y-73441092D01*
X109306658Y-73441091D01*
X109306658Y-73441087D01*
X109306656Y-73441082D01*
X109250087Y-73304511D01*
X109250080Y-73304498D01*
X109167951Y-73181584D01*
X109167948Y-73181580D01*
X109063419Y-73077051D01*
X109063415Y-73077048D01*
X108940501Y-72994919D01*
X108940488Y-72994912D01*
X108803917Y-72938343D01*
X108803907Y-72938340D01*
X108658920Y-72909500D01*
X108658918Y-72909500D01*
X108511082Y-72909500D01*
X108511080Y-72909500D01*
X108366092Y-72938340D01*
X108366082Y-72938343D01*
X108229511Y-72994912D01*
X108229498Y-72994919D01*
X108106584Y-73077048D01*
X108106580Y-73077051D01*
X108002051Y-73181580D01*
X108002048Y-73181584D01*
X107919919Y-73304498D01*
X107919912Y-73304511D01*
X107863343Y-73441082D01*
X107863340Y-73441092D01*
X107834500Y-73586079D01*
X107834500Y-73586082D01*
X107834500Y-73733918D01*
X107834500Y-73733920D01*
X107834499Y-73733920D01*
X53625453Y-73733920D01*
X53660699Y-73620812D01*
X53665997Y-73606842D01*
X53783730Y-73345252D01*
X53790680Y-73332012D01*
X53881616Y-73181584D01*
X53939075Y-73086534D01*
X53947567Y-73074230D01*
X54124481Y-72848417D01*
X54134396Y-72837226D01*
X54337226Y-72634396D01*
X54348417Y-72624481D01*
X54574230Y-72447567D01*
X54586534Y-72439075D01*
X54832012Y-72290680D01*
X54845258Y-72283727D01*
X55106842Y-72165997D01*
X55120812Y-72160699D01*
X55394668Y-72075362D01*
X55409198Y-72071780D01*
X55691344Y-72020075D01*
X55706201Y-72018271D01*
X55996264Y-72000726D01*
X56003751Y-72000500D01*
X56065892Y-72000500D01*
X169934108Y-72000500D01*
X169996249Y-72000500D01*
X170003736Y-72000726D01*
G37*
%TD.AperFunction*%
%TD*%
M02*
