%TF.GenerationSoftware,KiCad,Pcbnew,10.0.4*%
%TF.CreationDate,2026-08-12T12:52:57-04:00*%
%TF.ProjectId,Pigeon,50696765-6f6e-42e6-9b69-6361645f7063,rev?*%
%TF.SameCoordinates,Original*%
%TF.FileFunction,Soldermask,Bot*%
%TF.FilePolarity,Negative*%
%FSLAX46Y46*%
G04 Gerber Fmt 4.6, Leading zero omitted, Abs format (unit mm)*
G04 Created by KiCad (PCBNEW 10.0.4) date 2026-08-12 12:52:57*
%MOMM*%
%LPD*%
G01*
G04 APERTURE LIST*
G04 Aperture macros list*
%AMRoundRect*
0 Rectangle with rounded corners*
0 $1 Rounding radius*
0 $2 $3 $4 $5 $6 $7 $8 $9 X,Y pos of 4 corners*
0 Add a 4 corners polygon primitive as box body*
4,1,4,$2,$3,$4,$5,$6,$7,$8,$9,$2,$3,0*
0 Add four circle primitives for the rounded corners*
1,1,$1+$1,$2,$3*
1,1,$1+$1,$4,$5*
1,1,$1+$1,$6,$7*
1,1,$1+$1,$8,$9*
0 Add four rect primitives between the rounded corners*
20,1,$1+$1,$2,$3,$4,$5,0*
20,1,$1+$1,$4,$5,$6,$7,0*
20,1,$1+$1,$6,$7,$8,$9,0*
20,1,$1+$1,$8,$9,$2,$3,0*%
G04 Aperture macros list end*
%ADD10C,0.700000*%
%ADD11C,4.400000*%
%ADD12RoundRect,0.250000X-0.350000X-0.625000X0.350000X-0.625000X0.350000X0.625000X-0.350000X0.625000X0*%
%ADD13O,1.200000X1.750000*%
%ADD14C,3.540000*%
%ADD15R,1.800000X1.800000*%
%ADD16C,1.800000*%
%ADD17C,1.000000*%
G04 APERTURE END LIST*
D10*
%TO.C,MH3*%
X54350000Y-98500000D03*
X54833274Y-97333274D03*
X54833274Y-99666726D03*
X56000000Y-96850000D03*
D11*
X56000000Y-98500000D03*
D10*
X56000000Y-100150000D03*
X57166726Y-97333274D03*
X57166726Y-99666726D03*
X57650000Y-98500000D03*
%TD*%
D12*
%TO.C,J1*%
X98000000Y-94800000D03*
D13*
X100000000Y-94800000D03*
%TD*%
D14*
%TO.C,U2*%
X61976000Y-96520000D03*
X61976000Y-76200000D03*
D15*
X91440000Y-96520000D03*
D16*
X91440000Y-93980000D03*
X91440000Y-91440000D03*
X91440000Y-88900000D03*
X91440000Y-86360000D03*
X91440000Y-83820000D03*
X91440000Y-81280000D03*
X91440000Y-78740000D03*
X91440000Y-76200000D03*
%TD*%
D10*
%TO.C,MH2*%
X168350000Y-98500000D03*
X168833274Y-97333274D03*
X168833274Y-99666726D03*
X170000000Y-96850000D03*
D11*
X170000000Y-98500000D03*
D10*
X170000000Y-100150000D03*
X171166726Y-97333274D03*
X171166726Y-99666726D03*
X171650000Y-98500000D03*
%TD*%
D17*
%TO.C,SW2*%
X115385000Y-73660000D03*
X108585000Y-73660000D03*
%TD*%
%TO.C,SW1*%
X108400000Y-99270000D03*
X115200000Y-99270000D03*
%TD*%
D10*
%TO.C,MH4*%
X54350000Y-74500000D03*
X54833274Y-73333274D03*
X54833274Y-75666726D03*
X56000000Y-72850000D03*
D11*
X56000000Y-74500000D03*
D10*
X56000000Y-76150000D03*
X57166726Y-73333274D03*
X57166726Y-75666726D03*
X57650000Y-74500000D03*
%TD*%
D15*
%TO.C,U1*%
X119380000Y-76200000D03*
D16*
X119380000Y-78740000D03*
X119380000Y-81280000D03*
X119380000Y-83820000D03*
X119380000Y-86360000D03*
X119380000Y-88900000D03*
X119380000Y-91440000D03*
X119380000Y-93980000D03*
X119380000Y-96520000D03*
X134620000Y-96520000D03*
X134620000Y-93980000D03*
X134620000Y-91440000D03*
X134620000Y-88900000D03*
X134620000Y-86360000D03*
X134620000Y-83820000D03*
X134620000Y-81280000D03*
X134620000Y-78740000D03*
X134620000Y-76200000D03*
%TD*%
D15*
%TO.C,U3*%
X139700000Y-76200000D03*
D16*
X139700000Y-78740000D03*
X139700000Y-81280000D03*
X139700000Y-83820000D03*
X139700000Y-86360000D03*
X139700000Y-88900000D03*
X139700000Y-91440000D03*
X139700000Y-93980000D03*
X139700000Y-96520000D03*
X165100000Y-76200000D03*
X165100000Y-78740000D03*
X165100000Y-81280000D03*
X165100000Y-83820000D03*
X165100000Y-86360000D03*
%TD*%
D10*
%TO.C,MH1*%
X168350000Y-74500000D03*
X168833274Y-73333274D03*
X168833274Y-75666726D03*
X170000000Y-72850000D03*
D11*
X170000000Y-74500000D03*
D10*
X170000000Y-76150000D03*
X171166726Y-73333274D03*
X171166726Y-75666726D03*
X171650000Y-74500000D03*
%TD*%
M02*
