%TF.GenerationSoftware,KiCad,Pcbnew,10.0.4*%
%TF.CreationDate,2026-08-12T12:52:57-04:00*%
%TF.ProjectId,Pigeon,50696765-6f6e-42e6-9b69-6361645f7063,rev?*%
%TF.SameCoordinates,Original*%
%TF.FileFunction,Copper,L2,Bot*%
%TF.FilePolarity,Positive*%
%FSLAX46Y46*%
G04 Gerber Fmt 4.6, Leading zero omitted, Abs format (unit mm)*
G04 Created by KiCad (PCBNEW 10.0.4) date 2026-08-12 12:52:57*
%MOMM*%
%LPD*%
G01*
G04 APERTURE LIST*
G04 Aperture macros list*
%AMRoundRect*
0 Rectangle with rounded corners*
0 $1 Rounding radius*
0 $2 $3 $4 $5 $6 $7 $8 $9 X,Y pos of 4 corners*
0 Add a 4 corners polygon primitive as box body*
4,1,4,$2,$3,$4,$5,$6,$7,$8,$9,$2,$3,0*
0 Add four circle primitives for the rounded corners*
1,1,$1+$1,$2,$3*
1,1,$1+$1,$4,$5*
1,1,$1+$1,$6,$7*
1,1,$1+$1,$8,$9*
0 Add four rect primitives between the rounded corners*
20,1,$1+$1,$2,$3,$4,$5,0*
20,1,$1+$1,$4,$5,$6,$7,0*
20,1,$1+$1,$6,$7,$8,$9,0*
20,1,$1+$1,$8,$9,$2,$3,0*%
G04 Aperture macros list end*
%TA.AperFunction,ComponentPad*%
%ADD10C,0.700000*%
%TD*%
%TA.AperFunction,ComponentPad*%
%ADD11C,4.400000*%
%TD*%
%TA.AperFunction,ComponentPad*%
%ADD12RoundRect,0.250000X-0.350000X-0.625000X0.350000X-0.625000X0.350000X0.625000X-0.350000X0.625000X0*%
%TD*%
%TA.AperFunction,ComponentPad*%
%ADD13O,1.200000X1.750000*%
%TD*%
%TA.AperFunction,ComponentPad*%
%ADD14C,3.540000*%
%TD*%
%TA.AperFunction,ComponentPad*%
%ADD15R,1.800000X1.800000*%
%TD*%
%TA.AperFunction,ComponentPad*%
%ADD16C,1.800000*%
%TD*%
%TA.AperFunction,ViaPad*%
%ADD17C,0.600000*%
%TD*%
%TA.AperFunction,Conductor*%
%ADD18C,0.400000*%
%TD*%
%TA.AperFunction,Conductor*%
%ADD19C,0.200000*%
%TD*%
G04 APERTURE END LIST*
D10*
%TO.P,MH3,1,1_1*%
%TO.N,GND*%
X54350000Y-98500000D03*
X54833274Y-97333274D03*
X54833274Y-99666726D03*
X56000000Y-96850000D03*
D11*
X56000000Y-98500000D03*
D10*
X56000000Y-100150000D03*
X57166726Y-97333274D03*
X57166726Y-99666726D03*
X57650000Y-98500000D03*
%TD*%
D12*
%TO.P,J1,1,Pin_1_1*%
%TO.N,Net-(J1-Pin_1)*%
X98000000Y-94800000D03*
D13*
%TO.P,J1,2,Pin_2_2*%
%TO.N,GND*%
X100000000Y-94800000D03*
%TD*%
D14*
%TO.P,U2,*%
%TO.N,*%
X61976000Y-96520000D03*
X61976000Y-76200000D03*
D15*
%TO.P,U2,1,3V3_1*%
%TO.N,unconnected-(U2-3V3-Pad1)*%
X91440000Y-96520000D03*
D16*
%TO.P,U2,2,EN_2*%
%TO.N,unconnected-(U2-EN-Pad2)*%
X91440000Y-93980000D03*
%TO.P,U2,3,VBAT_3*%
%TO.N,unconnected-(U2-VBAT-Pad3)*%
X91440000Y-91440000D03*
%TO.P,U2,4,FIX_4*%
%TO.N,/GPS_FIX*%
X91440000Y-88900000D03*
%TO.P,U2,5,TX_5*%
%TO.N,/GPS_TX*%
X91440000Y-86360000D03*
%TO.P,U2,6,RX_6*%
%TO.N,/GPS_RX*%
X91440000Y-83820000D03*
%TO.P,U2,7,GND_7*%
%TO.N,GND*%
X91440000Y-81280000D03*
%TO.P,U2,8,VIN_8*%
%TO.N,+3V3*%
X91440000Y-78740000D03*
%TO.P,U2,9,PPS_9*%
%TO.N,/GPS_PPS*%
X91440000Y-76200000D03*
%TD*%
D10*
%TO.P,MH2,1,1_1*%
%TO.N,GND*%
X168350000Y-98500000D03*
X168833274Y-97333274D03*
X168833274Y-99666726D03*
X170000000Y-96850000D03*
D11*
X170000000Y-98500000D03*
D10*
X170000000Y-100150000D03*
X171166726Y-97333274D03*
X171166726Y-99666726D03*
X171650000Y-98500000D03*
%TD*%
%TO.P,MH4,1,1_1*%
%TO.N,GND*%
X54350000Y-74500000D03*
X54833274Y-73333274D03*
X54833274Y-75666726D03*
X56000000Y-72850000D03*
D11*
X56000000Y-74500000D03*
D10*
X56000000Y-76150000D03*
X57166726Y-73333274D03*
X57166726Y-75666726D03*
X57650000Y-74500000D03*
%TD*%
D15*
%TO.P,U1,1,VDD_1*%
%TO.N,/VBAT*%
X119380000Y-76200000D03*
D16*
%TO.P,U1,2,GND_2*%
%TO.N,GND*%
X119380000Y-78740000D03*
%TO.P,U1,3,3V3(OUT)_3*%
%TO.N,+3V3*%
X119380000Y-81280000D03*
%TO.P,U1,4,GPIO1_4*%
%TO.N,/VBAT_SENSE*%
X119380000Y-83820000D03*
%TO.P,U1,5,GPIO2_5*%
%TO.N,/GPS_RX*%
X119380000Y-86360000D03*
%TO.P,U1,6,GPIO3_6*%
%TO.N,/GPS_TX*%
X119380000Y-88900000D03*
%TO.P,U1,7,GPIO4_7*%
%TO.N,/GPS_FIX*%
X119380000Y-91440000D03*
%TO.P,U1,8,GPIO5_8*%
%TO.N,/GPS_PPS*%
X119380000Y-93980000D03*
%TO.P,U1,9,GPIO6_9*%
%TO.N,/BUZZER*%
X119380000Y-96520000D03*
%TO.P,U1,10,GPIO7_10*%
%TO.N,/LORA_RST*%
X134620000Y-96520000D03*
%TO.P,U1,11,GPIO8_11*%
%TO.N,/LORA_CS*%
X134620000Y-93980000D03*
%TO.P,U1,12,GPIO9_12*%
%TO.N,/SPI_MOSI*%
X134620000Y-91440000D03*
%TO.P,U1,13,GPIO10_13*%
%TO.N,/SPI_MISO*%
X134620000Y-88900000D03*
%TO.P,U1,14,GPIO11_14*%
%TO.N,/SPI_SCK*%
X134620000Y-86360000D03*
%TO.P,U1,15,GPIO12_15*%
%TO.N,/LORA_DIO0*%
X134620000Y-83820000D03*
%TO.P,U1,16,GPIO13_16*%
%TO.N,/MODE_SW*%
X134620000Y-81280000D03*
%TO.P,U1,17,RX_17*%
%TO.N,unconnected-(U1-RX-Pad17)*%
X134620000Y-78740000D03*
%TO.P,U1,18,TX_18*%
%TO.N,unconnected-(U1-TX-Pad18)*%
X134620000Y-76200000D03*
%TD*%
D15*
%TO.P,U3,1,VIN_1*%
%TO.N,+3V3*%
X139700000Y-76200000D03*
D16*
%TO.P,U3,2,GND_2*%
%TO.N,GND*%
X139700000Y-78740000D03*
%TO.P,U3,3,EN_3*%
%TO.N,unconnected-(U3-EN-Pad3)*%
X139700000Y-81280000D03*
%TO.P,U3,4,G0_4*%
%TO.N,/LORA_DIO0*%
X139700000Y-83820000D03*
%TO.P,U3,5,SCK_5*%
%TO.N,/SPI_SCK*%
X139700000Y-86360000D03*
%TO.P,U3,6,MISO_6*%
%TO.N,/SPI_MISO*%
X139700000Y-88900000D03*
%TO.P,U3,7,MOSI_7*%
%TO.N,/SPI_MOSI*%
X139700000Y-91440000D03*
%TO.P,U3,8,CS_8*%
%TO.N,/LORA_CS*%
X139700000Y-93980000D03*
%TO.P,U3,9,RST_9*%
%TO.N,/LORA_RST*%
X139700000Y-96520000D03*
%TO.P,U3,10,G1_10*%
%TO.N,unconnected-(U3-G1-Pad10)*%
X165100000Y-76200000D03*
%TO.P,U3,11,G2_11*%
%TO.N,unconnected-(U3-G2-Pad11)*%
X165100000Y-78740000D03*
%TO.P,U3,12,G3_12*%
%TO.N,unconnected-(U3-G3-Pad12)*%
X165100000Y-81280000D03*
%TO.P,U3,13,G4_13*%
%TO.N,unconnected-(U3-G4-Pad13)*%
X165100000Y-83820000D03*
%TO.P,U3,14,G5_14*%
%TO.N,unconnected-(U3-G5-Pad14)*%
X165100000Y-86360000D03*
%TD*%
D10*
%TO.P,MH1,1,1_1*%
%TO.N,GND*%
X168350000Y-74500000D03*
X168833274Y-73333274D03*
X168833274Y-75666726D03*
X170000000Y-72850000D03*
D11*
X170000000Y-74500000D03*
D10*
X170000000Y-76150000D03*
X171166726Y-73333274D03*
X171166726Y-75666726D03*
X171650000Y-74500000D03*
%TD*%
D17*
%TO.N,GND*%
X113030000Y-90170000D03*
X99060000Y-81280000D03*
X137160000Y-78740000D03*
X132080000Y-76200000D03*
X152400000Y-76200000D03*
X121920000Y-76200000D03*
X109220000Y-81280000D03*
X88900000Y-96520000D03*
X152400000Y-96520000D03*
X116840000Y-81280000D03*
X104775000Y-90170000D03*
X88900000Y-76200000D03*
X124460000Y-78740000D03*
X132080000Y-96520000D03*
%TO.N,+3V3*%
X111760000Y-78740000D03*
%TD*%
%TO.N,+3V3*%
D18*
X137795000Y-74295000D02*
X139700000Y-76200000D01*
X126365000Y-74295000D02*
X137795000Y-74295000D01*
X119380000Y-81280000D02*
X126365000Y-74295000D01*
%TO.N,/GPS_FIX*%
D19*
X116840000Y-88900000D02*
X119380000Y-91440000D01*
X91440000Y-88900000D02*
X116840000Y-88900000D01*
%TO.N,/GPS_TX*%
X116840000Y-86360000D02*
X119380000Y-88900000D01*
X91440000Y-86360000D02*
X116840000Y-86360000D01*
%TO.N,/GPS_RX*%
X91440000Y-83820000D02*
X116840000Y-83820000D01*
X116840000Y-83820000D02*
X119380000Y-86360000D01*
%TO.N,+3V3*%
D18*
X111760000Y-78740000D02*
X116840000Y-78740000D01*
X111760000Y-78740000D02*
X91440000Y-78740000D01*
X116840000Y-78740000D02*
X119380000Y-81280000D01*
%TO.N,/GPS_PPS*%
D19*
X89000000Y-92000000D02*
X89000000Y-78640000D01*
X119380000Y-93980000D02*
X118040000Y-92640000D01*
X89000000Y-78640000D02*
X91440000Y-76200000D01*
X89640000Y-92640000D02*
X89000000Y-92000000D01*
X118040000Y-92640000D02*
X89640000Y-92640000D01*
%TO.N,/LORA_RST*%
X134620000Y-96520000D02*
X139700000Y-96520000D01*
%TO.N,/LORA_CS*%
X139700000Y-93980000D02*
X134620000Y-93980000D01*
%TO.N,/SPI_MOSI*%
X134620000Y-91440000D02*
X139700000Y-91440000D01*
%TO.N,/SPI_MISO*%
X139700000Y-88900000D02*
X134620000Y-88900000D01*
%TO.N,/SPI_SCK*%
X134620000Y-86360000D02*
X139700000Y-86360000D01*
%TO.N,/LORA_DIO0*%
X139700000Y-83820000D02*
X134620000Y-83820000D01*
%TD*%
%TA.AperFunction,Conductor*%
%TO.N,GND*%
G36*
X89958834Y-78632914D02*
G01*
X90014767Y-78674786D01*
X90039184Y-78740250D01*
X90039500Y-78749096D01*
X90039500Y-78850221D01*
X90073985Y-79067952D01*
X90142103Y-79277603D01*
X90142104Y-79277606D01*
X90210122Y-79411096D01*
X90242049Y-79473756D01*
X90242187Y-79474025D01*
X90371752Y-79652358D01*
X90371756Y-79652363D01*
X90527640Y-79808247D01*
X90667679Y-79909990D01*
X90710345Y-79965319D01*
X90716324Y-80034933D01*
X90683719Y-80096728D01*
X90667679Y-80110626D01*
X90642485Y-80128930D01*
X90642485Y-80128932D01*
X91310590Y-80797037D01*
X91247007Y-80814075D01*
X91132993Y-80879901D01*
X91039901Y-80972993D01*
X90974075Y-81087007D01*
X90957037Y-81150590D01*
X90288932Y-80482485D01*
X90288931Y-80482485D01*
X90242616Y-80546233D01*
X90142567Y-80742589D01*
X90074473Y-80952164D01*
X90040000Y-81169818D01*
X90040000Y-81390181D01*
X90074473Y-81607835D01*
X90142567Y-81817410D01*
X90242611Y-82013756D01*
X90288932Y-82077513D01*
X90957037Y-81409408D01*
X90974075Y-81472993D01*
X91039901Y-81587007D01*
X91132993Y-81680099D01*
X91247007Y-81745925D01*
X91310590Y-81762962D01*
X90642485Y-82431065D01*
X90642485Y-82431066D01*
X90667680Y-82449371D01*
X90710346Y-82504701D01*
X90716325Y-82574314D01*
X90683720Y-82636110D01*
X90667681Y-82650008D01*
X90527636Y-82751756D01*
X90371756Y-82907636D01*
X90371752Y-82907641D01*
X90242187Y-83085974D01*
X90142104Y-83282393D01*
X90142104Y-83282395D01*
X90073985Y-83492047D01*
X90039500Y-83709778D01*
X90039500Y-83930221D01*
X90073985Y-84147952D01*
X90142103Y-84357603D01*
X90142104Y-84357606D01*
X90242187Y-84554025D01*
X90371752Y-84732358D01*
X90371756Y-84732363D01*
X90527636Y-84888243D01*
X90527641Y-84888247D01*
X90667254Y-84989682D01*
X90709920Y-85045012D01*
X90715899Y-85114625D01*
X90683293Y-85176420D01*
X90667254Y-85190318D01*
X90527641Y-85291752D01*
X90527636Y-85291756D01*
X90371756Y-85447636D01*
X90371752Y-85447641D01*
X90242187Y-85625974D01*
X90142104Y-85822393D01*
X90142104Y-85822395D01*
X90073985Y-86032047D01*
X90039500Y-86249778D01*
X90039500Y-86470221D01*
X90073985Y-86687952D01*
X90142103Y-86897603D01*
X90142104Y-86897606D01*
X90242187Y-87094025D01*
X90371752Y-87272358D01*
X90371756Y-87272363D01*
X90527636Y-87428243D01*
X90527641Y-87428247D01*
X90667254Y-87529682D01*
X90709920Y-87585012D01*
X90715899Y-87654625D01*
X90683293Y-87716420D01*
X90667254Y-87730318D01*
X90527641Y-87831752D01*
X90527636Y-87831756D01*
X90371756Y-87987636D01*
X90371752Y-87987641D01*
X90242187Y-88165974D01*
X90142104Y-88362393D01*
X90142104Y-88362395D01*
X90073985Y-88572047D01*
X90039500Y-88789778D01*
X90039500Y-89010221D01*
X90073985Y-89227952D01*
X90142103Y-89437603D01*
X90142104Y-89437606D01*
X90242187Y-89634025D01*
X90371752Y-89812358D01*
X90371756Y-89812363D01*
X90527636Y-89968243D01*
X90527641Y-89968247D01*
X90667254Y-90069682D01*
X90709920Y-90125012D01*
X90715899Y-90194625D01*
X90683293Y-90256420D01*
X90667254Y-90270318D01*
X90527641Y-90371752D01*
X90527636Y-90371756D01*
X90371756Y-90527636D01*
X90371752Y-90527641D01*
X90242187Y-90705974D01*
X90142104Y-90902393D01*
X90142103Y-90902396D01*
X90073985Y-91112047D01*
X90039500Y-91329778D01*
X90039500Y-91550221D01*
X90073985Y-91767954D01*
X90109475Y-91877183D01*
X90110278Y-91905301D01*
X90114282Y-91933147D01*
X90111262Y-91939758D01*
X90111470Y-91947024D01*
X90096943Y-91971113D01*
X90085257Y-91996703D01*
X90079142Y-92000632D01*
X90075389Y-92006857D01*
X90050142Y-92019269D01*
X90026479Y-92034477D01*
X90016206Y-92035953D01*
X90012688Y-92037684D01*
X89991544Y-92039500D01*
X89940098Y-92039500D01*
X89873059Y-92019815D01*
X89852417Y-92003181D01*
X89636819Y-91787583D01*
X89603334Y-91726260D01*
X89600500Y-91699902D01*
X89600500Y-78940096D01*
X89620185Y-78873057D01*
X89636815Y-78852419D01*
X89827820Y-78661414D01*
X89889142Y-78627930D01*
X89958834Y-78632914D01*
G37*
%TD.AperFunction*%
%TA.AperFunction,Conductor*%
G36*
X116606942Y-89520185D02*
G01*
X116627584Y-89536819D01*
X118006561Y-90915796D01*
X118040046Y-90977119D01*
X118036811Y-91041794D01*
X118013985Y-91112045D01*
X117979500Y-91329778D01*
X117979500Y-91550221D01*
X118013985Y-91767954D01*
X118049475Y-91877183D01*
X118051470Y-91947024D01*
X118015389Y-92006857D01*
X117952688Y-92037684D01*
X117931544Y-92039500D01*
X92888456Y-92039500D01*
X92821417Y-92019815D01*
X92775662Y-91967011D01*
X92765718Y-91897853D01*
X92770525Y-91877183D01*
X92806014Y-91767954D01*
X92806013Y-91767954D01*
X92806015Y-91767951D01*
X92840500Y-91550222D01*
X92840500Y-91329778D01*
X92806015Y-91112049D01*
X92737895Y-90902394D01*
X92737895Y-90902393D01*
X92671351Y-90771796D01*
X92637815Y-90705978D01*
X92621260Y-90683192D01*
X92508247Y-90527641D01*
X92508243Y-90527636D01*
X92352363Y-90371756D01*
X92352358Y-90371752D01*
X92212745Y-90270318D01*
X92170079Y-90214989D01*
X92164100Y-90145375D01*
X92196705Y-90083580D01*
X92212745Y-90069682D01*
X92352358Y-89968247D01*
X92352356Y-89968247D01*
X92352365Y-89968242D01*
X92508242Y-89812365D01*
X92637815Y-89634022D01*
X92671352Y-89568204D01*
X92719326Y-89517409D01*
X92781836Y-89500500D01*
X116539903Y-89500500D01*
X116606942Y-89520185D01*
G37*
%TD.AperFunction*%
%TA.AperFunction,Conductor*%
G36*
X111382136Y-79449939D02*
G01*
X111447031Y-79476819D01*
X111526503Y-79509737D01*
X111681153Y-79540499D01*
X111681156Y-79540500D01*
X111681158Y-79540500D01*
X111838844Y-79540500D01*
X111838845Y-79540499D01*
X111993497Y-79509737D01*
X112080354Y-79473760D01*
X112137864Y-79449939D01*
X112185316Y-79440500D01*
X116498481Y-79440500D01*
X116565520Y-79460185D01*
X116586162Y-79476819D01*
X117975791Y-80866448D01*
X118009276Y-80927771D01*
X118010583Y-80973527D01*
X117979500Y-81169778D01*
X117979500Y-81390221D01*
X118013985Y-81607952D01*
X118082103Y-81817603D01*
X118082104Y-81817606D01*
X118150122Y-81951096D01*
X118182049Y-82013756D01*
X118182187Y-82014025D01*
X118311752Y-82192358D01*
X118311756Y-82192363D01*
X118467636Y-82348243D01*
X118467641Y-82348247D01*
X118607254Y-82449682D01*
X118649920Y-82505012D01*
X118655899Y-82574625D01*
X118623293Y-82636420D01*
X118607254Y-82650318D01*
X118467641Y-82751752D01*
X118467636Y-82751756D01*
X118311756Y-82907636D01*
X118311752Y-82907641D01*
X118182187Y-83085974D01*
X118082104Y-83282393D01*
X118082104Y-83282395D01*
X118013985Y-83492047D01*
X117979500Y-83709778D01*
X117979500Y-83810903D01*
X117959815Y-83877942D01*
X117907011Y-83923697D01*
X117837853Y-83933641D01*
X117774297Y-83904616D01*
X117767819Y-83898584D01*
X117327590Y-83458355D01*
X117327588Y-83458352D01*
X117208717Y-83339481D01*
X117208716Y-83339480D01*
X117109839Y-83282394D01*
X117109838Y-83282393D01*
X117071783Y-83260422D01*
X117015881Y-83245443D01*
X116919057Y-83219499D01*
X116760943Y-83219499D01*
X116753347Y-83219499D01*
X116753331Y-83219500D01*
X92781836Y-83219500D01*
X92714797Y-83199815D01*
X92671352Y-83151796D01*
X92637814Y-83085976D01*
X92508247Y-82907641D01*
X92508243Y-82907636D01*
X92352363Y-82751756D01*
X92352358Y-82751752D01*
X92212319Y-82650008D01*
X92169653Y-82594678D01*
X92163674Y-82525065D01*
X92196279Y-82463270D01*
X92212319Y-82449372D01*
X92237513Y-82431066D01*
X92237514Y-82431066D01*
X91569409Y-81762962D01*
X91632993Y-81745925D01*
X91747007Y-81680099D01*
X91840099Y-81587007D01*
X91905925Y-81472993D01*
X91922962Y-81409410D01*
X92591066Y-82077514D01*
X92591066Y-82077513D01*
X92637386Y-82013760D01*
X92737432Y-81817410D01*
X92805526Y-81607835D01*
X92840000Y-81390181D01*
X92840000Y-81169818D01*
X92805526Y-80952164D01*
X92737432Y-80742589D01*
X92637388Y-80546243D01*
X92591066Y-80482485D01*
X92591065Y-80482485D01*
X91922962Y-81150589D01*
X91905925Y-81087007D01*
X91840099Y-80972993D01*
X91747007Y-80879901D01*
X91632993Y-80814075D01*
X91569407Y-80797037D01*
X92237513Y-80128932D01*
X92212319Y-80110628D01*
X92169653Y-80055298D01*
X92163674Y-79985685D01*
X92196279Y-79923889D01*
X92212313Y-79909994D01*
X92352365Y-79808242D01*
X92508242Y-79652365D01*
X92625034Y-79491613D01*
X92680362Y-79448949D01*
X92725351Y-79440500D01*
X111334684Y-79440500D01*
X111382136Y-79449939D01*
G37*
%TD.AperFunction*%
%TA.AperFunction,Conductor*%
G36*
X137520520Y-75015185D02*
G01*
X137541162Y-75031819D01*
X138263181Y-75753838D01*
X138296666Y-75815161D01*
X138299500Y-75841519D01*
X138299500Y-77147870D01*
X138299501Y-77147876D01*
X138305908Y-77207483D01*
X138356202Y-77342328D01*
X138356206Y-77342335D01*
X138442452Y-77457544D01*
X138442455Y-77457547D01*
X138557664Y-77543793D01*
X138557671Y-77543797D01*
X138591516Y-77556420D01*
X138692517Y-77594091D01*
X138752127Y-77600500D01*
X138862693Y-77600499D01*
X138929730Y-77620183D01*
X138950372Y-77636818D01*
X139570591Y-78257037D01*
X139507007Y-78274075D01*
X139392993Y-78339901D01*
X139299901Y-78432993D01*
X139234075Y-78547007D01*
X139217037Y-78610590D01*
X138548932Y-77942485D01*
X138548931Y-77942485D01*
X138502616Y-78006233D01*
X138402567Y-78202589D01*
X138334473Y-78412164D01*
X138300000Y-78629818D01*
X138300000Y-78850181D01*
X138334473Y-79067835D01*
X138402567Y-79277410D01*
X138502611Y-79473756D01*
X138548932Y-79537513D01*
X139217037Y-78869408D01*
X139234075Y-78932993D01*
X139299901Y-79047007D01*
X139392993Y-79140099D01*
X139507007Y-79205925D01*
X139570590Y-79222962D01*
X138902485Y-79891065D01*
X138902485Y-79891066D01*
X138927680Y-79909371D01*
X138970346Y-79964701D01*
X138976325Y-80034314D01*
X138943720Y-80096110D01*
X138927681Y-80110008D01*
X138787636Y-80211756D01*
X138631756Y-80367636D01*
X138631752Y-80367641D01*
X138502187Y-80545974D01*
X138402104Y-80742393D01*
X138402103Y-80742396D01*
X138333985Y-80952047D01*
X138299500Y-81169778D01*
X138299500Y-81390221D01*
X138333985Y-81607952D01*
X138402103Y-81817603D01*
X138402104Y-81817606D01*
X138470122Y-81951096D01*
X138502049Y-82013756D01*
X138502187Y-82014025D01*
X138631752Y-82192358D01*
X138631756Y-82192363D01*
X138787636Y-82348243D01*
X138787641Y-82348247D01*
X138927254Y-82449682D01*
X138969920Y-82505012D01*
X138975899Y-82574625D01*
X138943293Y-82636420D01*
X138927254Y-82650318D01*
X138787641Y-82751752D01*
X138787636Y-82751756D01*
X138631756Y-82907636D01*
X138631752Y-82907641D01*
X138502185Y-83085976D01*
X138468648Y-83151796D01*
X138420674Y-83202591D01*
X138358164Y-83219500D01*
X135961836Y-83219500D01*
X135894797Y-83199815D01*
X135851352Y-83151796D01*
X135817814Y-83085976D01*
X135688247Y-82907641D01*
X135688243Y-82907636D01*
X135532363Y-82751756D01*
X135532358Y-82751752D01*
X135392745Y-82650318D01*
X135350079Y-82594989D01*
X135344100Y-82525375D01*
X135376705Y-82463580D01*
X135392745Y-82449682D01*
X135532358Y-82348247D01*
X135532356Y-82348247D01*
X135532365Y-82348242D01*
X135688242Y-82192365D01*
X135817815Y-82014022D01*
X135917895Y-81817606D01*
X135986015Y-81607951D01*
X136020500Y-81390222D01*
X136020500Y-81169778D01*
X135986015Y-80952049D01*
X135930114Y-80780000D01*
X135917896Y-80742396D01*
X135917895Y-80742393D01*
X135883237Y-80674375D01*
X135817815Y-80545978D01*
X135771685Y-80482485D01*
X135688247Y-80367641D01*
X135688243Y-80367636D01*
X135532363Y-80211756D01*
X135532358Y-80211752D01*
X135392745Y-80110318D01*
X135350079Y-80054989D01*
X135344100Y-79985375D01*
X135376705Y-79923580D01*
X135392745Y-79909682D01*
X135532358Y-79808247D01*
X135532356Y-79808247D01*
X135532365Y-79808242D01*
X135688242Y-79652365D01*
X135817815Y-79474022D01*
X135917895Y-79277606D01*
X135986015Y-79067951D01*
X136020500Y-78850222D01*
X136020500Y-78629778D01*
X135986015Y-78412049D01*
X135930114Y-78240000D01*
X135917896Y-78202396D01*
X135917895Y-78202393D01*
X135875516Y-78119222D01*
X135817815Y-78005978D01*
X135769516Y-77939500D01*
X135688247Y-77827641D01*
X135688243Y-77827636D01*
X135532363Y-77671756D01*
X135532358Y-77671752D01*
X135392745Y-77570318D01*
X135350079Y-77514989D01*
X135344100Y-77445375D01*
X135376705Y-77383580D01*
X135392745Y-77369682D01*
X135532358Y-77268247D01*
X135532356Y-77268247D01*
X135532365Y-77268242D01*
X135688242Y-77112365D01*
X135817815Y-76934022D01*
X135917895Y-76737606D01*
X135986015Y-76527951D01*
X136020500Y-76310222D01*
X136020500Y-76089778D01*
X135986015Y-75872049D01*
X135917895Y-75662394D01*
X135917895Y-75662393D01*
X135883237Y-75594375D01*
X135817815Y-75465978D01*
X135712985Y-75321691D01*
X135688247Y-75287641D01*
X135688243Y-75287636D01*
X135607788Y-75207181D01*
X135574303Y-75145858D01*
X135579287Y-75076166D01*
X135621159Y-75020233D01*
X135686623Y-74995816D01*
X135695469Y-74995500D01*
X137453481Y-74995500D01*
X137520520Y-75015185D01*
G37*
%TD.AperFunction*%
%TA.AperFunction,Conductor*%
G36*
X170003736Y-72000726D02*
G01*
X170293796Y-72018271D01*
X170308659Y-72020076D01*
X170590797Y-72071780D01*
X170605334Y-72075363D01*
X170879182Y-72160698D01*
X170893163Y-72166000D01*
X171154734Y-72283724D01*
X171167987Y-72290680D01*
X171413458Y-72439071D01*
X171425776Y-72447573D01*
X171651573Y-72624474D01*
X171662781Y-72634404D01*
X171865595Y-72837218D01*
X171875525Y-72848426D01*
X171990295Y-72994919D01*
X172052422Y-73074217D01*
X172060928Y-73086541D01*
X172209319Y-73332012D01*
X172216277Y-73345269D01*
X172259399Y-73441082D01*
X172328447Y-73594500D01*
X172333994Y-73606823D01*
X172339304Y-73620825D01*
X172424635Y-73894664D01*
X172428219Y-73909202D01*
X172479923Y-74191340D01*
X172481728Y-74206205D01*
X172499274Y-74496263D01*
X172499500Y-74503750D01*
X172499500Y-98496249D01*
X172499274Y-98503736D01*
X172481728Y-98793794D01*
X172479923Y-98808659D01*
X172428219Y-99090797D01*
X172424635Y-99105335D01*
X172339304Y-99379174D01*
X172333994Y-99393176D01*
X172216277Y-99654730D01*
X172209319Y-99667987D01*
X172060928Y-99913458D01*
X172052422Y-99925782D01*
X171875525Y-100151573D01*
X171865595Y-100162781D01*
X171662781Y-100365595D01*
X171651573Y-100375525D01*
X171425782Y-100552422D01*
X171413458Y-100560928D01*
X171167987Y-100709319D01*
X171154730Y-100716277D01*
X170893176Y-100833994D01*
X170879174Y-100839304D01*
X170605335Y-100924635D01*
X170590797Y-100928219D01*
X170308659Y-100979923D01*
X170293794Y-100981728D01*
X170003736Y-100999274D01*
X169996249Y-100999500D01*
X56003751Y-100999500D01*
X55996264Y-100999274D01*
X55706205Y-100981728D01*
X55691340Y-100979923D01*
X55409202Y-100928219D01*
X55394664Y-100924635D01*
X55120825Y-100839304D01*
X55106827Y-100833995D01*
X54954096Y-100765256D01*
X54845269Y-100716277D01*
X54832012Y-100709319D01*
X54586541Y-100560928D01*
X54574217Y-100552422D01*
X54348426Y-100375525D01*
X54337218Y-100365595D01*
X54134404Y-100162781D01*
X54124474Y-100151573D01*
X53947573Y-99925776D01*
X53939071Y-99913458D01*
X53790680Y-99667987D01*
X53783722Y-99654730D01*
X53770567Y-99625501D01*
X53666000Y-99393163D01*
X53660702Y-99379196D01*
X53649710Y-99343920D01*
X107649499Y-99343920D01*
X107678340Y-99488907D01*
X107678343Y-99488917D01*
X107734912Y-99625488D01*
X107734919Y-99625501D01*
X107817048Y-99748415D01*
X107817051Y-99748419D01*
X107921580Y-99852948D01*
X107921584Y-99852951D01*
X108044498Y-99935080D01*
X108044511Y-99935087D01*
X108181082Y-99991656D01*
X108181087Y-99991658D01*
X108181091Y-99991658D01*
X108181092Y-99991659D01*
X108326079Y-100020500D01*
X108326082Y-100020500D01*
X108473920Y-100020500D01*
X108584708Y-99998462D01*
X108618913Y-99991658D01*
X108755495Y-99935084D01*
X108878416Y-99852951D01*
X108982951Y-99748416D01*
X109065084Y-99625495D01*
X109121658Y-99488913D01*
X109143487Y-99379174D01*
X109150500Y-99343920D01*
X114449499Y-99343920D01*
X114478340Y-99488907D01*
X114478343Y-99488917D01*
X114534912Y-99625488D01*
X114534919Y-99625501D01*
X114617048Y-99748415D01*
X114617051Y-99748419D01*
X114721580Y-99852948D01*
X114721584Y-99852951D01*
X114844498Y-99935080D01*
X114844511Y-99935087D01*
X114981082Y-99991656D01*
X114981087Y-99991658D01*
X114981091Y-99991658D01*
X114981092Y-99991659D01*
X115126079Y-100020500D01*
X115126082Y-100020500D01*
X115273920Y-100020500D01*
X115384708Y-99998462D01*
X115418913Y-99991658D01*
X115555495Y-99935084D01*
X115678416Y-99852951D01*
X115782951Y-99748416D01*
X115865084Y-99625495D01*
X115921658Y-99488913D01*
X115943487Y-99379174D01*
X115950500Y-99343920D01*
X115950500Y-99196079D01*
X115921659Y-99051092D01*
X115921658Y-99051091D01*
X115921658Y-99051087D01*
X115900497Y-99000000D01*
X115865087Y-98914511D01*
X115865080Y-98914498D01*
X115782951Y-98791584D01*
X115782948Y-98791580D01*
X115678419Y-98687051D01*
X115678415Y-98687048D01*
X115555501Y-98604919D01*
X115555488Y-98604912D01*
X115418917Y-98548343D01*
X115418907Y-98548340D01*
X115273920Y-98519500D01*
X115273918Y-98519500D01*
X115126082Y-98519500D01*
X115126080Y-98519500D01*
X114981092Y-98548340D01*
X114981082Y-98548343D01*
X114844511Y-98604912D01*
X114844498Y-98604919D01*
X114721584Y-98687048D01*
X114721580Y-98687051D01*
X114617051Y-98791580D01*
X114617048Y-98791584D01*
X114534919Y-98914498D01*
X114534912Y-98914511D01*
X114478343Y-99051082D01*
X114478340Y-99051092D01*
X114449500Y-99196079D01*
X114449500Y-99196082D01*
X114449500Y-99343918D01*
X114449500Y-99343920D01*
X114449499Y-99343920D01*
X109150500Y-99343920D01*
X109150500Y-99196079D01*
X109121659Y-99051092D01*
X109121658Y-99051091D01*
X109121658Y-99051087D01*
X109100497Y-99000000D01*
X109065087Y-98914511D01*
X109065080Y-98914498D01*
X108982951Y-98791584D01*
X108982948Y-98791580D01*
X108878419Y-98687051D01*
X108878415Y-98687048D01*
X108755501Y-98604919D01*
X108755488Y-98604912D01*
X108618917Y-98548343D01*
X108618907Y-98548340D01*
X108473920Y-98519500D01*
X108473918Y-98519500D01*
X108326082Y-98519500D01*
X108326080Y-98519500D01*
X108181092Y-98548340D01*
X108181082Y-98548343D01*
X108044511Y-98604912D01*
X108044498Y-98604919D01*
X107921584Y-98687048D01*
X107921580Y-98687051D01*
X107817051Y-98791580D01*
X107817048Y-98791584D01*
X107734919Y-98914498D01*
X107734912Y-98914511D01*
X107678343Y-99051082D01*
X107678340Y-99051092D01*
X107649500Y-99196079D01*
X107649500Y-99196082D01*
X107649500Y-99343918D01*
X107649500Y-99343920D01*
X107649499Y-99343920D01*
X53649710Y-99343920D01*
X53575363Y-99105334D01*
X53571780Y-99090797D01*
X53555141Y-99000000D01*
X58000000Y-99000000D01*
X87500000Y-99000000D01*
X87500000Y-92079054D01*
X88399498Y-92079054D01*
X88440423Y-92231787D01*
X88440425Y-92231790D01*
X88463227Y-92271283D01*
X88463228Y-92271285D01*
X88519475Y-92368709D01*
X88519481Y-92368717D01*
X88638349Y-92487585D01*
X88638354Y-92487589D01*
X89271284Y-93120520D01*
X89271286Y-93120521D01*
X89271290Y-93120524D01*
X89400373Y-93195049D01*
X89408216Y-93199577D01*
X89560943Y-93240501D01*
X89560945Y-93240501D01*
X89726654Y-93240501D01*
X89726670Y-93240500D01*
X90042625Y-93240500D01*
X90109664Y-93260185D01*
X90155419Y-93312989D01*
X90165363Y-93382147D01*
X90153110Y-93420795D01*
X90142105Y-93442393D01*
X90142103Y-93442396D01*
X90073985Y-93652047D01*
X90039500Y-93869778D01*
X90039500Y-94090221D01*
X90073985Y-94307952D01*
X90142103Y-94517603D01*
X90142104Y-94517606D01*
X90242187Y-94714025D01*
X90371752Y-94892358D01*
X90371756Y-94892363D01*
X90421928Y-94942535D01*
X90455413Y-95003858D01*
X90450429Y-95073550D01*
X90408557Y-95129483D01*
X90377581Y-95146398D01*
X90297669Y-95176203D01*
X90297664Y-95176206D01*
X90182455Y-95262452D01*
X90182452Y-95262455D01*
X90096206Y-95377664D01*
X90096202Y-95377671D01*
X90045908Y-95512517D01*
X90039501Y-95572116D01*
X90039501Y-95572123D01*
X90039500Y-95572135D01*
X90039500Y-97467870D01*
X90039501Y-97467876D01*
X90045908Y-97527483D01*
X90096202Y-97662328D01*
X90096206Y-97662335D01*
X90182452Y-97777544D01*
X90182455Y-97777547D01*
X90297664Y-97863793D01*
X90297671Y-97863797D01*
X90432517Y-97914091D01*
X90432516Y-97914091D01*
X90439444Y-97914835D01*
X90492127Y-97920500D01*
X92387872Y-97920499D01*
X92447483Y-97914091D01*
X92582331Y-97863796D01*
X92697546Y-97777546D01*
X92783796Y-97662331D01*
X92834091Y-97527483D01*
X92840500Y-97467873D01*
X92840499Y-95572128D01*
X92834091Y-95512517D01*
X92828399Y-95497257D01*
X92783797Y-95377671D01*
X92783793Y-95377664D01*
X92697547Y-95262455D01*
X92697544Y-95262452D01*
X92582335Y-95176206D01*
X92582328Y-95176202D01*
X92502419Y-95146398D01*
X92446485Y-95104527D01*
X92422068Y-95039062D01*
X92436920Y-94970789D01*
X92458069Y-94942537D01*
X92508242Y-94892365D01*
X92637815Y-94714022D01*
X92737895Y-94517606D01*
X92806015Y-94307951D01*
X92840500Y-94090222D01*
X92840500Y-93869778D01*
X92806015Y-93652049D01*
X92753424Y-93490187D01*
X92737896Y-93442396D01*
X92737894Y-93442393D01*
X92726890Y-93420795D01*
X92713994Y-93352125D01*
X92740271Y-93287385D01*
X92797377Y-93247128D01*
X92837375Y-93240500D01*
X97315745Y-93240500D01*
X97382784Y-93260185D01*
X97428539Y-93312989D01*
X97438483Y-93382147D01*
X97409458Y-93445703D01*
X97354749Y-93482205D01*
X97342824Y-93486157D01*
X97330668Y-93490185D01*
X97330663Y-93490187D01*
X97181342Y-93582289D01*
X97057289Y-93706342D01*
X96965187Y-93855663D01*
X96965185Y-93855668D01*
X96937349Y-93939670D01*
X96910001Y-94022203D01*
X96910001Y-94022204D01*
X96910000Y-94022204D01*
X96899500Y-94124983D01*
X96899500Y-95475001D01*
X96899501Y-95475018D01*
X96910000Y-95577796D01*
X96910001Y-95577799D01*
X96962109Y-95735049D01*
X96965186Y-95744334D01*
X97057288Y-95893656D01*
X97181344Y-96017712D01*
X97330666Y-96109814D01*
X97497203Y-96164999D01*
X97599991Y-96175500D01*
X98400008Y-96175499D01*
X98400016Y-96175498D01*
X98400019Y-96175498D01*
X98456302Y-96169748D01*
X98502797Y-96164999D01*
X98669334Y-96109814D01*
X98818656Y-96017712D01*
X98942712Y-95893656D01*
X98982581Y-95829016D01*
X99034525Y-95782294D01*
X99103488Y-95771071D01*
X99167570Y-95798914D01*
X99175799Y-95806434D01*
X99283397Y-95914032D01*
X99423475Y-96015804D01*
X99577744Y-96094408D01*
X99742415Y-96147914D01*
X99742414Y-96147914D01*
X99749999Y-96149115D01*
X99750000Y-96149114D01*
X99750000Y-95080330D01*
X99769745Y-95100075D01*
X99855255Y-95149444D01*
X99950630Y-95175000D01*
X100049370Y-95175000D01*
X100144745Y-95149444D01*
X100230255Y-95100075D01*
X100250000Y-95080330D01*
X100250000Y-96149115D01*
X100257584Y-96147914D01*
X100422255Y-96094408D01*
X100576524Y-96015804D01*
X100716602Y-95914032D01*
X100839032Y-95791602D01*
X100940804Y-95651524D01*
X101019408Y-95497257D01*
X101072914Y-95332584D01*
X101100000Y-95161571D01*
X101100000Y-95050000D01*
X100280330Y-95050000D01*
X100300075Y-95030255D01*
X100349444Y-94944745D01*
X100375000Y-94849370D01*
X100375000Y-94750630D01*
X100349444Y-94655255D01*
X100300075Y-94569745D01*
X100280330Y-94550000D01*
X101100000Y-94550000D01*
X101100000Y-94438428D01*
X101072914Y-94267415D01*
X101019408Y-94102742D01*
X100940804Y-93948475D01*
X100839032Y-93808397D01*
X100716602Y-93685967D01*
X100576524Y-93584195D01*
X100422257Y-93505591D01*
X100350976Y-93482431D01*
X100293301Y-93442993D01*
X100266103Y-93378634D01*
X100278018Y-93309788D01*
X100325262Y-93258312D01*
X100389295Y-93240500D01*
X117739903Y-93240500D01*
X117806942Y-93260185D01*
X117827584Y-93276819D01*
X118006561Y-93455796D01*
X118040046Y-93517119D01*
X118036811Y-93581794D01*
X118013985Y-93652045D01*
X117979500Y-93869778D01*
X117979500Y-94090221D01*
X118013985Y-94307952D01*
X118082103Y-94517603D01*
X118082104Y-94517606D01*
X118182187Y-94714025D01*
X118311752Y-94892358D01*
X118311756Y-94892363D01*
X118467636Y-95048243D01*
X118467641Y-95048247D01*
X118607254Y-95149682D01*
X118649920Y-95205012D01*
X118655899Y-95274625D01*
X118623293Y-95336420D01*
X118607254Y-95350318D01*
X118467641Y-95451752D01*
X118467636Y-95451756D01*
X118311756Y-95607636D01*
X118311752Y-95607641D01*
X118182187Y-95785974D01*
X118082104Y-95982393D01*
X118082103Y-95982396D01*
X118013985Y-96192047D01*
X117979500Y-96409778D01*
X117979500Y-96630221D01*
X118013985Y-96847952D01*
X118082103Y-97057603D01*
X118082104Y-97057606D01*
X118182187Y-97254025D01*
X118311752Y-97432358D01*
X118311756Y-97432363D01*
X118467636Y-97588243D01*
X118467641Y-97588247D01*
X118569606Y-97662328D01*
X118645978Y-97717815D01*
X118774375Y-97783237D01*
X118842393Y-97817895D01*
X118842396Y-97817896D01*
X118947221Y-97851955D01*
X119052049Y-97886015D01*
X119269778Y-97920500D01*
X119269779Y-97920500D01*
X119490221Y-97920500D01*
X119490222Y-97920500D01*
X119707951Y-97886015D01*
X119917606Y-97817895D01*
X120114022Y-97717815D01*
X120292365Y-97588242D01*
X120448242Y-97432365D01*
X120525682Y-97325777D01*
X120581011Y-97283112D01*
X120650624Y-97277133D01*
X120712420Y-97309738D01*
X120746777Y-97370577D01*
X120750000Y-97398663D01*
X120750000Y-98250000D01*
X130810000Y-98250000D01*
X130810000Y-92250000D01*
X120750000Y-92250000D01*
X120750000Y-92352971D01*
X120750000Y-93101336D01*
X120730315Y-93168375D01*
X120677511Y-93214130D01*
X120608353Y-93224074D01*
X120544797Y-93195049D01*
X120525682Y-93174221D01*
X120448247Y-93067641D01*
X120448243Y-93067636D01*
X120292363Y-92911756D01*
X120292358Y-92911752D01*
X120152745Y-92810318D01*
X120110079Y-92754989D01*
X120104100Y-92685375D01*
X120136705Y-92623580D01*
X120152745Y-92609682D01*
X120292358Y-92508247D01*
X120292356Y-92508247D01*
X120292365Y-92508242D01*
X120448242Y-92352365D01*
X120577815Y-92174022D01*
X120677895Y-91977606D01*
X120746015Y-91767951D01*
X120780500Y-91550222D01*
X120780500Y-91329778D01*
X120746015Y-91112049D01*
X120677895Y-90902394D01*
X120677895Y-90902393D01*
X120611351Y-90771796D01*
X120577815Y-90705978D01*
X120561260Y-90683192D01*
X120448247Y-90527641D01*
X120448243Y-90527636D01*
X120292363Y-90371756D01*
X120292358Y-90371752D01*
X120152745Y-90270318D01*
X120110079Y-90214989D01*
X120104100Y-90145375D01*
X120136705Y-90083580D01*
X120152745Y-90069682D01*
X120292358Y-89968247D01*
X120292356Y-89968247D01*
X120292365Y-89968242D01*
X120448242Y-89812365D01*
X120577815Y-89634022D01*
X120677895Y-89437606D01*
X120746015Y-89227951D01*
X120780500Y-89010222D01*
X120780500Y-88789778D01*
X120746015Y-88572049D01*
X120722748Y-88500441D01*
X120677896Y-88362395D01*
X120677895Y-88362393D01*
X120611351Y-88231796D01*
X120577815Y-88165978D01*
X120561260Y-88143192D01*
X120448247Y-87987641D01*
X120448243Y-87987636D01*
X120292363Y-87831756D01*
X120292358Y-87831752D01*
X120152745Y-87730318D01*
X120110079Y-87674989D01*
X120104100Y-87605375D01*
X120136705Y-87543580D01*
X120152745Y-87529682D01*
X120292358Y-87428247D01*
X120292356Y-87428247D01*
X120292365Y-87428242D01*
X120448242Y-87272365D01*
X120577815Y-87094022D01*
X120677895Y-86897606D01*
X120746015Y-86687951D01*
X120780500Y-86470222D01*
X120780500Y-86249778D01*
X120746015Y-86032049D01*
X120722748Y-85960441D01*
X120677896Y-85822395D01*
X120677895Y-85822393D01*
X120611351Y-85691796D01*
X120577815Y-85625978D01*
X120561260Y-85603192D01*
X120448247Y-85447641D01*
X120448243Y-85447636D01*
X120292363Y-85291756D01*
X120292358Y-85291752D01*
X120152745Y-85190318D01*
X120110079Y-85134989D01*
X120104100Y-85065375D01*
X120136705Y-85003580D01*
X120152745Y-84989682D01*
X120292358Y-84888247D01*
X120292356Y-84888247D01*
X120292365Y-84888242D01*
X120448242Y-84732365D01*
X120577815Y-84554022D01*
X120677895Y-84357606D01*
X120746015Y-84147951D01*
X120780500Y-83930222D01*
X120780500Y-83709778D01*
X120746015Y-83492049D01*
X120722748Y-83420441D01*
X120677896Y-83282395D01*
X120677895Y-83282393D01*
X120611351Y-83151796D01*
X120577815Y-83085978D01*
X120561260Y-83063192D01*
X120448247Y-82907641D01*
X120448243Y-82907636D01*
X120292363Y-82751756D01*
X120292358Y-82751752D01*
X120152745Y-82650318D01*
X120110079Y-82594989D01*
X120104100Y-82525375D01*
X120136705Y-82463580D01*
X120152745Y-82449682D01*
X120292358Y-82348247D01*
X120292356Y-82348247D01*
X120292365Y-82348242D01*
X120448242Y-82192365D01*
X120577815Y-82014022D01*
X120677895Y-81817606D01*
X120746015Y-81607951D01*
X120780500Y-81390222D01*
X120780500Y-81169778D01*
X120749416Y-80973523D01*
X120758370Y-80904233D01*
X120784205Y-80866450D01*
X126618838Y-75031819D01*
X126680161Y-74998334D01*
X126706519Y-74995500D01*
X133544531Y-74995500D01*
X133611570Y-75015185D01*
X133657325Y-75067989D01*
X133667269Y-75137147D01*
X133638244Y-75200703D01*
X133632212Y-75207181D01*
X133551756Y-75287636D01*
X133551752Y-75287641D01*
X133422187Y-75465974D01*
X133322104Y-75662393D01*
X133322103Y-75662396D01*
X133253985Y-75872047D01*
X133219500Y-76089778D01*
X133219500Y-76310221D01*
X133253985Y-76527952D01*
X133322103Y-76737603D01*
X133322104Y-76737606D01*
X133422187Y-76934025D01*
X133551752Y-77112358D01*
X133551756Y-77112363D01*
X133707636Y-77268243D01*
X133707641Y-77268247D01*
X133847254Y-77369682D01*
X133889920Y-77425012D01*
X133895899Y-77494625D01*
X133863293Y-77556420D01*
X133847254Y-77570318D01*
X133707641Y-77671752D01*
X133707636Y-77671756D01*
X133551756Y-77827636D01*
X133551752Y-77827641D01*
X133422187Y-78005974D01*
X133322104Y-78202393D01*
X133322103Y-78202396D01*
X133253985Y-78412047D01*
X133219500Y-78629778D01*
X133219500Y-78850221D01*
X133253985Y-79067952D01*
X133322103Y-79277603D01*
X133322104Y-79277606D01*
X133390122Y-79411096D01*
X133422049Y-79473756D01*
X133422187Y-79474025D01*
X133551752Y-79652358D01*
X133551756Y-79652363D01*
X133707636Y-79808243D01*
X133707641Y-79808247D01*
X133847254Y-79909682D01*
X133889920Y-79965012D01*
X133895899Y-80034625D01*
X133863293Y-80096420D01*
X133847254Y-80110318D01*
X133707641Y-80211752D01*
X133707636Y-80211756D01*
X133551756Y-80367636D01*
X133551752Y-80367641D01*
X133422187Y-80545974D01*
X133322104Y-80742393D01*
X133322103Y-80742396D01*
X133253985Y-80952047D01*
X133219500Y-81169778D01*
X133219500Y-81390221D01*
X133253985Y-81607952D01*
X133322103Y-81817603D01*
X133322104Y-81817606D01*
X133390122Y-81951096D01*
X133422049Y-82013756D01*
X133422187Y-82014025D01*
X133551752Y-82192358D01*
X133551756Y-82192363D01*
X133707636Y-82348243D01*
X133707641Y-82348247D01*
X133847254Y-82449682D01*
X133889920Y-82505012D01*
X133895899Y-82574625D01*
X133863293Y-82636420D01*
X133847254Y-82650318D01*
X133707641Y-82751752D01*
X133707636Y-82751756D01*
X133551756Y-82907636D01*
X133551752Y-82907641D01*
X133422187Y-83085974D01*
X133322104Y-83282393D01*
X133322104Y-83282395D01*
X133253985Y-83492047D01*
X133219500Y-83709778D01*
X133219500Y-83930221D01*
X133253985Y-84147952D01*
X133322103Y-84357603D01*
X133322104Y-84357606D01*
X133422187Y-84554025D01*
X133551752Y-84732358D01*
X133551756Y-84732363D01*
X133707636Y-84888243D01*
X133707641Y-84888247D01*
X133847254Y-84989682D01*
X133889920Y-85045012D01*
X133895899Y-85114625D01*
X133863293Y-85176420D01*
X133847254Y-85190318D01*
X133707641Y-85291752D01*
X133707636Y-85291756D01*
X133551756Y-85447636D01*
X133551752Y-85447641D01*
X133422187Y-85625974D01*
X133322104Y-85822393D01*
X133322104Y-85822395D01*
X133253985Y-86032047D01*
X133219500Y-86249778D01*
X133219500Y-86470221D01*
X133253985Y-86687952D01*
X133322103Y-86897603D01*
X133322104Y-86897606D01*
X133422187Y-87094025D01*
X133551752Y-87272358D01*
X133551756Y-87272363D01*
X133707636Y-87428243D01*
X133707641Y-87428247D01*
X133847254Y-87529682D01*
X133889920Y-87585012D01*
X133895899Y-87654625D01*
X133863293Y-87716420D01*
X133847254Y-87730318D01*
X133707641Y-87831752D01*
X133707636Y-87831756D01*
X133551756Y-87987636D01*
X133551752Y-87987641D01*
X133422187Y-88165974D01*
X133322104Y-88362393D01*
X133322104Y-88362395D01*
X133253985Y-88572047D01*
X133219500Y-88789778D01*
X133219500Y-89010221D01*
X133253985Y-89227952D01*
X133322103Y-89437603D01*
X133322104Y-89437606D01*
X133422187Y-89634025D01*
X133551752Y-89812358D01*
X133551756Y-89812363D01*
X133707636Y-89968243D01*
X133707641Y-89968247D01*
X133847254Y-90069682D01*
X133889920Y-90125012D01*
X133895899Y-90194625D01*
X133863293Y-90256420D01*
X133847254Y-90270318D01*
X133707641Y-90371752D01*
X133707636Y-90371756D01*
X133551756Y-90527636D01*
X133551752Y-90527641D01*
X133422187Y-90705974D01*
X133322104Y-90902393D01*
X133322103Y-90902396D01*
X133253985Y-91112047D01*
X133219500Y-91329778D01*
X133219500Y-91550221D01*
X133253985Y-91767952D01*
X133322103Y-91977603D01*
X133322104Y-91977606D01*
X133422187Y-92174025D01*
X133551752Y-92352358D01*
X133551756Y-92352363D01*
X133707636Y-92508243D01*
X133707641Y-92508247D01*
X133847254Y-92609682D01*
X133889920Y-92665012D01*
X133895899Y-92734625D01*
X133863293Y-92796420D01*
X133847254Y-92810318D01*
X133707641Y-92911752D01*
X133707636Y-92911756D01*
X133551756Y-93067636D01*
X133551752Y-93067641D01*
X133422187Y-93245974D01*
X133322104Y-93442393D01*
X133322103Y-93442396D01*
X133253985Y-93652047D01*
X133219500Y-93869778D01*
X133219500Y-94090221D01*
X133253985Y-94307952D01*
X133322103Y-94517603D01*
X133322104Y-94517606D01*
X133422187Y-94714025D01*
X133551752Y-94892358D01*
X133551756Y-94892363D01*
X133707636Y-95048243D01*
X133707641Y-95048247D01*
X133847254Y-95149682D01*
X133889920Y-95205012D01*
X133895899Y-95274625D01*
X133863293Y-95336420D01*
X133847254Y-95350318D01*
X133707641Y-95451752D01*
X133707636Y-95451756D01*
X133551756Y-95607636D01*
X133551752Y-95607641D01*
X133422187Y-95785974D01*
X133322104Y-95982393D01*
X133322103Y-95982396D01*
X133253985Y-96192047D01*
X133219500Y-96409778D01*
X133219500Y-96630221D01*
X133253985Y-96847952D01*
X133322103Y-97057603D01*
X133322104Y-97057606D01*
X133422187Y-97254025D01*
X133551752Y-97432358D01*
X133551756Y-97432363D01*
X133707636Y-97588243D01*
X133707641Y-97588247D01*
X133809606Y-97662328D01*
X133885978Y-97717815D01*
X134014375Y-97783237D01*
X134082393Y-97817895D01*
X134082396Y-97817896D01*
X134187221Y-97851955D01*
X134292049Y-97886015D01*
X134509778Y-97920500D01*
X134509779Y-97920500D01*
X134730221Y-97920500D01*
X134730222Y-97920500D01*
X134947951Y-97886015D01*
X135157606Y-97817895D01*
X135354022Y-97717815D01*
X135532365Y-97588242D01*
X135688242Y-97432365D01*
X135817815Y-97254022D01*
X135851352Y-97188204D01*
X135899326Y-97137409D01*
X135961836Y-97120500D01*
X138358164Y-97120500D01*
X138425203Y-97140185D01*
X138468648Y-97188204D01*
X138502185Y-97254023D01*
X138631752Y-97432358D01*
X138631756Y-97432363D01*
X138787636Y-97588243D01*
X138787641Y-97588247D01*
X138889606Y-97662328D01*
X138965978Y-97717815D01*
X139094375Y-97783237D01*
X139162393Y-97817895D01*
X139162396Y-97817896D01*
X139267221Y-97851955D01*
X139372049Y-97886015D01*
X139589778Y-97920500D01*
X139589779Y-97920500D01*
X139810221Y-97920500D01*
X139810222Y-97920500D01*
X140027951Y-97886015D01*
X140237606Y-97817895D01*
X140434022Y-97717815D01*
X140612365Y-97588242D01*
X140768242Y-97432365D01*
X140897815Y-97254022D01*
X140997895Y-97057606D01*
X141066015Y-96847951D01*
X141100500Y-96630222D01*
X141100500Y-96409778D01*
X141066015Y-96192049D01*
X141031955Y-96087221D01*
X140997896Y-95982396D01*
X140997895Y-95982393D01*
X140919746Y-95829020D01*
X140897815Y-95785978D01*
X140874676Y-95754130D01*
X140768247Y-95607641D01*
X140768243Y-95607636D01*
X140612363Y-95451756D01*
X140612358Y-95451752D01*
X140472745Y-95350318D01*
X140430079Y-95294989D01*
X140424100Y-95225375D01*
X140456705Y-95163580D01*
X140472745Y-95149682D01*
X140612358Y-95048247D01*
X140612356Y-95048247D01*
X140612365Y-95048242D01*
X140768242Y-94892365D01*
X140897815Y-94714022D01*
X140997895Y-94517606D01*
X141066015Y-94307951D01*
X141100500Y-94090222D01*
X141100500Y-93869778D01*
X141066015Y-93652049D01*
X141013424Y-93490187D01*
X140997896Y-93442396D01*
X140997895Y-93442393D01*
X140929998Y-93309141D01*
X140897815Y-93245978D01*
X140845681Y-93174221D01*
X140768247Y-93067641D01*
X140768243Y-93067636D01*
X140612363Y-92911756D01*
X140612358Y-92911752D01*
X140472745Y-92810318D01*
X140430079Y-92754989D01*
X140424100Y-92685375D01*
X140456705Y-92623580D01*
X140472745Y-92609682D01*
X140612358Y-92508247D01*
X140612356Y-92508247D01*
X140612365Y-92508242D01*
X140768242Y-92352365D01*
X140897815Y-92174022D01*
X140997895Y-91977606D01*
X141066015Y-91767951D01*
X141100500Y-91550222D01*
X141100500Y-91329778D01*
X141066015Y-91112049D01*
X140997895Y-90902394D01*
X140997895Y-90902393D01*
X140931351Y-90771796D01*
X140897815Y-90705978D01*
X140881260Y-90683192D01*
X140768247Y-90527641D01*
X140768243Y-90527636D01*
X140612363Y-90371756D01*
X140612358Y-90371752D01*
X140472745Y-90270318D01*
X140430079Y-90214989D01*
X140424100Y-90145375D01*
X140456705Y-90083580D01*
X140472745Y-90069682D01*
X140612358Y-89968247D01*
X140612356Y-89968247D01*
X140612365Y-89968242D01*
X140768242Y-89812365D01*
X140897815Y-89634022D01*
X140997895Y-89437606D01*
X141066015Y-89227951D01*
X141100500Y-89010222D01*
X141100500Y-88789778D01*
X141066015Y-88572049D01*
X141042748Y-88500441D01*
X140997896Y-88362395D01*
X140997895Y-88362393D01*
X140931351Y-88231796D01*
X140897815Y-88165978D01*
X140881260Y-88143192D01*
X140768247Y-87987641D01*
X140768243Y-87987636D01*
X140612363Y-87831756D01*
X140612358Y-87831752D01*
X140472745Y-87730318D01*
X140430079Y-87674989D01*
X140424100Y-87605375D01*
X140456705Y-87543580D01*
X140472745Y-87529682D01*
X140612358Y-87428247D01*
X140612356Y-87428247D01*
X140612365Y-87428242D01*
X140768242Y-87272365D01*
X140897815Y-87094022D01*
X140997895Y-86897606D01*
X141066015Y-86687951D01*
X141100500Y-86470222D01*
X141100500Y-86249778D01*
X141066015Y-86032049D01*
X141042748Y-85960441D01*
X140997896Y-85822395D01*
X140997895Y-85822393D01*
X140931351Y-85691796D01*
X140897815Y-85625978D01*
X140881260Y-85603192D01*
X140768247Y-85447641D01*
X140768243Y-85447636D01*
X140612363Y-85291756D01*
X140612358Y-85291752D01*
X140472745Y-85190318D01*
X140430079Y-85134989D01*
X140424100Y-85065375D01*
X140456705Y-85003580D01*
X140472745Y-84989682D01*
X140612358Y-84888247D01*
X140612356Y-84888247D01*
X140612365Y-84888242D01*
X140768242Y-84732365D01*
X140897815Y-84554022D01*
X140997895Y-84357606D01*
X141066015Y-84147951D01*
X141100500Y-83930222D01*
X141100500Y-83709778D01*
X141066015Y-83492049D01*
X141042748Y-83420441D01*
X140997896Y-83282395D01*
X140997895Y-83282393D01*
X140931351Y-83151796D01*
X140897815Y-83085978D01*
X140881260Y-83063192D01*
X140768247Y-82907641D01*
X140768243Y-82907636D01*
X140612363Y-82751756D01*
X140612358Y-82751752D01*
X140472745Y-82650318D01*
X140430079Y-82594989D01*
X140424100Y-82525375D01*
X140456705Y-82463580D01*
X140472745Y-82449682D01*
X140612358Y-82348247D01*
X140612356Y-82348247D01*
X140612365Y-82348242D01*
X140768242Y-82192365D01*
X140897815Y-82014022D01*
X140997895Y-81817606D01*
X141066015Y-81607951D01*
X141100500Y-81390222D01*
X141100500Y-81169778D01*
X141066015Y-80952049D01*
X141010114Y-80780000D01*
X140997896Y-80742396D01*
X140997895Y-80742393D01*
X140963237Y-80674375D01*
X140897815Y-80545978D01*
X140851685Y-80482485D01*
X140768247Y-80367641D01*
X140768243Y-80367636D01*
X140612363Y-80211756D01*
X140612358Y-80211752D01*
X140472319Y-80110008D01*
X140429653Y-80054678D01*
X140423674Y-79985065D01*
X140456279Y-79923270D01*
X140472319Y-79909372D01*
X140497513Y-79891066D01*
X140497514Y-79891066D01*
X139829409Y-79222962D01*
X139892993Y-79205925D01*
X140007007Y-79140099D01*
X140100099Y-79047007D01*
X140165925Y-78932993D01*
X140182962Y-78869410D01*
X140851066Y-79537514D01*
X140851066Y-79537513D01*
X140897386Y-79473760D01*
X140997432Y-79277410D01*
X141065526Y-79067835D01*
X141100000Y-78850181D01*
X141100000Y-78629818D01*
X141065526Y-78412164D01*
X140997432Y-78202589D01*
X140897388Y-78006243D01*
X140851066Y-77942485D01*
X140851065Y-77942485D01*
X140182962Y-78610589D01*
X140165925Y-78547007D01*
X140100099Y-78432993D01*
X140007007Y-78339901D01*
X139892993Y-78274075D01*
X139829408Y-78257037D01*
X140449628Y-77636818D01*
X140510951Y-77603333D01*
X140537308Y-77600499D01*
X140647872Y-77600499D01*
X140707483Y-77594091D01*
X140842331Y-77543796D01*
X140957546Y-77457546D01*
X141043796Y-77342331D01*
X141094091Y-77207483D01*
X141100500Y-77147873D01*
X141100499Y-76089778D01*
X163699500Y-76089778D01*
X163699500Y-76310221D01*
X163733985Y-76527952D01*
X163802103Y-76737603D01*
X163802104Y-76737606D01*
X163902187Y-76934025D01*
X164031752Y-77112358D01*
X164031756Y-77112363D01*
X164187636Y-77268243D01*
X164187641Y-77268247D01*
X164327254Y-77369682D01*
X164369920Y-77425012D01*
X164375899Y-77494625D01*
X164343293Y-77556420D01*
X164327254Y-77570318D01*
X164187641Y-77671752D01*
X164187636Y-77671756D01*
X164031756Y-77827636D01*
X164031752Y-77827641D01*
X163902187Y-78005974D01*
X163802104Y-78202393D01*
X163802103Y-78202396D01*
X163733985Y-78412047D01*
X163699500Y-78629778D01*
X163699500Y-78850221D01*
X163733985Y-79067952D01*
X163802103Y-79277603D01*
X163802104Y-79277606D01*
X163870122Y-79411096D01*
X163902049Y-79473756D01*
X163902187Y-79474025D01*
X164031752Y-79652358D01*
X164031756Y-79652363D01*
X164187636Y-79808243D01*
X164187641Y-79808247D01*
X164327254Y-79909682D01*
X164369920Y-79965012D01*
X164375899Y-80034625D01*
X164343293Y-80096420D01*
X164327254Y-80110318D01*
X164187641Y-80211752D01*
X164187636Y-80211756D01*
X164031756Y-80367636D01*
X164031752Y-80367641D01*
X163902187Y-80545974D01*
X163802104Y-80742393D01*
X163802103Y-80742396D01*
X163733985Y-80952047D01*
X163699500Y-81169778D01*
X163699500Y-81390221D01*
X163733985Y-81607952D01*
X163802103Y-81817603D01*
X163802104Y-81817606D01*
X163870122Y-81951096D01*
X163902049Y-82013756D01*
X163902187Y-82014025D01*
X164031752Y-82192358D01*
X164031756Y-82192363D01*
X164187636Y-82348243D01*
X164187641Y-82348247D01*
X164327254Y-82449682D01*
X164369920Y-82505012D01*
X164375899Y-82574625D01*
X164343293Y-82636420D01*
X164327254Y-82650318D01*
X164187641Y-82751752D01*
X164187636Y-82751756D01*
X164031756Y-82907636D01*
X164031752Y-82907641D01*
X163902187Y-83085974D01*
X163802104Y-83282393D01*
X163802104Y-83282395D01*
X163733985Y-83492047D01*
X163699500Y-83709778D01*
X163699500Y-83930221D01*
X163733985Y-84147952D01*
X163802103Y-84357603D01*
X163802104Y-84357606D01*
X163902187Y-84554025D01*
X164031752Y-84732358D01*
X164031756Y-84732363D01*
X164187636Y-84888243D01*
X164187641Y-84888247D01*
X164327254Y-84989682D01*
X164369920Y-85045012D01*
X164375899Y-85114625D01*
X164343293Y-85176420D01*
X164327254Y-85190318D01*
X164187641Y-85291752D01*
X164187636Y-85291756D01*
X164031756Y-85447636D01*
X164031752Y-85447641D01*
X163902187Y-85625974D01*
X163802104Y-85822393D01*
X163802104Y-85822395D01*
X163733985Y-86032047D01*
X163699500Y-86249778D01*
X163699500Y-86470221D01*
X163733985Y-86687952D01*
X163802103Y-86897603D01*
X163802104Y-86897606D01*
X163902187Y-87094025D01*
X164031752Y-87272358D01*
X164031756Y-87272363D01*
X164187636Y-87428243D01*
X164187641Y-87428247D01*
X164327256Y-87529682D01*
X164365978Y-87557815D01*
X164459319Y-87605375D01*
X164562393Y-87657895D01*
X164562396Y-87657896D01*
X164667221Y-87691955D01*
X164772049Y-87726015D01*
X164989778Y-87760500D01*
X164989779Y-87760500D01*
X165210221Y-87760500D01*
X165210222Y-87760500D01*
X165427951Y-87726015D01*
X165637606Y-87657895D01*
X165834022Y-87557815D01*
X166012365Y-87428242D01*
X166168242Y-87272365D01*
X166297815Y-87094022D01*
X166397895Y-86897606D01*
X166466015Y-86687951D01*
X166500500Y-86470222D01*
X166500500Y-86249778D01*
X166466015Y-86032049D01*
X166442748Y-85960441D01*
X166397896Y-85822395D01*
X166397895Y-85822393D01*
X166331351Y-85691796D01*
X166297815Y-85625978D01*
X166281260Y-85603192D01*
X166168247Y-85447641D01*
X166168243Y-85447636D01*
X166012363Y-85291756D01*
X166012358Y-85291752D01*
X165872745Y-85190318D01*
X165830079Y-85134989D01*
X165824100Y-85065375D01*
X165856705Y-85003580D01*
X165872745Y-84989682D01*
X166012358Y-84888247D01*
X166012356Y-84888247D01*
X166012365Y-84888242D01*
X166168242Y-84732365D01*
X166297815Y-84554022D01*
X166397895Y-84357606D01*
X166466015Y-84147951D01*
X166500500Y-83930222D01*
X166500500Y-83709778D01*
X166466015Y-83492049D01*
X166442748Y-83420441D01*
X166397896Y-83282395D01*
X166397895Y-83282393D01*
X166331351Y-83151796D01*
X166297815Y-83085978D01*
X166281260Y-83063192D01*
X166168247Y-82907641D01*
X166168243Y-82907636D01*
X166012363Y-82751756D01*
X166012358Y-82751752D01*
X165872745Y-82650318D01*
X165830079Y-82594989D01*
X165824100Y-82525375D01*
X165856705Y-82463580D01*
X165872745Y-82449682D01*
X166012358Y-82348247D01*
X166012356Y-82348247D01*
X166012365Y-82348242D01*
X166168242Y-82192365D01*
X166297815Y-82014022D01*
X166397895Y-81817606D01*
X166466015Y-81607951D01*
X166500500Y-81390222D01*
X166500500Y-81169778D01*
X166466015Y-80952049D01*
X166410114Y-80780000D01*
X166397896Y-80742396D01*
X166397895Y-80742393D01*
X166363237Y-80674375D01*
X166297815Y-80545978D01*
X166251685Y-80482485D01*
X166168247Y-80367641D01*
X166168243Y-80367636D01*
X166012363Y-80211756D01*
X166012358Y-80211752D01*
X165872745Y-80110318D01*
X165830079Y-80054989D01*
X165824100Y-79985375D01*
X165856705Y-79923580D01*
X165872745Y-79909682D01*
X166012358Y-79808247D01*
X166012356Y-79808247D01*
X166012365Y-79808242D01*
X166168242Y-79652365D01*
X166297815Y-79474022D01*
X166397895Y-79277606D01*
X166466015Y-79067951D01*
X166500500Y-78850222D01*
X166500500Y-78629778D01*
X166466015Y-78412049D01*
X166410114Y-78240000D01*
X166397896Y-78202396D01*
X166397895Y-78202393D01*
X166355516Y-78119222D01*
X166297815Y-78005978D01*
X166249516Y-77939500D01*
X166168247Y-77827641D01*
X166168243Y-77827636D01*
X166012363Y-77671756D01*
X166012358Y-77671752D01*
X165872745Y-77570318D01*
X165830079Y-77514989D01*
X165824100Y-77445375D01*
X165856705Y-77383580D01*
X165872745Y-77369682D01*
X166012358Y-77268247D01*
X166012356Y-77268247D01*
X166012365Y-77268242D01*
X166168242Y-77112365D01*
X166297815Y-76934022D01*
X166397895Y-76737606D01*
X166466015Y-76527951D01*
X166500500Y-76310222D01*
X166500500Y-76089778D01*
X166466015Y-75872049D01*
X166397895Y-75662394D01*
X166397895Y-75662393D01*
X166363237Y-75594375D01*
X166297815Y-75465978D01*
X166192985Y-75321691D01*
X166168247Y-75287641D01*
X166168243Y-75287636D01*
X166012363Y-75131756D01*
X166012358Y-75131752D01*
X165834025Y-75002187D01*
X165834024Y-75002186D01*
X165834022Y-75002185D01*
X165716791Y-74942452D01*
X165637606Y-74902104D01*
X165637603Y-74902103D01*
X165427952Y-74833985D01*
X165319086Y-74816742D01*
X165210222Y-74799500D01*
X164989778Y-74799500D01*
X164917201Y-74810995D01*
X164772047Y-74833985D01*
X164562396Y-74902103D01*
X164562393Y-74902104D01*
X164365974Y-75002187D01*
X164187641Y-75131752D01*
X164187636Y-75131756D01*
X164031756Y-75287636D01*
X164031752Y-75287641D01*
X163902187Y-75465974D01*
X163802104Y-75662393D01*
X163802103Y-75662396D01*
X163733985Y-75872047D01*
X163699500Y-76089778D01*
X141100499Y-76089778D01*
X141100499Y-75252128D01*
X141094091Y-75192517D01*
X141076688Y-75145858D01*
X141043797Y-75057671D01*
X141043793Y-75057664D01*
X140957547Y-74942455D01*
X140957544Y-74942452D01*
X140842335Y-74856206D01*
X140842328Y-74856202D01*
X140707482Y-74805908D01*
X140707483Y-74805908D01*
X140647883Y-74799501D01*
X140647881Y-74799500D01*
X140647873Y-74799500D01*
X140647865Y-74799500D01*
X139341519Y-74799500D01*
X139274480Y-74779815D01*
X139253838Y-74763181D01*
X138241546Y-73750888D01*
X138241545Y-73750887D01*
X138126807Y-73674222D01*
X137999332Y-73621421D01*
X137999322Y-73621418D01*
X137863996Y-73594500D01*
X137863994Y-73594500D01*
X137863993Y-73594500D01*
X126433994Y-73594500D01*
X126296006Y-73594500D01*
X126296004Y-73594500D01*
X126160677Y-73621418D01*
X126160667Y-73621421D01*
X126033192Y-73674222D01*
X125918454Y-73750887D01*
X125918453Y-73750888D01*
X120987567Y-78681773D01*
X120926244Y-78715258D01*
X120856552Y-78710274D01*
X120800619Y-78668402D01*
X120777413Y-78613489D01*
X120745527Y-78412165D01*
X120677432Y-78202589D01*
X120577388Y-78006243D01*
X120531065Y-77942485D01*
X119862962Y-78610589D01*
X119845925Y-78547007D01*
X119780099Y-78432993D01*
X119687007Y-78339901D01*
X119572993Y-78274075D01*
X119509408Y-78257037D01*
X120129628Y-77636818D01*
X120190951Y-77603333D01*
X120217308Y-77600499D01*
X120327872Y-77600499D01*
X120387483Y-77594091D01*
X120522331Y-77543796D01*
X120637546Y-77457546D01*
X120723796Y-77342331D01*
X120774091Y-77207483D01*
X120780500Y-77147873D01*
X120780499Y-75252128D01*
X120774091Y-75192517D01*
X120756688Y-75145858D01*
X120723797Y-75057671D01*
X120723793Y-75057664D01*
X120637547Y-74942455D01*
X120637544Y-74942452D01*
X120522335Y-74856206D01*
X120522328Y-74856202D01*
X120387482Y-74805908D01*
X120387483Y-74805908D01*
X120327883Y-74799501D01*
X120327881Y-74799500D01*
X120327873Y-74799500D01*
X120327864Y-74799500D01*
X118432129Y-74799500D01*
X118432123Y-74799501D01*
X118372516Y-74805908D01*
X118237671Y-74856202D01*
X118237664Y-74856206D01*
X118122455Y-74942452D01*
X118122452Y-74942455D01*
X118036206Y-75057664D01*
X118036202Y-75057671D01*
X117985908Y-75192517D01*
X117984332Y-75207181D01*
X117979501Y-75252123D01*
X117979500Y-75252135D01*
X117979500Y-77147870D01*
X117979501Y-77147876D01*
X117985908Y-77207483D01*
X118036202Y-77342328D01*
X118036206Y-77342335D01*
X118122452Y-77457544D01*
X118122455Y-77457547D01*
X118237664Y-77543793D01*
X118237671Y-77543797D01*
X118271516Y-77556420D01*
X118372517Y-77594091D01*
X118432127Y-77600500D01*
X118542693Y-77600499D01*
X118609730Y-77620183D01*
X118630372Y-77636818D01*
X119250591Y-78257037D01*
X119187007Y-78274075D01*
X119072993Y-78339901D01*
X118979901Y-78432993D01*
X118914075Y-78547007D01*
X118897037Y-78610590D01*
X118228932Y-77942485D01*
X118228931Y-77942485D01*
X118182616Y-78006233D01*
X118082567Y-78202589D01*
X118014473Y-78412164D01*
X117982585Y-78613492D01*
X117952655Y-78676626D01*
X117893344Y-78713557D01*
X117823481Y-78712559D01*
X117772431Y-78681774D01*
X117286546Y-78195888D01*
X117286545Y-78195887D01*
X117171807Y-78119222D01*
X117044332Y-78066421D01*
X117044322Y-78066418D01*
X116908996Y-78039500D01*
X116908994Y-78039500D01*
X116908993Y-78039500D01*
X112185316Y-78039500D01*
X112137864Y-78030061D01*
X111993501Y-77970264D01*
X111993489Y-77970261D01*
X111838845Y-77939500D01*
X111838842Y-77939500D01*
X111681158Y-77939500D01*
X111681155Y-77939500D01*
X111526510Y-77970261D01*
X111526498Y-77970264D01*
X111382136Y-78030061D01*
X111334684Y-78039500D01*
X92725351Y-78039500D01*
X92658312Y-78019815D01*
X92625035Y-77988388D01*
X92508242Y-77827635D01*
X92352365Y-77671758D01*
X92352363Y-77671756D01*
X92352358Y-77671752D01*
X92212745Y-77570318D01*
X92170079Y-77514989D01*
X92164100Y-77445375D01*
X92196705Y-77383580D01*
X92212745Y-77369682D01*
X92352358Y-77268247D01*
X92352356Y-77268247D01*
X92352365Y-77268242D01*
X92508242Y-77112365D01*
X92637815Y-76934022D01*
X92737895Y-76737606D01*
X92806015Y-76527951D01*
X92840500Y-76310222D01*
X92840500Y-76089778D01*
X92806015Y-75872049D01*
X92737895Y-75662394D01*
X92737895Y-75662393D01*
X92703237Y-75594375D01*
X92637815Y-75465978D01*
X92628943Y-75453767D01*
X92532986Y-75321691D01*
X92508247Y-75287641D01*
X92508243Y-75287636D01*
X92352363Y-75131756D01*
X92352358Y-75131752D01*
X92174025Y-75002187D01*
X92174024Y-75002186D01*
X92174022Y-75002185D01*
X92056791Y-74942452D01*
X91977606Y-74902104D01*
X91977603Y-74902103D01*
X91767952Y-74833985D01*
X91659086Y-74816742D01*
X91550222Y-74799500D01*
X91329778Y-74799500D01*
X91257201Y-74810995D01*
X91112047Y-74833985D01*
X90902396Y-74902103D01*
X90902393Y-74902104D01*
X90705974Y-75002187D01*
X90527641Y-75131752D01*
X90527636Y-75131756D01*
X90371756Y-75287636D01*
X90371752Y-75287641D01*
X90242187Y-75465974D01*
X90142104Y-75662393D01*
X90142103Y-75662396D01*
X90073985Y-75872047D01*
X90039500Y-76089778D01*
X90039500Y-76310221D01*
X90073985Y-76527952D01*
X90096811Y-76598203D01*
X90098806Y-76668044D01*
X90066561Y-76724202D01*
X88631286Y-78159478D01*
X88519481Y-78271282D01*
X88519479Y-78271285D01*
X88471368Y-78354618D01*
X88471367Y-78354619D01*
X88440423Y-78408215D01*
X88399499Y-78560943D01*
X88399499Y-78719057D01*
X88399499Y-78719059D01*
X88399500Y-78729053D01*
X88399500Y-91913330D01*
X88399499Y-91913348D01*
X88399499Y-92079054D01*
X88399498Y-92079054D01*
X87500000Y-92079054D01*
X87500000Y-73750000D01*
X58000000Y-73750000D01*
X58000000Y-99000000D01*
X53555141Y-99000000D01*
X53520076Y-98808659D01*
X53518271Y-98793794D01*
X53500726Y-98503736D01*
X53500500Y-98496249D01*
X53500500Y-74503750D01*
X53500726Y-74496263D01*
X53516048Y-74242951D01*
X53518271Y-74206201D01*
X53520076Y-74191340D01*
X53571780Y-73909202D01*
X53575364Y-73894664D01*
X53580271Y-73878917D01*
X53625453Y-73733920D01*
X107834499Y-73733920D01*
X107863340Y-73878907D01*
X107863343Y-73878917D01*
X107919912Y-74015488D01*
X107919919Y-74015501D01*
X108002048Y-74138415D01*
X108002051Y-74138419D01*
X108106580Y-74242948D01*
X108106584Y-74242951D01*
X108229498Y-74325080D01*
X108229511Y-74325087D01*
X108366082Y-74381656D01*
X108366087Y-74381658D01*
X108366091Y-74381658D01*
X108366092Y-74381659D01*
X108511079Y-74410500D01*
X108511082Y-74410500D01*
X108658920Y-74410500D01*
X108756462Y-74391096D01*
X108803913Y-74381658D01*
X108940495Y-74325084D01*
X109063416Y-74242951D01*
X109167951Y-74138416D01*
X109250084Y-74015495D01*
X109306658Y-73878913D01*
X109316096Y-73831462D01*
X109335500Y-73733920D01*
X114634499Y-73733920D01*
X114663340Y-73878907D01*
X114663343Y-73878917D01*
X114719912Y-74015488D01*
X114719919Y-74015501D01*
X114802048Y-74138415D01*
X114802051Y-74138419D01*
X114906580Y-74242948D01*
X114906584Y-74242951D01*
X115029498Y-74325080D01*
X115029511Y-74325087D01*
X115166082Y-74381656D01*
X115166087Y-74381658D01*
X115166091Y-74381658D01*
X115166092Y-74381659D01*
X115311079Y-74410500D01*
X115311082Y-74410500D01*
X115458920Y-74410500D01*
X115556462Y-74391096D01*
X115603913Y-74381658D01*
X115740495Y-74325084D01*
X115863416Y-74242951D01*
X115967951Y-74138416D01*
X116050084Y-74015495D01*
X116106658Y-73878913D01*
X116116096Y-73831462D01*
X116135500Y-73733920D01*
X116135500Y-73586079D01*
X116106659Y-73441092D01*
X116106658Y-73441091D01*
X116106658Y-73441087D01*
X116106656Y-73441082D01*
X116050087Y-73304511D01*
X116050080Y-73304498D01*
X115967951Y-73181584D01*
X115967948Y-73181580D01*
X115863419Y-73077051D01*
X115863415Y-73077048D01*
X115740501Y-72994919D01*
X115740488Y-72994912D01*
X115603917Y-72938343D01*
X115603907Y-72938340D01*
X115458920Y-72909500D01*
X115458918Y-72909500D01*
X115311082Y-72909500D01*
X115311080Y-72909500D01*
X115166092Y-72938340D01*
X115166082Y-72938343D01*
X115029511Y-72994912D01*
X115029498Y-72994919D01*
X114906584Y-73077048D01*
X114906580Y-73077051D01*
X114802051Y-73181580D01*
X114802048Y-73181584D01*
X114719919Y-73304498D01*
X114719912Y-73304511D01*
X114663343Y-73441082D01*
X114663340Y-73441092D01*
X114634500Y-73586079D01*
X114634500Y-73586082D01*
X114634500Y-73733918D01*
X114634500Y-73733920D01*
X114634499Y-73733920D01*
X109335500Y-73733920D01*
X109335500Y-73586079D01*
X109306659Y-73441092D01*
X109306658Y-73441091D01*
X109306658Y-73441087D01*
X109306656Y-73441082D01*
X109250087Y-73304511D01*
X109250080Y-73304498D01*
X109167951Y-73181584D01*
X109167948Y-73181580D01*
X109063419Y-73077051D01*
X109063415Y-73077048D01*
X108940501Y-72994919D01*
X108940488Y-72994912D01*
X108803917Y-72938343D01*
X108803907Y-72938340D01*
X108658920Y-72909500D01*
X108658918Y-72909500D01*
X108511082Y-72909500D01*
X108511080Y-72909500D01*
X108366092Y-72938340D01*
X108366082Y-72938343D01*
X108229511Y-72994912D01*
X108229498Y-72994919D01*
X108106584Y-73077048D01*
X108106580Y-73077051D01*
X108002051Y-73181580D01*
X108002048Y-73181584D01*
X107919919Y-73304498D01*
X107919912Y-73304511D01*
X107863343Y-73441082D01*
X107863340Y-73441092D01*
X107834500Y-73586079D01*
X107834500Y-73586082D01*
X107834500Y-73733918D01*
X107834500Y-73733920D01*
X107834499Y-73733920D01*
X53625453Y-73733920D01*
X53660699Y-73620812D01*
X53665997Y-73606842D01*
X53783730Y-73345252D01*
X53790680Y-73332012D01*
X53881616Y-73181584D01*
X53939075Y-73086534D01*
X53947567Y-73074230D01*
X54124481Y-72848417D01*
X54134396Y-72837226D01*
X54337226Y-72634396D01*
X54348417Y-72624481D01*
X54574230Y-72447567D01*
X54586534Y-72439075D01*
X54832012Y-72290680D01*
X54845258Y-72283727D01*
X55106842Y-72165997D01*
X55120812Y-72160699D01*
X55394668Y-72075362D01*
X55409198Y-72071780D01*
X55691344Y-72020075D01*
X55706201Y-72018271D01*
X55996264Y-72000726D01*
X56003751Y-72000500D01*
X56065892Y-72000500D01*
X169934108Y-72000500D01*
X169996249Y-72000500D01*
X170003736Y-72000726D01*
G37*
%TD.AperFunction*%
%TD*%
M02*
